<?xml version="1.0" encoding="UTF-8"?>
<svg id="Layer_2" data-name="Layer 2" xmlns="http://www.w3.org/2000/svg" viewBox="0 0 1000 1000">
  <defs>
    <style>
      .cls-1 {
        opacity: .5;
      }

      .cls-2, .cls-3 {
        fill: #ccd2d6;
        stroke-width: 0px;
      }

      .cls-3 {
        opacity: .6;
      }

      .cls-4 {
        opacity: .25;
      }
    </style>
  </defs>
  <g class="cls-4">
    <path class="cls-2" d="m163.92,228.49h98c25.02,0,47.66,10.15,64.06,26.54,14.76,14.76,24.45,34.58,26.24,56.63V120.56c0-13,3.26-25.23,8.99-35.94-4.22-2.48-8.44-4.95-12.66-7.43-3.33-1.96-.31-7.14,3.03-5.18,4.22,2.48,8.44,4.96,12.67,7.44,9.84-15.37,25.04-26.96,42.96-32.17h-243.29c-50.04,0-90.6,40.57-90.6,90.6,0,25.03,10.14,47.67,26.53,64.07,16.4,16.39,39.06,26.53,64.07,26.53Z"/>
    <path class="cls-2" d="m276.36,476.81c-3.82,2.61-7.64,5.22-11.46,7.82v18.16c0,24.12,19.54,43.67,43.65,43.67,12.07,0,22.98-4.88,30.89-12.78,7.9-7.91,12.78-18.82,12.78-30.89v-176.26c-3.72,45.85-41.59,82.05-88.13,83.15.52,2.7.81,5.48.81,8.33v3.85c.5.16,1.01.32,1.51.5,1.59.57,2.48,2.01,2.1,3.69-.34,1.48-2.15,2.58-3.61,2.12v49.23c2.81-1.92,5.62-3.84,8.43-5.76,1.39-.94,3.27-.21,4.1,1.08.92,1.43.22,3.22-1.07,4.1Z"/>
    <path class="cls-2" d="m482.5,66.59c1.57,1.58,3.06,3.23,4.5,4.94,1.69-2.02,3.41-4.03,5.17-5.99,1.09-1.21,3.14-1.1,4.25,0,1.18,1.19,1.08,3.04,0,4.24-1.95,2.17-3.82,4.39-5.66,6.63,4.1,5.76,7.41,12.11,9.79,18.9h0c.12-.12.26-.23.39-.36,1.17-1.2,3.05-1.09,4.24,0,1.2,1.1,1.1,3.12,0,4.24-.86.88-1.76,1.73-2.68,2.55,1.53,6.02,2.35,12.32,2.35,18.82v299.02s.06,0,.1-.02c1.45-.15,2.86-.02,4.29.19.75.11,1.4.77,1.8,1.38.44.68.47,1.54.3,2.31-.16.71-.76,1.43-1.38,1.79-.35.22-.72.34-1.12.36-.32.07-.64.05-.96-.01-.94-.1-1.88-.11-2.82-.02-.25.04-.5.08-.74.14.18-.03.35-.06.53-.09v44.51c2.76,1.89,5.52,3.78,8.29,5.67,1.34.91,1.94,2.62,1.07,4.1-.77,1.33-2.76,1.99-4.1,1.08-1.76-1.2-3.51-2.4-5.26-3.6v129.3c0,14.43,6.52,27.34,16.78,35.94-.15.09-.3.18-.45.27.44-.23.86-.49,1.27-.76.32-.21.64-.42.95-.64.07-.05.81-.6.63-.45,1.31-.97,2.86-1.12,4.15.07,1.09,1,1.25,3.27,0,4.24-.46.36-.94.68-1.42,1.02,6.9,4.35,15.02,6.96,23.73,7.19-.02-6.01.27-12.01.86-17.99.17-1.62,1.25-3,3-3,1.51,0,3.17,1.39,3,3-.59,5.91-.87,11.85-.86,17.78,11.06-1.11,20.99-6.06,28.44-13.51,8.48-8.48,13.74-20.21,13.74-33.16v-6.36c-1.22-.35-2.45-.66-3.71-.87-1.65-.28-2.42-2.24-2.09-3.69.38-1.69,2.15-2.36,3.69-2.1.71.12,1.41.27,2.11.44v-114.61c0-28.72,23.28-52,52-52,14.36,0,27.36,5.82,36.78,15.23,9.4,9.41,15.23,22.4,15.23,36.77v154.19c15.74-25.28,43.57-42.24,75.41-42.77h131.3c.52,0,1.04,0,1.56-.02,49.33-.82,89.05-41.06,89.05-90.58,0-25.02-10.14-47.66-26.53-64.06-16.4-16.4-39.06-26.54-64.07-26.54h-80.27c-25.03,0-47.67-10.15-64.07-26.53-16.39-16.4-26.53-39.05-26.53-64.07,0-50.03,40.56-90.6,90.6-90.6h1.87c50.04,0,90.6-40.56,90.6-90.6,0-25.02-10.14-47.66-26.53-64.06-16.4-16.4-39.06-26.54-64.07-26.54h-381.21c12.53,3.62,23.74,10.34,32.72,19.31Z"/>
    <path class="cls-2" d="m919.71,772.1c-3.39-.39-6.83-.59-10.31-.59h-140.06c-20.9-2.37-39.65-11.85-53.76-25.95-6.42-6.42-11.88-13.81-16.15-21.92-8.23,24.33-31.23,41.84-58.33,41.84h-89.6c-25.77,0-46.65,20.89-46.65,46.66v62.31c5.87-2.2,11.53-4.9,16.75-8.52,1.33-.93,3.33-.24,4.1,1.07.86,1.48.25,3.18-1.08,4.11-6.09,4.24-12.81,7.27-19.77,9.73v69.99h-152.63v-272.71c0-21.21-17.19-38.4-38.4-38.4h-71.82c-1.45,3.19-2.93,6.36-4.44,9.51,3.82,10.02,5.91,20.89,5.91,32.26,0,46.55-35.1,84.9-80.29,90.02h-72.57c-3.48,0-6.93.2-10.31.59C35.1,777.21,0,815.56,0,862.11c0,25.02,10.14,47.67,26.53,64.06,16.4,16.4,39.06,26.54,64.07,26.54h818.79c50.04,0,90.6-40.57,90.6-90.6,0-25.03-10.14-47.67-26.53-64.07-14.11-14.1-32.86-23.58-53.76-25.95Z"/>
    <path class="cls-2" d="m234.4,641.94c.36-.78.73-1.55,1.09-2.33-.79-.05-1.58-.12-2.37-.2.44.84.87,1.68,1.28,2.53Z"/>
    <path class="cls-2" d="m89.05,590.89c.52.02,1.04.02,1.56.02h63.82c8.87.15,17.43,1.58,25.5,4.11-1.52-5.36-2.35-11.01-2.35-16.86v-88.17c-3.55-.9-7.13-1.67-10.74-2.32-1.65-.3-2.43-2.23-2.1-3.69.38-1.68,2.15-2.37,3.69-2.1,3.07.56,6.12,1.21,9.15,1.94v-65.81c0-2.84.28-5.61.8-8.3h-87.76C40.56,409.7,0,450.27,0,500.3c0,25.03,10.14,47.67,26.53,64.07,16.05,16.04,38.12,26.11,62.52,26.51Z"/>
  </g>
  <g>
    <g>
      <g class="cls-1">
        <path class="cls-2" d="m601.88,601.41c.21.09.13.05,0,0h0Z"/>
        <path class="cls-2" d="m689.98,678.42c-3.86-.07-3.86-6.07,0-6,4.27.08,8.51-.21,12.7-.82v-192.13c0-14.37-5.82-27.36-15.23-36.77-9.42-9.41-22.42-15.23-36.77-15.23-28.72,0-52,23.28-52,52v114.61c6.7,1.59,12.92,5.21,17.62,10.23,1.15,1.22,1.13,3.01,0,4.24-1.07,1.17-3.17,1.15-4.24,0-.61-.65-1.23-1.27-1.89-1.87-.33-.3-.66-.59-1-.87-.15-.13-.3-.25-.46-.38-.06-.05-.18-.14-.26-.21-1.32-.99-2.72-1.89-4.17-2.67-.78-.42-1.58-.8-2.39-1.16-.03-.01-.07-.03-.1-.04-.18-.07-.37-.15-.55-.22-.41-.16-.83-.31-1.25-.45-.43-.15-.87-.26-1.3-.38v6.36c0,12.95-5.26,24.68-13.74,33.16-7.45,7.45-17.38,12.4-28.44,13.51,0,2.5.06,5,.17,7.5.07,1.63-1.43,3-3,3-1.67,0-2.93-1.38-3-3-.11-2.43-.16-4.86-.17-7.29-8.71-.23-16.83-2.83-23.73-7.19-5.19,3.63-11.15,5.78-17.54,6.13-1.68.09-2.93-1.45-3-3-.08-1.68,1.44-2.91,3-3,.7-.04,1.4-.1,2.1-.18.1-.02.7-.11.78-.13.33-.06.65-.12.98-.19,1.4-.3,2.77-.69,4.11-1.19.31-.11.62-.24.93-.36.33-.13.35-.14.07-.03.17-.08.35-.15.52-.23.69-.32,1.37-.66,2.03-1.03.3-.17.59-.35.88-.53-10.26-8.61-16.78-21.51-16.78-35.95v-129.3c-2.84-1.94-5.68-3.88-8.51-5.82-2.2-1.5-4.36-3.1-6.65-4.47-1.67-1.01-3.71-2.12-5.72-1.7-1.59.33-3.24-.44-3.69-2.1-.41-1.49.51-3.36,2.1-3.69,6.09-1.25,11.05,2.72,15.78,5.95,2.23,1.53,4.47,3.05,6.7,4.58v-44.51c-.85.15-1.69.35-2.51.65-.75.28-1.63.06-2.31-.3-.69-.37-1.14-1.07-1.38-1.79-.23-.72-.07-1.67.3-2.31.41-.71,1.05-1.1,1.79-1.38,1.33-.49,2.7-.74,4.1-.9V120.56c0-6.5-.82-12.8-2.35-18.82-3.1,2.76-6.53,5.15-10.18,7.1-1.48.79-3.2.33-4.1-1.08-.85-1.32-.31-3.37,1.08-4.1,2.23-1.19,4.37-2.53,6.4-4.04.12-.09.25-.18.36-.27.24-.19.48-.38.71-.57.5-.4.98-.82,1.46-1.24.8-.71,1.57-1.45,2.32-2.21-2.38-6.79-5.7-13.14-9.79-18.9-4.22,5.16-8.17,10.53-11.83,16.11-.89,1.36-2.64,1.93-4.1,1.08-1.35-.79-1.96-2.75-1.08-4.1,4.07-6.23,8.5-12.23,13.25-17.97-1.43-1.71-2.93-3.36-4.51-4.94-13.47-13.47-31.95-21.89-52.39-22.31,0,.33,0,.67.02,1,.04,1.17.12,2.34.23,3.51.06.59.13,1.18.2,1.77.02.12.03.24.05.36.05.32.1.65.15.97.27,1.66-.41,3.15-2.1,3.69-1.43.46-3.44-.54-3.69-2.1-.49-3.02-.79-6.06-.86-9.11-25.17,1.43-47.06,15.06-59.88,35.07,5.93,3.48,11.87,6.97,17.8,10.45,3.33,1.96.31,7.14-3.03,5.18-5.94-3.49-11.88-6.97-17.82-10.46-5.73,10.71-8.98,22.94-8.98,35.94v382.24c0,12.07-4.88,22.98-12.79,30.88-7.9,7.9-18.82,12.79-30.88,12.79-24.11,0-43.66-19.55-43.66-43.67v-18.16c-.94.64-1.87,1.28-2.81,1.92-1.39.95-3.27.21-4.1-1.08-.92-1.43-.22-3.22,1.08-4.1,1.95-1.33,3.89-2.66,5.84-3.98v-49.23s-.05,0-.08-.02c-3.31-1.18-6.71-2.1-10.16-2.78-1.65-.32-2.43-2.21-2.1-3.69.16-.72.76-1.43,1.38-1.79.72-.42,1.51-.46,2.31-.3,2.93.57,5.81,1.34,8.64,2.27v-3.84c0-12.05-4.89-22.97-12.79-30.87-7.9-7.89-18.83-12.79-30.88-12.79-24.11,0-43.66,19.55-43.66,43.66v65.8c2.23.54,4.46,1.11,6.67,1.74,1.61.46,2.46,2.09,2.1,3.69-.36,1.57-2.18,2.53-3.69,2.1-1.68-.48-3.38-.93-5.07-1.35v88.17c0,32.78,25.61,59.57,57.93,61.46,2.99-6.46,5.84-12.99,8.51-19.59.61-1.51,1.98-2.57,3.69-2.1,1.43.39,2.7,2.19,2.1,3.69-2.47,6.09-5.07,12.13-7.79,18.12h71.82c21.21,0,38.4,17.19,38.4,38.4v272.71h152.62v-70c-6.13,2.16-12.43,3.87-18.67,5.53-3.74,1-5.32-4.79-1.59-5.79,6.8-1.81,13.67-3.66,20.26-6.14v-62.31c0-25.77,20.89-46.66,46.66-46.66h89.6c34,0,61.58-27.57,61.58-61.58v-26.24c-4.21.57-8.46.82-12.7.75ZM214.52,418.09c-1.38.89-3.28.26-4.1-1.08-2.69-4.39-4.82-9.12-6.38-14.02-.51-1.6.6-3.21,2.1-3.69,1.58-.51,3.22.6,3.69,2.1.37,1.16.77,2.32,1.21,3.46.2.53.4,1.07.64,1.59-.31-.69.13.28.18.41.12.26.23.52.35.78,1,2.18,2.14,4.3,3.4,6.35.88,1.43.27,3.24-1.08,4.1Zm59.35,190.34c-.76,1.43-2.75,1.87-4.1,1.08-3.22-1.89-6.45-3.78-9.67-5.68-1.45-.85-1.84-2.66-1.08-4.1.76-1.43,2.75-1.87,4.1-1.08,3.22,1.89,6.45,3.78,9.67,5.67,1.45.85,1.84,2.66,1.08,4.1Zm.5-22.82c-1.05,1.05-3.24,1.27-4.24,0-5.92-7.52-11.39-15.37-16.33-23.57-2-3.32,3.19-6.33,5.18-3.03,4.66,7.76,9.78,15.25,15.39,22.36,1.01,1.28,1.26,2.98,0,4.24Zm41.23,16.84c-1.47.95-3.17.18-4.1-1.08-4.08-5.45-8.16-10.9-12.24-16.35-1.01-1.34-.16-3.31,1.08-4.1,1.47-.95,3.17-.18,4.1,1.08,4.08,5.45,8.16,10.9,12.24,16.35,1.01,1.34.16,3.31-1.08,4.1Zm33.17-29.39c-1.14,5.17-2.85,10.16-5,14.98-.68,1.53-2.8,1.77-4.1,1.08-1.54-.81-1.71-2.67-1.08-4.1.15-.33.29-.66.43-.98.03-.06.04-.09.06-.13.02-.04.03-.08.06-.15.24-.58.47-1.16.7-1.75.43-1.13.84-2.27,1.21-3.42.77-2.34,1.41-4.72,1.94-7.13.36-1.64,2.17-2.44,3.69-2.1,1.64.37,2.43,2.16,2.1,3.69Zm124.59-190.11c7.66-7.4,15.32-14.81,22.98-22.21,2.78-2.69,7.02,1.55,4.24,4.24-7.66,7.4-15.32,14.81-22.98,22.21-2.78,2.69-7.02-1.55-4.24-4.24Zm-16.86-252.96c2.03-6.26,3.6-12.64,4.73-19.12.29-1.65,2.23-2.43,3.69-2.1,1.68.38,2.36,2.15,2.1,3.69-1.12,6.48-2.7,12.87-4.73,19.12-.52,1.6-2.05,2.47-3.69,2.1-1.53-.35-2.58-2.2-2.1-3.69Zm-3.99,279.79c1.48-.48,3.36.56,3.69,2.1,1.33,6.25,3.09,12.4,5.28,18.41.58,1.58-.65,3.22-2.1,3.69-1.63.53-3.15-.62-3.69-2.1-2.19-6.01-3.95-12.16-5.28-18.41-.35-1.65.47-3.17,2.1-3.69Zm-7.03,213.52c3.41,6.64,6.81,13.28,10.22,19.91.74,1.45.39,3.25-1.08,4.1-1.34.79-3.37.36-4.1-1.08-3.41-6.64-6.81-13.28-10.22-19.91-.74-1.45-.39-3.25,1.08-4.1,1.34-.79,3.37-.36,4.1,1.08Zm-6.23-74.6c-1.69.08-2.9-1.44-3-3-.03-.51-.09-1.01-.15-1.52-.21-1.38-.5-2.74-.9-4.07-.22-.71-.47-1.41-.74-2.1-.02-.04-.03-.08-.05-.12-.06-.14-.12-.28-.18-.41-.16-.35-.33-.7-.51-1.05-.76-1.5-.36-3.18,1.08-4.1,1.31-.84,3.39-.33,4.1,1.08,1.95,3.85,3.08,7.98,3.35,12.3.11,1.68-1.46,2.93-3,3Zm-6.47-199.4c.27-.29.59-.5.97-.62.36-.19.74-.27,1.16-.26.75,0,1.59.33,2.12.88,1.25,1.3,2.5,2.6,3.75,3.9.57.59.84,1.32.88,2.12.04.8-.35,1.55-.88,2.12-.27.29-.59.5-.97.62-.36.19-.74.27-1.16.26-.75,0-1.59-.33-2.12-.88-1.25-1.3-2.5-2.6-3.75-3.9-.57-.59-.84-1.32-.88-2.12-.04-.8.35-1.55.88-2.12Zm-28.05-161.8c2.53,8.46,5.9,16.6,10.09,24.36,1.84,3.4-3.34,6.43-5.18,3.03-4.43-8.2-8.03-16.86-10.7-25.79-1.11-3.71,4.68-5.29,5.79-1.6Zm10.36,372.78c-4.3,5.38-9.21,10.25-14.64,14.5-1.33,1.04-2.93,1.21-4.24,0-1.09-1.01-1.24-3.27,0-4.24,5.43-4.25,10.34-9.11,14.64-14.5,1.05-1.31,3.16-1,4.24,0,1.28,1.18.98,3.02,0,4.24Zm7.33-37.43c-.51.55-1.39.88-2.12.88-.69,0-1.66-.32-2.12-.88-2.37-2.9-4.74-5.81-7.11-8.71-.53-.65-.84-1.28-.88-2.12-.04-.8.35-1.55.88-2.12.51-.55,1.39-.88,2.12-.88.69,0,1.66.32,2.12.88,2.37,2.9,4.74,5.81,7.11,8.71.53.65.84,1.28.88,2.12.04.8-.35,1.55-.88,2.12Zm-.48-347.8c-1.68.46-3.09-.59-3.69-2.1-4.08-10.29-7.64-20.77-10.66-31.42-1.06-3.73,4.73-5.3,5.79-1.6,3.02,10.65,6.57,21.14,10.66,31.42.6,1.51-.66,3.3-2.1,3.69Zm2.96,425.28c2.78-4.02,5.19-8.28,7.2-12.74.69-1.53,2.79-1.77,4.1-1.08,1.53.81,1.72,2.68,1.08,4.1-2.01,4.45-4.42,8.72-7.2,12.74-.96,1.38-2.58,1.88-4.1,1.08-1.36-.72-1.97-2.81-1.08-4.1Zm16.48,59.82c-3.74,3.4-7.49,6.81-11.23,10.21-1.24,1.13-3,1.14-4.24,0-1.16-1.06-1.16-3.18,0-4.24,3.74-3.4,7.49-6.81,11.23-10.21,1.24-1.13,3-1.14,4.24,0,1.16,1.06,1.16,3.18,0,4.24Zm36.23,134.58c-1.06,1.06-3.23,1.27-4.24,0-7.35-9.18-15.52-17.68-24.4-25.39-1.23-1.07-1.08-3.16,0-4.24,1.2-1.2,3.02-1.06,4.24,0,8.88,7.71,17.05,16.21,24.4,25.39,1.02,1.27,1.25,2.99,0,4.24Zm89.83-91.16c-1.65.45-3.13-.57-3.69-2.1-2.53-6.92-4.06-14.15-4.67-21.49-.14-1.62,1.48-3,3-3,1.72,0,2.87,1.39,3,3,.56,6.74,2.1,13.46,4.46,19.89.56,1.53-.63,3.29-2.1,3.69Zm24.36,29.82c-1.07,1.17-3.17,1.15-4.24,0-4.37-4.65-7.98-10.01-10.56-15.85-.68-1.54-.42-3.14,1.08-4.1,1.26-.81,3.47-.36,4.1,1.08,1.22,2.76,2.66,5.42,4.32,7.94.41.63.84,1.25,1.28,1.86.23.32.47.64.71.96.04.05.07.09.09.12.09.11.17.22.26.33.94,1.18,1.93,2.32,2.96,3.42,1.15,1.22,1.13,3.01,0,4.24Zm65.19,22.74c-1.35.87-3.34.29-4.1-1.08-2.46-4.39-4.93-8.78-7.39-13.17-.82-1.47-.31-3.21,1.08-4.1,1.35-.87,3.34-.29,4.1,1.08,2.46,4.39,4.93,8.78,7.39,13.17.82,1.46.31,3.21-1.08,4.1Z"/>
      </g>
      <g>
        <path class="cls-2" d="m602.05,604.46c-.38,0-.8-.07-1.27-.26h0s-.07-.03-.11-.05l1.19-2.75-2.6-1.14,2.6,1.14,1.19-2.75s.04.02.06.03l.07.03h0c1.4.65,1.73,1.79,1.81,2.41l.2,1.73-1.4,1.03c-.35.26-.95.58-1.75.58Z"/>
        <path class="cls-2" d="m507.85,953.84h-158.62v-275.71c0-19.52-15.88-35.4-35.4-35.4h-76.47,0s-2.03-.12-2.03-.12c-34.07-1.99-60.75-30.31-60.75-64.46v-160.15c0-25.73,20.93-46.66,46.66-46.66,12.46,0,24.18,4.85,33,13.66,8.81,8.83,13.67,20.54,13.67,33v84.79c0,22.42,18.24,40.67,40.66,40.67,10.87,0,21.08-4.23,28.76-11.91,7.68-7.68,11.91-17.89,11.91-28.76V120.56c0-13.01,3.23-25.93,9.34-37.35l1.47-2.75,4.24,2.49-4.23-2.48,1.68-2.63c13.7-21.38,36.97-35.01,62.23-36.45l3.1-.18v.04s0-.03,0-.03l3.12.06c20.58.42,39.91,8.65,54.45,23.19,1.56,1.56,3.14,3.29,4.69,5.13l1.59,1.9.03-.04,2.28,3.21c4.31,6.06,7.73,12.67,10.17,19.64l.62,1.78-1.33,1.33c-.44.45-.99.98-1.58,1.54l3.1-2.75,1.21,4.78c1.62,6.37,2.44,12.95,2.44,19.56v486.11c0,13.01,5.73,25.27,15.71,33.65l3,2.52.12-.08,1.69,1.06c6.64,4.19,14.32,6.52,22.21,6.73l2.91.08v2.91c0,.51.01,1.02.02,1.52,0-.56,0-1.13-.01-1.71v-2.72s2.7-.27,2.7-.27c10.01-1,19.47-5.5,26.62-12.65,8.29-8.29,12.86-19.32,12.86-31.04v-127.19c0-30.33,24.67-55,55-55,14.68,0,28.49,5.72,38.89,16.11,10.39,10.39,16.11,24.2,16.11,38.9v194.72l-2.57.37c-4.14.6-8.31.9-12.45.86,3.83.04,7.74-.21,11.62-.73l3.4-.46v29.67c0,35.61-28.97,64.58-64.58,64.58h-89.6c-24.07,0-43.66,19.58-43.66,43.66v64.39l-1.95.73c-2.54.95-5.13,1.82-7.71,2.61,1.91-.59,3.79-1.2,5.66-1.86l4-1.41v77.23Zm-152.62-6h146.62v-62.82c-4.76,1.53-9.62,2.85-14.89,4.26-3.26.88-6.39-.98-7.28-4.29-.88-3.29.9-6.42,4.13-7.29,5.65-1.51,11.99-3.2,18.04-5.34v-60.21c0-27.38,22.28-49.66,49.66-49.66h89.6c32.3,0,58.58-26.28,58.58-58.58v-22.87c-3.26.31-6.53.44-9.75.38-1.78-.03-3.36-.77-4.45-2.09-.92-1.12-1.42-2.57-1.39-4.08.03-1.49.56-2.9,1.5-3.96,1.11-1.24,2.7-1.87,4.44-1.88,3.18.05,6.42-.1,9.65-.45v-189.49c0-13.09-5.1-25.39-14.35-34.65-9.27-9.25-21.57-14.35-34.65-14.35-27.02,0-49,21.98-49,49v112.32c6.36,1.95,12.26,5.61,16.81,10.47,2.21,2.35,2.21,5.93.02,8.32-1.07,1.16-2.63,1.83-4.29,1.84h-.03c-1.67,0-3.24-.66-4.32-1.82-.59-.63-1.15-1.19-1.72-1.7-.3-.27-.6-.54-.91-.79l-.58-.47c-1.22-.92-2.5-1.73-3.81-2.44-.38-.2-.77-.4-1.17-.6v2.06c0,13.33-5.19,25.86-14.62,35.29-7.48,7.48-17.17,12.4-27.54,14.02.03,1.62.07,3.19.14,4.73.07,1.56-.51,3.06-1.63,4.23-1.16,1.21-2.75,1.9-4.37,1.9-3.22,0-5.85-2.58-6-5.87-.07-1.48-.11-3.02-.14-4.59-7.3-.62-14.37-2.83-20.69-6.48-5.31,3.32-11.31,5.25-17.45,5.58-1.49.08-2.96-.44-4.1-1.48-1.24-1.12-1.99-2.72-2.06-4.39-.14-3.2,2.47-5.94,5.83-6.13.67-.04,1.27-.09,1.83-.16.14-.02.34-.06.51-.08l.2-.03c.27-.05.57-.11.86-.17,1.25-.27,2.49-.62,3.7-1.07.08-.03.17-.06.25-.09-9.3-9.33-14.56-21.93-14.56-35.22v-127.72l-7.21-4.93c-.61-.42-1.23-.85-1.84-1.27-1.59-1.11-3.1-2.16-4.67-3.11-.83-.5-2.56-1.54-3.57-1.33-3.25.66-6.34-1.16-7.18-4.24-.44-1.59-.17-3.34.72-4.8.85-1.38,2.15-2.32,3.67-2.63,6.82-1.4,12.14,2.3,16.84,5.56.41.29.82.57,1.23.85l2.01,1.37v-35.06c-1.05.04-2.18-.21-3.22-.77-1.31-.69-2.32-1.94-2.83-3.52-.49-1.5-.27-3.32.57-4.75.72-1.23,1.81-2.11,3.34-2.67.68-.25,1.39-.46,2.14-.63v-49.09l-22.15,21.42c-1.57,1.52-3.65,2.06-5.69,1.47-2.13-.61-3.84-2.37-4.37-4.5-.5-2.02.1-4.03,1.65-5.53l22.98-22.21c2.15-2.08,5.24-2.25,7.59-.56V120.56c0-4.51-.41-9.01-1.23-13.43-2.2,1.63-4.5,3.08-6.89,4.35-2.84,1.51-6.29.6-8.03-2.1-.86-1.33-1.11-3.03-.69-4.65.42-1.63,1.47-2.99,2.88-3.73,2.12-1.12,4.14-2.4,6.01-3.8l.24-.17c.29-.23.52-.41.75-.6.46-.38.92-.77,1.37-1.16.28-.25.55-.5.82-.75-1.73-4.55-3.91-8.91-6.52-13.04-3.26,4.17-6.31,8.42-9.1,12.69-1.8,2.75-5.37,3.64-8.13,2.03-1.4-.82-2.43-2.23-2.81-3.87-.37-1.58-.11-3.17.74-4.47,3.64-5.57,7.62-11.04,11.84-16.27-.9-1.01-1.81-1.97-2.71-2.87-12.67-12.67-29.3-20.17-47.12-21.3.03.36.06.72.09,1.08.05.56.12,1.12.19,1.69l.04.28c.05.32.1.63.15.94.53,3.24-1.13,6.06-4.13,7.03-1.56.51-3.4.26-4.92-.67-1.44-.88-2.41-2.26-2.66-3.8-.35-2.12-.6-4.25-.75-6.36-21.15,2.1-40.5,13.42-52.76,30.86l15.05,8.84c2.9,1.71,3.79,5.22,2.05,8.17-1.73,2.95-5.22,3.88-8.12,2.18l-15.07-8.84c-4.73,9.85-7.22,20.75-7.22,31.73v382.24c0,12.47-4.85,24.19-13.66,33-8.81,8.81-20.53,13.66-33,13.66-25.73,0-46.66-20.94-46.66-46.67v-12.95c-.77.17-1.58.18-2.39.02-1.64-.33-3.15-1.36-4.05-2.76-1.74-2.69-.9-6.29,1.91-8.21l4.53-3.09v-45.49c-2.53-.81-5.17-1.49-7.81-2.01-1.46-.29-2.73-1.15-3.58-2.45-.92-1.41-1.24-3.22-.87-4.85.34-1.48,1.41-2.91,2.79-3.72,1.29-.75,2.77-.98,4.4-.66,1.68.33,3.37.72,5.07,1.18-.05-10.78-4.27-20.92-11.91-28.56-7.69-7.68-17.9-11.91-28.76-11.91-22.42,0-40.66,18.24-40.66,40.66v63.46c1.57.4,3.06.8,4.5,1.21,3.08.88,4.92,4.06,4.19,7.24-.34,1.51-1.34,2.84-2.73,3.67-1.44.85-3.16,1.09-4.71.64-.41-.12-.82-.23-1.25-.35v84.28c0,30.3,23.15,55.53,53.07,58.31,2.73-5.97,5.28-11.87,7.58-17.57,1.26-3.1,4.24-4.69,7.27-3.86,1.63.45,3.07,1.66,3.85,3.25.72,1.46.8,3.04.23,4.45-1.83,4.53-3.82,9.22-5.93,13.99h67.19c22.83,0,41.4,18.57,41.4,41.4v269.71Zm243.24-350.71l1.42.41c.13.04.25.07.38.11-.59-.19-1.19-.36-1.8-.51Zm-415.01-108.68s0,0,.01,0c0,0-.01,0-.01,0Zm-5.45-1.45l.29.07c1.95.49,3.58.92,5.11,1.36,0,0,0-.01,0-.01-1.69-.47-3.47-.94-5.39-1.42Zm325.54-64.2c-.5.1-.95.21-1.38.35.44-.13.9-.25,1.38-.35Zm-30.18-39.85h0,0Zm20.19-278.28c-.57.35-1.14.69-1.72,1.01.58-.33,1.15-.66,1.72-1.01Zm-4.61-30.78c-.5.61-1,1.23-1.5,1.84.33-.41.66-.81.99-1.22l.51-.62Zm-13.59,724.71c-.12,0-.23,0-.35,0-1.62-.09-3.04-.8-4-1.99-7.22-9.01-15.31-17.43-24.03-25-1.17-1.01-1.84-2.47-1.9-4.09-.06-1.72.58-3.37,1.74-4.54,2.25-2.25,5.83-2.31,8.33-.14,8.99,7.81,17.33,16.48,24.78,25.78,2.1,2.62,2.01,6.01-.22,8.24h0c-1.11,1.11-2.72,1.75-4.36,1.75Zm2.24-3.87h0,0Zm-18.59-20.22c1.38,1.34,2.74,2.7,4.08,4.08-1.34-1.38-2.7-2.74-4.08-4.08Zm196.52-14.97c-.49,0-.98-.06-1.47-.18-1.63-.4-3.01-1.44-3.8-2.84l-7.39-13.17c-1.59-2.83-.7-6.31,2.07-8.1,1.3-.84,2.96-1.1,4.55-.71,1.63.4,3.01,1.44,3.8,2.84l7.4,13.17c1.59,2.83.7,6.31-2.07,8.09h0c-.91.58-1.98.89-3.08.89Zm1.46-3.41h0,0Zm-1.51-2.58v.02s0-.02,0-.02c0,0,0,0,0,0Zm-7.38-13.15s0,0,0,0l7.36,13.11s0,0,0,0l-7.36-13.11Zm-.03-.06s0,.02,0,.02c0,0,0,0,0,0v-.02Zm-58.38-3.08c-1.66,0-3.24-.66-4.32-1.81-4.7-5-8.44-10.62-11.12-16.69-1.32-2.99-.44-6.14,2.2-7.84,1.39-.89,3.24-1.12,4.95-.61,1.61.48,2.9,1.58,3.52,3,1.16,2.64,2.54,5.16,4.08,7.5.39.59.8,1.18,1.21,1.76.22.31.45.61.68.92l.3.39c.85,1.07,1.79,2.16,2.79,3.22,2.21,2.36,2.22,5.93.02,8.33-1.06,1.16-2.62,1.83-4.28,1.84h-.04Zm-.1-5.9h0,0Zm-22.92-24.69c-2.49,0-4.81-1.61-5.75-4.17-2.56-7-4.19-14.5-4.84-22.27-.13-1.53.41-3.04,1.51-4.23,1.16-1.26,2.84-2.02,4.48-2.02,3.14,0,5.72,2.47,5.99,5.75.53,6.36,1.97,12.79,4.28,19.11.53,1.45.41,3.04-.33,4.48-.79,1.52-2.2,2.69-3.78,3.13-.52.14-1.04.21-1.56.21Zm-138.66-32.45c-1.47,0-2.95-.55-4.15-1.65-1.17-1.08-1.84-2.66-1.84-4.35,0-1.68.68-3.25,1.85-4.32l11.23-10.21c2.41-2.19,5.9-2.19,8.29,0,1.18,1.08,1.85,2.67,1.84,4.35,0,1.68-.68,3.25-1.85,4.32h0l-11.23,10.21c-1.2,1.09-2.67,1.64-4.14,1.64Zm13.36-14.07h0,0Zm11.74-9.44c-.59,0-1.18-.08-1.76-.25-1.56-.46-2.81-1.47-3.52-2.85l-10.22-19.91c-1.52-2.96-.56-6.43,2.23-8.06,1.41-.82,3.15-1.03,4.77-.55,1.56.46,2.81,1.47,3.52,2.85l10.22,19.91c1.52,2.96.56,6.43-2.23,8.06-.91.53-1.95.8-3.01.8Zm-181.85-37.8c-1.06,0-2.11-.27-3.01-.81l-9.67-5.67c-2.78-1.63-3.75-5.18-2.21-8.09.73-1.38,1.99-2.39,3.56-2.83,1.61-.45,3.33-.25,4.72.57l9.67,5.67c2.78,1.63,3.75,5.18,2.21,8.09h0c-.73,1.38-1.99,2.38-3.56,2.83-.56.16-1.13.24-1.7.24Zm2.61-4.47h0,0Zm-2.65-1.4h0s0,0,0,0Zm-9.58-5.77s0,.02,0,.02l9.61,5.62s0-.02,0-.02l-9.61-5.62Zm165.83,6.57c-.97,0-1.96-.24-2.91-.74-1.44-.76-2.5-2.17-2.92-3.86-.4-1.63-.12-3.31.78-4.6h0c2.67-3.86,5-7.99,6.94-12.27.61-1.35,1.75-2.37,3.21-2.87,1.64-.56,3.52-.42,5.03.38,2.77,1.46,3.81,4.9,2.41,7.99-2.08,4.6-4.59,9.05-7.47,13.21-1.24,1.79-3.11,2.76-5.06,2.76Zm-2.58-7.5h0,0Zm6.72-5.12c-.52.93-1.05,1.84-1.6,2.75.55-.91,1.09-1.82,1.6-2.75Zm-117.4,10.64c-1.9,0-3.81-.94-5.12-2.69l-12.24-16.35c-.89-1.18-1.22-2.67-.95-4.19.31-1.71,1.36-3.3,2.8-4.23,2.65-1.71,6.07-.95,8.13,1.8l12.24,16.35c.89,1.18,1.22,2.67.95,4.19-.31,1.71-1.36,3.3-2.8,4.23h0c-.93.6-1.97.89-3.02.89Zm1.39-3.41h0,0Zm25.62-9.96c-1.03,0-2.06-.24-2.96-.72-2.76-1.46-3.79-4.89-2.42-7.98l.52-1.19c.22-.54.45-1.1.66-1.67.41-1.08.8-2.18,1.16-3.28.72-2.2,1.35-4.5,1.86-6.84.33-1.47,1.22-2.73,2.52-3.55,1.41-.89,3.14-1.19,4.76-.82,3.13.71,5.09,3.97,4.36,7.26h0c-1.13,5.14-2.88,10.37-5.19,15.56-.6,1.35-1.74,2.38-3.2,2.88-.67.23-1.38.35-2.09.35Zm-69.1-3c-.12,0-.25,0-.37-.01-1.62-.1-3.03-.81-3.98-2-6.11-7.76-11.68-15.79-16.54-23.88-1.72-2.87-.83-6.34,2.08-8.09,2.96-1.78,6.5-.93,8.24,1.97,4.69,7.81,9.8,15.23,15.17,22.05,2.07,2.63,1.97,6.01-.23,8.22h0c-1.11,1.11-2.72,1.75-4.37,1.75Zm2.25-3.87h0,0Zm123.85-6.99c-1.45,0-2.87-.55-4.06-1.64-1.23-1.13-1.92-2.87-1.84-4.67.07-1.68.8-3.19,2.02-4.14,5.24-4.1,10-8.81,14.15-14,.92-1.16,2.28-1.86,3.82-1.98,1.74-.12,3.53.48,4.79,1.64,2.29,2.1,2.43,5.68.32,8.32h0c-4.44,5.56-9.53,10.6-15.14,14.99-1.27.99-2.68,1.49-4.06,1.49Zm8.67-13.64c-.36.36-.72.72-1.08,1.08.36-.36.72-.72,1.08-1.08Zm8.18-4.71h0,0Zm24.05-8.58c-3.06,0-5.67-2.56-5.88-5.81-.03-.44-.08-.88-.13-1.31-.2-1.3-.46-2.47-.8-3.58-.19-.63-.42-1.26-.66-1.87l-.18-.41c-.14-.3-.29-.61-.45-.92-1.47-2.89-.57-6.25,2.12-7.99,1.35-.87,3.08-1.11,4.73-.67,1.62.44,2.96,1.5,3.68,2.91,2.13,4.21,3.37,8.74,3.67,13.46.09,1.5-.42,2.95-1.45,4.1-1.12,1.25-2.73,2.01-4.41,2.09h0c-.08,0-.17,0-.25,0Zm-.02-6h0Zm-18.82-18.97c-1.3,0-3.25-.52-4.45-1.98l-7.11-8.71c-.62-.77-1.47-2-1.55-3.88-.07-1.52.52-3.04,1.66-4.28,1.05-1.14,2.71-1.85,4.33-1.85,1.3,0,3.25.52,4.45,1.98l7.11,8.71c.63.77,1.47,2,1.55,3.88.07,1.52-.52,3.04-1.66,4.28h0c-1.05,1.14-2.71,1.85-4.33,1.85Zm2.12-3.88h0,0Zm-2.21-2.03s0,0,0,0c0,0,0,0,0,0Zm.11-.09h.02s0,0-.02,0Zm-7.17-8.71s0,0,.02,0c0,0-.01,0-.02,0Zm45.45-74.91c-2.45,0-4.77-1.62-5.71-4.19-2.23-6.12-4.05-12.45-5.4-18.82-.67-3.17,1.05-6.18,4.11-7.17h0c1.53-.5,3.26-.29,4.74.57,1.46.84,2.48,2.21,2.81,3.76,1.29,6.1,3.03,12.16,5.17,18.01.51,1.4.42,2.94-.26,4.33-.74,1.52-2.14,2.73-3.73,3.25-.57.18-1.15.27-1.72.27Zm-4.25-19.92c.53,2.16,1.12,4.31,1.76,6.44-.64-2.13-1.23-4.28-1.76-6.44Zm-1.84-7.4l.92,2.85-.92-2.85Zm-239.42,11.73c-.44,0-.89-.05-1.34-.15-1.62-.37-3.04-1.38-3.89-2.77-2.78-4.54-5.03-9.48-6.68-14.68-.98-3.08.83-6.42,4.03-7.45,1.43-.46,2.99-.33,4.37.38,1.47.76,2.6,2.09,3.1,3.66.36,1.14.75,2.25,1.15,3.29l.11.28c.15.38.29.77.46,1.15,0,0,0,0,0,0h0s.19.43.19.43c.11.25.22.5.33.74.94,2.04,2.02,4.07,3.23,6.04,1.67,2.73.77,6.4-2.01,8.19h0c-.92.59-1.97.9-3.06.9Zm1.43-3.42h0,0Zm-1.62-2.52s0,0,0,0c0,0,0,0,0,0Zm-.83-1.65c.26.45.52.9.79,1.34-.27-.44-.53-.89-.79-1.34Zm226.67-52.6s-.1,0-.15,0c-1.58-.01-3.16-.68-4.23-1.8l-3.75-3.9c-1.05-1.09-1.64-2.5-1.71-4.07-.07-1.52.52-3.04,1.67-4.29h.01c.56-.62,1.23-1.07,2-1.36.75-.35,1.55-.5,2.38-.49,1.58.02,3.16.69,4.23,1.8l3.75,3.9c1.05,1.09,1.65,2.5,1.71,4.07.07,1.51-.52,3.03-1.66,4.28-.58.62-1.25,1.08-2.01,1.36-.7.33-1.45.49-2.23.49Zm-.06-5.96h0s0,0,0,0Zm-3.83-3.99h0s0,0,0,0Zm-22.84-132c-2.04,0-3.95-1.09-5.02-3.06-4.54-8.39-8.21-17.26-10.93-26.36-.95-3.19.77-6.32,4-7.29,3.33-.99,6.56.71,7.54,3.97h0c2.46,8.24,5.78,16.25,9.86,23.79,1.63,3.01.54,6.53-2.53,8.19-.95.51-1.95.76-2.91.76Zm9.11-41.21c-2.44,0-4.65-1.54-5.67-4.1-4.1-10.34-7.72-21.01-10.75-31.71-.59-2.09-.09-4.14,1.36-5.64,1.53-1.57,3.9-2.24,6.04-1.7,2.05.52,3.56,2.02,4.16,4.11,2.98,10.5,6.53,20.98,10.56,31.13.56,1.42.48,3-.25,4.46-.79,1.58-2.22,2.79-3.84,3.23h0c-.54.15-1.08.22-1.61.22Zm.01-5.97l.8,2.86-.75-2.72s-.04-.09-.05-.14Zm38.23-35.42c-.47,0-.95-.05-1.44-.16-1.55-.35-2.91-1.39-3.75-2.86-.83-1.46-1.03-3.17-.54-4.68,1.97-6.09,3.53-12.39,4.63-18.71.25-1.46,1.1-2.74,2.38-3.59,1.43-.95,3.27-1.29,4.93-.92,3.08.7,4.97,3.77,4.38,7.13-1.14,6.59-2.77,13.16-4.83,19.53-.85,2.62-3.16,4.26-5.77,4.26Zm-.01-5.86s0,0,0,0h0s0,0,0,0Zm-2.86-.92h0,0Zm5.39-7.88c-.45,1.76-.93,3.51-1.44,5.25.51-1.74.99-3.49,1.44-5.25Z"/>
      </g>
      <g>
        <path class="cls-2" d="m375.94,503.76c-1.66,0-3-1.34-3-3V160.67c0-1.66,1.34-3,3-3s3,1.34,3,3v340.09c0,1.66-1.34,3-3,3Z"/>
        <path class="cls-2" d="m404.28,441.71c-1.66,0-3-1.34-3-3v-49.02c0-1.66,1.34-3,3-3s3,1.34,3,3v49.02c0,1.66-1.34,3-3,3Z"/>
        <path class="cls-2" d="m405.04,315.33c-1.66,0-3-1.34-3-3v-24.51c0-1.66,1.34-3,3-3s3,1.34,3,3v24.51c0,1.66-1.34,3-3,3Z"/>
        <path class="cls-2" d="m473.98,192.78c-1.66,0-3-1.34-3-3v-33.7c0-1.66,1.34-3,3-3s3,1.34,3,3v33.7c0,1.66-1.34,3-3,3Z"/>
        <path class="cls-2" d="m477.04,287.76c-1.66,0-3-1.34-3-3v-65.87c0-1.66,1.34-3,3-3s3,1.34,3,3v65.87c0,1.66-1.34,3-3,3Z"/>
        <path class="cls-2" d="m450.23,217.29c-1.66,0-3-1.34-3-3v-45.19c0-1.66,1.34-3,3-3s3,1.34,3,3v45.19c0,1.66-1.34,3-3,3Z"/>
        <path class="cls-2" d="m394.32,912.78c-1.66,0-3-1.34-3-3v-251.23c0-1.66,1.34-3,3-3s3,1.34,3,3v251.23c0,1.66-1.34,3-3,3Z"/>
        <path class="cls-2" d="m428.79,882.14c-1.66,0-3-1.34-3-3v-75.06c0-1.66,1.34-3,3-3s3,1.34,3,3v75.06c0,1.66-1.34,3-3,3Z"/>
        <path class="cls-2" d="m369.04,794.05c-1.66,0-3-1.34-3-3v-15.32c0-1.66,1.34-3,3-3s3,1.34,3,3v15.32c0,1.66-1.34,3-3,3Z"/>
        <path class="cls-2" d="m371.34,682.99c-1.66,0-3-1.34-3-3v-68.17c0-1.66,1.34-3,3-3s3,1.34,3,3v68.17c0,1.66-1.34,3-3,3Z"/>
        <path class="cls-2" d="m198.23,487.67c-1.66,0-3-1.34-3-3v-52.85c0-1.66,1.34-3,3-3s3,1.34,3,3v52.85c0,1.66-1.34,3-3,3Z"/>
        <path class="cls-2" d="m196.7,590.31c-1.66,0-3-1.34-3-3v-78.89c0-1.66,1.34-3,3-3s3,1.34,3,3v78.89c0,1.66-1.34,3-3,3Z"/>
        <path class="cls-2" d="m213.55,483.08c-1.66,0-3-1.34-3-3v-13.02c0-1.66,1.34-3,3-3s3,1.34,3,3v13.02c0,1.66-1.34,3-3,3Z"/>
        <path class="cls-2" d="m680.02,641.63c-1.66,0-3-1.34-3-3v-173.11c0-1.66,1.34-3,3-3s3,1.34,3,3v173.11c0,1.66-1.34,3-3,3Z"/>
        <path class="cls-2" d="m651.68,561.97c-1.66,0-3-1.34-3-3v-32.94c0-1.66,1.34-3,3-3s3,1.34,3,3v32.94c0,1.66-1.34,3-3,3Z"/>
        <path class="cls-2" d="m655.51,494.57c-1.66,0-3-1.34-3-3v-9.19c0-1.66,1.34-3,3-3s3,1.34,3,3v9.19c0,1.66-1.34,3-3,3Z"/>
        <path class="cls-2" d="m645.55,712.1c-1.66,0-3-1.34-3-3v-51.32c0-1.66,1.34-3,3-3s3,1.34,3,3v51.32c0,1.66-1.34,3-3,3Z"/>
        <path class="cls-2" d="m480.87,627.08c-1.66,0-3-1.34-3-3v-117.96c0-1.66,1.34-3,3-3s3,1.34,3,3v117.96c0,1.66-1.34,3-3,3Z"/>
        <path class="cls-2" d="m500.79,725.12c-1.66,0-3-1.34-3-3v-16.08c0-1.66,1.34-3,3-3s3,1.34,3,3v16.08c0,1.66-1.34,3-3,3Z"/>
      </g>
      <g>
        <path class="cls-2" d="m254.66,425.36c3.45.67,6.85,1.6,10.16,2.78,1.48.53,3.35-.59,3.69-2.1.38-1.68-.51-3.13-2.1-3.69-3.31-1.18-6.71-2.1-10.16-2.78-.8-.16-1.59-.12-2.31.3-.62.36-1.22,1.08-1.38,1.79-.34,1.48.45,3.37,2.1,3.69h0Z"/>
        <path class="cls-2" d="m273.33,471.63c-4.76,3.25-9.52,6.49-14.27,9.74-1.29.88-2,2.68-1.08,4.1.83,1.29,2.72,2.02,4.1,1.08,4.76-3.25,9.52-6.49,14.27-9.74,1.29-.88,2-2.68,1.08-4.1-.83-1.29-2.72-2.02-4.1-1.08h0Z"/>
        <path class="cls-2" d="m244,620.02c-3.88,9.59-8.1,19.03-12.64,28.32-.71,1.46-.39,3.24,1.08,4.1,1.32.77,3.39.39,4.1-1.08,4.76-9.76,9.17-19.68,13.24-29.75.61-1.5-.66-3.3-2.1-3.69-1.71-.47-3.08.59-3.69,2.1h0Z"/>
        <path class="cls-2" d="m260.1,603.84c3.22,1.89,6.45,3.78,9.67,5.67,1.35.79,3.35.35,4.1-1.08s.37-3.26-1.08-4.1c-3.22-1.89-6.45-3.78-9.67-5.67-1.35-.79-3.35-.35-4.1,1.08-.76,1.44-.37,3.26,1.08,4.1h0Z"/>
        <path class="cls-2" d="m299.27,585.02c4.08,5.45,8.16,10.9,12.24,16.35.94,1.25,2.64,2.02,4.1,1.08,1.24-.8,2.08-2.76,1.08-4.1-4.08-5.45-8.16-10.9-12.24-16.35-.94-1.25-2.64-2.02-4.1-1.08-1.24.8-2.08,2.76-1.08,4.1h0Z"/>
        <path class="cls-2" d="m342.99,571.46c-.53,2.41-1.18,4.79-1.94,7.13-.38,1.15-.78,2.29-1.21,3.42-.22.59-.46,1.17-.7,1.75-.34.82.24-.54-.11.27-.14.33-.29.66-.43.98-.64,1.43-.46,3.29,1.08,4.1,1.31.69,3.42.45,4.1-1.08,2.15-4.83,3.86-9.82,5-14.98.34-1.53-.46-3.32-2.1-3.69-1.52-.35-3.33.46-3.69,2.1h0Z"/>
        <path class="cls-2" d="m253.81,562.04c4.93,8.2,10.4,16.06,16.33,23.57,1,1.27,3.19,1.05,4.24,0,1.26-1.26,1.01-2.97,0-4.24-5.6-7.11-10.72-14.6-15.39-22.36-1.99-3.31-7.18-.29-5.18,3.03h0Z"/>
        <path class="cls-2" d="m166.83,487.66c5.33.96,10.61,2.19,15.82,3.68,1.51.43,3.33-.53,3.69-2.1s-.48-3.23-2.1-3.69c-5.21-1.49-10.49-2.72-15.82-3.68-1.54-.28-3.31.42-3.69,2.1-.33,1.47.44,3.39,2.1,3.69h0Z"/>
        <path class="cls-2" d="m204.04,403c1.56,4.9,3.7,9.63,6.38,14.02.82,1.34,2.72,1.97,4.1,1.08,1.34-.87,1.95-2.67,1.08-4.1-1.26-2.05-2.39-4.17-3.4-6.35-.12-.26-.24-.52-.35-.78-.05-.12-.49-1.09-.18-.41-.23-.52-.43-1.06-.64-1.59-.44-1.14-.84-2.29-1.21-3.46-.47-1.49-2.11-2.61-3.69-2.1-1.5.48-2.6,2.09-2.1,3.69h0Z"/>
        <path class="cls-2" d="m400.44,574.77c5.43-4.25,10.34-9.11,14.64-14.5.98-1.22,1.28-3.06,0-4.24-1.09-1-3.2-1.31-4.24,0-4.3,5.38-9.21,10.25-14.64,14.5-1.24.97-1.09,3.24,0,4.24,1.32,1.21,2.92,1.04,4.24,0h0Z"/>
        <path class="cls-2" d="m411.06,514.13c2.37,2.9,4.74,5.81,7.11,8.71.46.56,1.43.88,2.12.88.74,0,1.61-.33,2.12-.88s.91-1.32.88-2.12c-.04-.84-.35-1.47-.88-2.12-2.37-2.9-4.74-5.81-7.11-8.71-.46-.56-1.43-.88-2.12-.88-.74,0-1.61.33-2.12.88s-.91,1.32-.88,2.12c.04.84.35,1.47.88,2.12h0Z"/>
        <path class="cls-2" d="m433.71,536.43c.18.35.35.69.51,1.05.08.17.15.36.24.53l-.15-.36c.05.12.1.24.15.36.28.69.52,1.39.74,2.1.45,1.45.77,2.94.97,4.45l-.11-.8c.08.64.14,1.29.19,1.93.1,1.56,1.31,3.08,3,3,1.54-.07,3.11-1.32,3-3-.27-4.31-1.4-8.44-3.35-12.3-.71-1.4-2.8-1.92-4.1-1.08-1.43.92-1.84,2.6-1.08,4.1h0Z"/>
        <path class="cls-2" d="m432.1,587.6c-2.01,4.45-4.42,8.72-7.2,12.74-.89,1.29-.28,3.39,1.08,4.1,1.53.81,3.15.31,4.1-1.08,2.78-4.02,5.19-8.28,7.2-12.74.64-1.43.46-3.29-1.08-4.1-1.31-.69-3.41-.45-4.1,1.08h0Z"/>
        <path class="cls-2" d="m440.3,626.33c3.41,6.64,6.81,13.28,10.22,19.91.74,1.44,2.76,1.86,4.1,1.08,1.46-.86,1.82-2.66,1.08-4.1-3.41-6.64-6.81-13.28-10.22-19.91-.74-1.44-2.76-1.86-4.1-1.08-1.46.86-1.82,2.66-1.08,4.1h0Z"/>
        <path class="cls-2" d="m437.13,655.91c-3.74,3.4-7.49,6.81-11.23,10.21-1.16,1.06-1.16,3.18,0,4.24,1.24,1.14,3,1.13,4.24,0,3.74-3.4,7.49-6.81,11.23-10.21,1.16-1.06,1.16-3.18,0-4.24-1.24-1.14-3-1.13-4.24,0h0Z"/>
        <path class="cls-2" d="m509.22,652.49c6.98-.38,13.45-2.89,18.96-7.15,1.25-.97,1.09-3.24,0-4.24-1.32-1.21-2.91-1.03-4.24,0,.43-.34-.45.32-.54.38-.31.22-.63.43-.94.64-.56.36-1.13.71-1.71,1.03-.66.37-1.34.71-2.03,1.03-.17.08-.35.16-.52.23.28-.11.26-.1-.07.03-.31.12-.62.24-.93.36-1.34.49-2.71.89-4.11,1.19-.33.07-.65.13-.98.19-.11.02-1.25.19-.61.11-.75.1-1.51.16-2.27.2-1.56.09-3.08,1.32-3,3,.07,1.55,1.32,3.09,3,3h0Z"/>
        <path class="cls-2" d="m483.96,465.37c2.01-.41,4.05.7,5.72,1.7,2.28,1.38,4.45,2.97,6.65,4.47,4.59,3.14,9.18,6.28,13.78,9.42,1.34.91,3.33.25,4.1-1.08.87-1.48.26-3.19-1.08-4.1-5-3.42-9.99-6.83-14.99-10.25-4.73-3.23-9.68-7.2-15.78-5.95-1.59.33-2.5,2.2-2.1,3.69.45,1.65,2.1,2.42,3.69,2.1h0Z"/>
        <path class="cls-2" d="m502.34,426.26c.98-.36,1.99-.62,3.03-.76l-.8.11c1.2-.15,2.42-.16,3.62,0l-.8-.11c.08.01.17.02.25.04.4.13.8.14,1.2.05.4-.02.77-.14,1.12-.36.62-.36,1.22-1.08,1.38-1.79.17-.77.14-1.63-.3-2.31-.39-.61-1.04-1.27-1.79-1.38-1.44-.21-2.85-.34-4.29-.18-1.44.15-2.84.41-4.2.91-.75.28-1.38.67-1.79,1.38-.38.64-.54,1.59-.3,2.31s.68,1.43,1.38,1.79,1.56.58,2.31.3h0Z"/>
        <path class="cls-2" d="m477.61,387.19c7.66-7.4,15.32-14.81,22.98-22.21,2.78-2.69-1.46-6.93-4.24-4.24-7.66,7.4-15.32,14.81-22.98,22.21-2.78,2.69,1.46,6.93,4.24,4.24h0Z"/>
        <path class="cls-2" d="m450.41,413.47c1.33,6.25,3.09,12.4,5.28,18.41.54,1.47,2.06,2.62,3.69,2.1,1.44-.47,2.67-2.11,2.1-3.69-2.19-6.01-3.95-12.16-5.28-18.41-.33-1.54-2.21-2.57-3.69-2.1-1.62.53-2.44,2.04-2.1,3.69h0Z"/>
        <path class="cls-2" d="m432.77,353.54c1.25,1.3,2.5,2.6,3.75,3.9.53.55,1.37.88,2.12.88.41.02.8-.07,1.16-.26.37-.12.69-.33.97-.62.52-.57.91-1.32.88-2.12s-.31-1.53-.88-2.12c-1.25-1.3-2.5-2.6-3.75-3.9-.53-.55-1.37-.88-2.12-.88-.41-.02-.8.07-1.16.26-.37.12-.69.33-.97.62-.52.57-.91,1.32-.88,2.12s.31,1.53.88,2.12h0Z"/>
        <path class="cls-2" d="m398.93,189.09c2.67,8.93,6.26,17.59,10.7,25.79,1.84,3.4,7.02.37,5.18-3.03-4.2-7.76-7.57-15.9-10.09-24.36-1.1-3.69-6.9-2.12-5.79,1.6h0Z"/>
        <path class="cls-2" d="m407.59,141.53c3.02,10.65,6.57,21.14,10.66,31.42.6,1.5,2.01,2.56,3.69,2.1,1.43-.39,2.7-2.18,2.1-3.69-4.08-10.29-7.64-20.77-10.66-31.42-1.05-3.71-6.84-2.13-5.79,1.6h0Z"/>
        <path class="cls-2" d="m461.23,110.87c-1.12,6.48-2.7,12.87-4.73,19.12-.48,1.49.56,3.34,2.1,3.69,1.64.37,3.17-.5,3.69-2.1,2.03-6.26,3.61-12.64,4.73-19.12.27-1.54-.41-3.31-2.1-3.69-1.46-.33-3.4.44-3.69,2.1h0Z"/>
        <path class="cls-2" d="m492.32,108.83c4.74-2.52,9.11-5.8,12.86-9.64,1.1-1.12,1.2-3.14,0-4.24-1.19-1.09-3.07-1.2-4.24,0-.87.89-1.77,1.75-2.7,2.58-.48.42-.97.84-1.46,1.24-.25.2-.5.4-.75.6-.29.23-.04.05.1-.08-.13.12-.29.22-.43.32-2.03,1.51-4.17,2.86-6.4,4.04-1.39.74-1.93,2.78-1.08,4.1.91,1.41,2.62,1.87,4.1,1.08h0Z"/>
        <path class="cls-2" d="m492.17,65.54c-6.74,7.5-12.9,15.52-18.42,23.96-.89,1.36-.27,3.32,1.08,4.1,1.46.85,3.22.28,4.1-1.08,5.24-8.02,11.08-15.62,17.48-22.75,1.08-1.21,1.19-3.05,0-4.24-1.1-1.1-3.16-1.21-4.24,0h0Z"/>
        <path class="cls-2" d="m424.31,38.12c-.43,5.14-.15,10.28.68,15.37.25,1.55,2.26,2.56,3.69,2.1,1.68-.54,2.37-2.03,2.1-3.69-.05-.32-.1-.65-.15-.97-.02-.14-.04-.28-.06-.42.04.29.04.32.01.1-.07-.6-.15-1.21-.21-1.82-.11-1.17-.19-2.34-.23-3.51-.09-2.39-.02-4.78.18-7.16.13-1.57-1.47-3.07-3-3-1.74.08-2.86,1.32-3,3h0Z"/>
        <path class="cls-2" d="m348.55,77.19c10.16,5.96,20.32,11.93,30.48,17.89,3.34,1.96,6.36-3.23,3.03-5.18-10.16-5.96-20.32-11.93-30.48-17.89-3.34-1.96-6.36,3.23-3.03,5.18h0Z"/>
        <path class="cls-2" d="m551.35,635.56c-.84,8.4-1.07,16.85-.69,25.28.07,1.62,1.33,3,3,3,1.57,0,3.07-1.37,3-3-.38-8.43-.14-16.88.69-25.28.16-1.61-1.49-3-3-3-1.76,0-2.84,1.38-3,3h0Z"/>
        <path class="cls-2" d="m559.07,679.99c.61,7.34,2.14,14.57,4.67,21.49.56,1.52,2.04,2.55,3.69,2.1,1.47-.4,2.65-2.16,2.1-3.69-2.35-6.43-3.89-13.15-4.46-19.89-.13-1.61-1.28-3-3-3-1.52,0-3.14,1.38-3,3h0Z"/>
        <path class="cls-2" d="m577,717.55c2.58,5.84,6.19,11.2,10.56,15.85,1.08,1.15,3.17,1.17,4.24,0,1.13-1.23,1.15-3.02,0-4.24-1.03-1.1-2.02-2.24-2.96-3.42-.11-.14-.22-.28-.33-.42.18.23.13.17-.02-.03-.24-.32-.48-.64-.71-.96-.44-.61-.87-1.23-1.28-1.86-1.66-2.52-3.1-5.18-4.32-7.94-.64-1.44-2.85-1.89-4.1-1.08-1.49.96-1.76,2.56-1.08,4.1h0Z"/>
        <path class="cls-2" d="m645.49,741.88c2.46,4.39,4.93,8.78,7.39,13.17.77,1.37,2.76,1.94,4.1,1.08,1.39-.89,1.9-2.64,1.08-4.1-2.46-4.39-4.93-8.78-7.39-13.17-.77-1.37-2.76-1.94-4.1-1.08-1.39.89-1.9,2.64-1.08,4.1h0Z"/>
        <path class="cls-2" d="m689.98,678.42c8.28.15,16.58-.94,24.54-3.22,3.71-1.06,2.13-6.85-1.6-5.79-7.48,2.14-15.16,3.14-22.94,3-3.86-.07-3.86,5.93,0,6h0Z"/>
        <path class="cls-2" d="m594.96,599.44c1.7.29,3.38.7,5.01,1.25.42.14.84.29,1.25.45.18.07.37.14.55.22.16.06.39.17.1.04.81.36,1.61.74,2.39,1.16,1.48.79,2.89,1.7,4.23,2.71-.32-.24.09.07.21.17.15.12.31.25.46.38.34.28.67.58,1,.87.66.6,1.28,1.22,1.89,1.87,1.08,1.15,3.17,1.17,4.24,0,1.13-1.23,1.15-3.02,0-4.24-5.19-5.54-12.24-9.39-19.73-10.67-1.54-.26-3.31.41-3.69,2.1-.33,1.45.44,3.41,2.1,3.69h0Z"/>
        <path class="cls-2" d="m448.96,769.34c8.88,7.71,17.05,16.21,24.4,25.39,1.01,1.27,3.19,1.06,4.24,0,1.25-1.25,1.02-2.97,0-4.24-7.35-9.18-15.52-17.68-24.4-25.39-1.22-1.06-3.04-1.2-4.24,0-1.08,1.08-1.23,3.18,0,4.24h0Z"/>
        <path class="cls-2" d="m521.6,865.94c-11.06,7.69-24.16,11.22-37.01,14.66-3.73.99-2.15,6.78,1.6,5.79,13.32-3.55,26.99-7.29,38.45-15.26,1.33-.92,1.94-2.63,1.08-4.1-.77-1.32-2.77-2.01-4.1-1.08h0Z"/>
      </g>
    </g>
    <path class="cls-2" d="m727.72,967.87c-9.72,0-19.74-1.2-29.66-3.62-34.39-8.37-68.53-31.75-76.08-66.79-25.64-24.48-40.4-60.88-39.59-97.87.67-30.4,11.96-57.81,30.97-75.22,2.29-2.1,4.7-4.05,7.22-5.87,4.42-8.91,10.15-16.96,17.06-23.9,15.01-15.05,35.67-25.68,61.39-31.62,34.78-8.02,67.96-4.48,93.43,9.97,15.83,8.98,28.97,22.51,38.13,38.55,9.76,10.4,17.95,22.68,23.92,36.38.86,1.98,1.68,3.97,2.44,5.98,15.9,14.77,27.13,34.77,31.04,56.5,4.91,27.26-1.58,55.53-18.27,79.59-16.11,23.24-40.66,40.27-67.33,46.73-2.39.58-4.77,1.07-7.15,1.48-8.8,11.71-21.28,20.31-36.73,25.19-9.5,3-19.97,4.5-30.82,4.5Zm-97.37-63.14c10.35,27.82,39.64,46.52,69.13,53.69,30.26,7.36,66.1,3.47,87.03-19.11-4.73.41-9.4.47-13.96.21-7.17,4.68-14.97,8.47-23.21,11.21-1.58.52-3.27-.33-3.79-1.9s.33-3.27,1.9-3.79c5.3-1.76,10.41-3.99,15.28-6.63-9.72-1.67-18.73-4.96-26.51-9.81-1.35-.84-2.66-1.73-3.94-2.65-1.79.55-3.59,1.03-5.4,1.44-32.92,7.56-69.13-1.1-96.52-22.66Zm167.93,10.81c-5.06,6.71-10.99,12.8-17.61,18.11,3.68-.11,7.42-.44,11.19-.99,1.9-2.74,3.61-5.69,5.11-8.86.71-1.5,2.5-2.14,3.99-1.43,1.5.71,2.14,2.5,1.43,3.99-.77,1.64-1.6,3.23-2.49,4.78.37-.08.74-.17,1.1-.26,54.21-13.13,90.59-66.71,81.11-119.43-2.95-16.42-10.35-31.78-20.88-44.39,7.29,27.26,6.01,56.36-3.98,82.29-10.95,28.42-32.49,52.39-58.96,66.2Zm-52.3,11.52c7.51,3.48,15.97,5.61,24.95,6.34,5.24-3.57,10.1-7.63,14.5-12.12-11.57,4.33-25.65,6.98-39.46,5.78Zm-118.49-32.64l.22.21c26.4,24.22,63.58,34.56,97.2,27.06-3.82-1.75-7.49-3.95-10.93-6.65-8.05,0-16.4-.63-25.01-1.89-14.45-2.1-39.85-7.77-62.11-22.84.16,1.39.37,2.76.62,4.12Zm117.46,26.53c13.46,1.5,27.42-1.12,38.77-5.43,3.6-1.37,7.14-2.93,10.58-4.68,5.88-8.05,10.44-17,13.29-26.48,2.34-7.76,3.47-15.85,3.46-23.94-1.1,2.5-2.31,4.91-3.62,7.23-7.92,14.02-20.71,25.99-36.26,34.26-7.49,7.77-16.5,14.31-26.24,19.05Zm-13.07-2.92c.87.31,1.75.59,2.63.85,6.41-2.33,12.6-5.51,18.34-9.38-7.9,2.44-16.24,4.07-24.99,4.9,1.29,1.25,2.63,2.47,4.01,3.64Zm-105.45-35.39c22.08,16.44,48.66,22.43,63.4,24.57,6,.87,11.85,1.43,17.55,1.68-5.99-6.57-10.24-14.33-13.38-22.29-21.55-6.57-42.04-20.96-57.64-41.02-5.94,10.88-9.46,22.78-9.89,34.88-.03.73-.04,1.45-.04,2.17Zm82.94,7.28c3.68,6.25,8.02,12.83,13.23,18.87,10.95-.65,21.25-2.57,30.81-5.76,4.92-1.64,9.65-3.65,14.14-5.98,3.83-4.07,7.21-8.49,10.01-13.16,2.57-4.28,5.16-9.61,6.88-15.73-5.47,2.83-11.06,5.02-16.69,6.53-13.98,10.45-31.97,16.5-50.55,15.87-2.61-.09-5.22-.3-7.83-.63Zm-8.03-1.39c2.73,6,6.22,11.72,10.76,16.63-4.02-5.56-7.44-11.25-10.4-16.55-.12-.03-.24-.05-.36-.08Zm114.71-42.79c2.08,13.29,1.27,27.15-2.71,40.35-1.9,6.31-4.51,12.4-7.72,18.18,20.53-13.54,37.02-33.72,46.01-57.08,10.93-28.37,10.93-60.71.21-89.87-2.51-2.27-5.15-4.4-7.89-6.37.17,1.27.31,2.54.44,3.82,2.89,30.22-7.24,62-27.29,86.39-.32,1.55-.67,3.07-1.04,4.57Zm-200.64,35.65c1.65,2.09,3.37,4.11,5.16,6.08-.04-.6-.07-1.21-.09-1.82-1.7-1.34-3.37-2.74-5.01-4.21-.02-.02-.04-.03-.05-.05Zm176.13-17.32c-1.4,7.73-4.36,15.43-8.85,22.91-.1.16-.19.32-.29.48,8.2-6.49,14.98-14.22,19.81-22.76,2.44-4.32,4.49-8.98,6.16-14.01-5.31,5.18-10.96,9.66-16.83,13.38Zm-85.93,19.21c3.92.72,7.86,1.15,11.79,1.28,12.34.43,24.41-2.34,35-7.48-4.11.17-8.17-.04-12.17-.66-10.43-1.6-19.62-5.61-27.64-10.98-3.56,3.53-7.47,6.51-11.73,8.69,1.49,3.01,3.08,6.06,4.76,9.15Zm-18.13-5.35c1.32.54,2.65,1.05,3.99,1.53-.21-.65-.41-1.3-.6-1.94-1.11.19-2.24.33-3.39.41Zm-77.76-108.26c-10.16,10.92-16.83,24.81-18.53,39.25-2.8,23.82,8.04,49.89,28.28,68.05.37.33.74.66,1.11.98.86-13.13,5.08-25.99,11.9-37.63-14.02-20.21-22.22-45.6-22.76-70.65Zm42.03,55.26c-.21,4.83.26,9.84,1.42,14.98,3.31,14.67,14.13,30.96,30.08,32.04,2.06.14,4.07.04,6.02-.27-.76-3-1.42-5.95-2-8.77-.67-3.23-1.26-6.4-1.78-9.5-3.34-9.37-5.73-18.46-7.2-27.35-1.6-2.88-3.01-5.61-4.22-8.11-1.2-2.48-2.41-5.12-3.58-7.89-6.88,4.2-13.18,9.22-18.73,14.87Zm65.03,35.91c7.77,5.07,15.97,8.36,24.35,9.65,7.81,1.2,15.93.71,24.02-1.32,9.01-6.98,16.1-15.97,20.13-26.21-.17-.76-.35-1.52-.56-2.29-3.79-14.03-13.36-25.68-27.69-33.67-6.05-3.37-12.71-5.93-19.65-7.65.57,7.44,0,15.14-1.8,22.72-2.89,12.21-9.3,27.33-18.81,38.77Zm-25.47-8.94c1.97,5.48,4.28,11.07,6.92,16.77,3.34-1.74,6.47-4.08,9.36-6.84-6.71-5.26-12.5-11.41-17.41-17.71.32,2.55.7,5.14,1.13,7.78Zm95.15,2.21c-2.08,3.5-4.5,6.82-7.21,9.93,2.28-1.09,4.54-2.3,6.77-3.62.27-2.04.42-4.15.44-6.31Zm-97.38-21.82c6.79,10.22,14.47,18.65,22.73,25.02,9.06-10.76,15.27-25.39,17.93-36.63,1.79-7.58,2.27-15.27,1.51-22.62-12.82-2.2-26.27-1.59-38.44,2.04-.62.18-1.23.38-1.85.57-.23,1.16-.44,2.33-.63,3.52-1.41,8.7-1.83,18.02-1.24,28.1Zm102.42,11.16c.79,4.23,1.09,8.51.91,12.8,5.4-3.85,10.59-8.41,15.43-13.62.38-.4.75-.81,1.12-1.22-2.58-11.66-7.51-22.71-14.52-32.05,1.41,9.67,1.22,19.84-1.63,30.01-.39,1.38-.82,2.73-1.3,4.07Zm-151.85-3.42c.17.23.35.47.53.7,3.63,4.79,7.55,9.24,11.7,13.33-2.07-4.19-3.61-8.57-4.57-12.83-.74-3.29-1.23-6.53-1.46-9.73-2.24,2.74-4.31,5.58-6.2,8.52Zm-23.94-76.1c-.55,25.22,7.15,50.92,20.26,70.85,2.95-4.34,6.27-8.47,9.91-12.35.71-8.54,3.36-16.55,7.9-23.69,2.54-3.99,5.62-7.62,9.17-10.85-3.27-13.04-4.76-27.39-2.37-41.77-13.95.95-27.45,5.44-38.73,13.12-2.14,1.46-4.19,3.03-6.15,4.7Zm120.89,29.09c8.27,1.82,16.2,4.75,23.35,8.74,13.47,7.52,23.15,18.03,28.31,30.68,2.02-11,.89-21.96-1.81-32.07-14.15-13.55-33.62-21.83-55-23.99,2.43,5.16,4.17,10.77,5.16,16.64Zm55.2,4.19c.28.28.56.56.84.85,9.16,9.41,15.91,20.92,19.98,33.4,1.13-8.79,1.41-18.45.85-29.06-1.21-23.26-7.3-53.61-28.88-69.87-10.28-.28-20.75.69-30.78,3.07,9.95,9.64,18.79,21.08,26.17,34.04,4.39,7.72,8.86,17.17,11.82,27.59Zm2.67-64.04c18.36,18.27,23.83,46.69,24.99,68.91.5,9.54.34,18.36-.48,26.53,14.68-21.75,21.83-48.08,19.42-73.26-.28-2.97-.7-5.92-1.25-8.83-2.47-1.46-5.01-2.8-7.61-4.02-10.21-4.77-22.33-7.99-35.08-9.33Zm-111.94,70.66c-.02,1.6,0,3.21.04,4.82.08,2.46.23,4.93.46,7.43.24-4.42.7-8.7,1.37-12.85,0-.07.02-.13.03-.19-.64.26-1.27.52-1.91.8Zm-17.74-9.37c-2.24,2.31-4.23,4.81-5.94,7.49-2.66,4.19-4.59,8.72-5.77,13.52,4.67-4.09,9.73-7.8,15.13-11.02-1.22-3.2-2.38-6.53-3.43-9.99Zm10.94,12.62c.28.67.57,1.33.85,1.99,0-.08,0-.15,0-.23-.02-.73-.04-1.45-.05-2.17-.27.14-.53.28-.8.42Zm-6-17.08c1.12,3.98,2.4,7.82,3.78,11.48,1.04-.54,2.09-1.06,3.15-1.57.26-5.3.9-10.5,1.89-15.57-3.17,1.64-6.12,3.54-8.81,5.66Zm15.6-8.67c-1.23,5.13-2.08,10.45-2.5,15.88.98-.39,1.98-.77,2.98-1.13,1.35-5.82,3.16-11.39,5.4-16.64-2.02.55-3.98,1.18-5.88,1.89Zm13.21-3.52c-2.45,5.04-4.46,10.44-6,16.12,12.02-3.34,25.13-3.98,37.76-2.09-1.17-5.71-3.13-11.11-5.83-15.95-8.48-.32-17.18.3-25.93,1.92Zm-82.98-47.26c-15.37,15.07-24.96,37.49-26.86,62.61,4.17-12.09,11.5-23.23,21.14-32.05.52-10.75,2.46-21.02,5.72-30.56Zm112.42,39.52c20.6,1.36,39.77,8.04,54.89,19.4-2.42-6.22-5.28-11.93-8.1-16.89-7.64-13.42-17.14-25.31-27.87-35.12-11.52,3.58-22.21,9.16-31.06,17.04-.41.36-.81.73-1.21,1.1,4.69,3.65,8.75,7.86,12.03,12.52.45.64.88,1.29,1.31,1.95Zm-61.26-24.16c-2.35,12.88-1.31,25.83,1.41,37.78,3.69-2.65,7.77-4.94,12.16-6.81,2.64-9.69,6.63-18.72,11.79-26.69-3.96-1.38-8.13-2.45-12.44-3.17-4.29-.72-8.62-1.09-12.92-1.12Zm31.05,6.54c-4.4,6.56-7.92,13.94-10.47,21.87,1.94-.6,3.93-1.12,5.97-1.57.42-.09.83-.18,1.24-.27,3.09-5.86,6.75-11.23,10.92-15.99-2.42-1.49-4.98-2.84-7.66-4.05Zm12.65,7.46c-3.04,3.4-5.8,7.15-8.25,11.21,6.15-.9,12.25-1.34,18.29-1.32-2.82-3.65-6.21-6.97-10.04-9.89Zm-85.28-37.29c-4.98,10.45-7.88,21.74-8.95,33.27.76-.56,1.53-1.11,2.31-1.64,12.6-8.58,27.76-13.48,43.35-14.24.15-.61.31-1.22.47-1.84,2.98-10.98,8.58-21.38,16.28-30.48-19.42-.71-38.45,4.48-53.46,14.92Zm76.24,24.89c2.89,1.36,5.66,2.88,8.27,4.56.72-.7,1.46-1.38,2.21-2.05,8.59-7.64,18.81-13.27,29.82-17.09-3.13-2.57-6.35-4.97-9.65-7.19-8.05,2.72-15.69,7.01-22.2,12.8-3.04,2.71-5.86,5.71-8.44,8.97Zm141.15-4.75c1.48.93,2.93,1.91,4.36,2.92-2.03-4.18-4.29-8.21-6.74-12.08.92,3.01,1.72,6.06,2.38,9.15Zm-174.46-2.83c4.19.09,8.39.48,12.57,1.18,5.23.88,10.26,2.22,15.02,4,3.07-4.04,6.47-7.75,10.18-11.05,5.93-5.28,12.63-9.42,19.69-12.39-6.64-3.86-13.53-6.99-20.57-9.28-6.17-2.01-12.46-3.37-18.75-4.1-8.53,9.02-14.91,19.76-18.08,31.47-.02.06-.03.12-.05.18Zm118.68-13.28c16.48.67,32.38,4.34,45.35,10.4,1.1.52,2.2,1.05,3.28,1.61-2.23-8.26-5.49-16.18-9.63-23.55-20.73-21.85-48.78-34.86-77.41-34.4-21.1.33-41.45,8.84-56.66,22.29,5.09.83,10.15,2.06,15.14,3.68,9.08,2.96,17.83,7.12,26.09,12.35,17.38-5.15,36.11-3.49,50.86,5.64,1.02.63,2.02,1.29,2.99,1.97Zm-47.06-3c3.05,2.23,6.03,4.6,8.92,7.13,8.47-2.31,17.3-3.64,26.12-4.08-10.59-4.63-23.01-5.55-35.04-3.05Zm-4.95-58.86c-11.08,0-22.62,1.34-34.36,4.05-24.61,5.68-44.29,15.77-58.49,30.01-4.11,4.12-7.69,8.54-10.77,13.2,15.67-8.11,34.16-11.62,52.74-10.02,3.35-3.32,7-6.42,10.93-9.26,15.72-11.35,34.7-17.76,53.45-18.06,21.69-.32,42.96,6.55,61.33,18.9-5.98-6.03-12.71-11.25-20.06-15.42-15.64-8.88-34.42-13.4-54.76-13.4Z"/>
    <path class="cls-3" d="m205.55,921.87c-6.41,0-12.85-.81-18.95-2.29-22.21-5.4-44.24-20.5-49.05-43.11-16.6-15.8-26.17-39.33-25.64-63.24.43-19.59,7.7-37.26,19.94-48.47,1.53-1.4,3.15-2.71,4.84-3.92,2.81-5.71,6.45-10.92,10.92-15.4,9.68-9.7,23-16.56,39.61-20.39,22.45-5.18,43.86-2.9,60.28,6.42,10.21,5.79,18.69,14.53,24.59,24.88,6.31,6.72,11.61,14.65,15.47,23.51.57,1.31,1.11,2.63,1.61,3.96,10.28,9.52,17.55,22.44,20.08,36.47,3.16,17.57-1.02,35.78-11.78,51.29-10.39,14.98-26.21,25.97-43.41,30.13-1.59.39-3.19.71-4.78.98-10.1,13.58-26.86,19.18-43.75,19.18Zm-63.91-41.79c6.26,19.01,25.9,31.78,45.67,36.59,20.14,4.9,44.08,2.15,57.65-13.38-3.49.36-6.93.43-10.27.23-4.66,3.05-9.72,5.52-15.07,7.3-.79.26-1.64-.17-1.9-.95-.26-.79.17-1.64.95-1.9,3.88-1.29,7.6-2.96,11.11-4.96-6.73-.99-12.97-3.18-18.3-6.5-.93-.58-1.83-1.19-2.71-1.83-1.22.38-2.45.71-3.69.99-21.71,4.99-45.65-.97-63.44-15.59Zm109.57,7.99c-3.53,4.7-7.73,8.94-12.45,12.56,2.89-.02,5.85-.25,8.83-.7,1.29-1.84,2.45-3.83,3.46-5.97.36-.75,1.25-1.07,2-.71.75.35,1.07,1.25.71,2-.65,1.38-1.36,2.69-2.11,3.95.57-.12,1.15-.25,1.72-.39,35.39-8.57,59.14-43.55,52.94-77.98-2.05-11.39-7.37-22.01-14.95-30.51,5.3,18.14,4.65,37.67-2.03,55.01-7.08,18.37-21.01,33.85-38.12,42.75Zm-36.08,7.09c5.5,2.98,11.9,4.76,18.75,5.3,4.03-2.73,7.73-5.92,10.99-9.46-.53.21-1.06.42-1.59.62-8.19,3.11-18.39,4.93-28.15,3.54Zm-74.82-20.22c.08.08.17.16.25.23,17.33,15.9,41.79,22.63,63.84,17.57.3-.07.61-.14.91-.22-2.93-1.22-5.74-2.82-8.34-4.89h-.09c-5.22,0-10.63-.41-16.22-1.22-9.5-1.38-26.35-5.16-40.89-15.29.12,1.29.3,2.57.54,3.81Zm75.03,17.23c9.27,1.37,19.03-.37,26.87-3.35,2.39-.91,4.72-1.94,7-3.1,3.88-5.29,6.88-11.16,8.75-17.4,1.74-5.75,2.45-11.79,2.22-17.78-.91,2.31-1.96,4.51-3.14,6.59-5.11,9.04-13.36,16.75-23.4,22.08-5.18,5.39-11.5,9.86-18.31,12.96Zm-7.14-1.75c.65.23,1.29.44,1.95.63,5.16-1.86,10.1-4.56,14.55-7.9-.4.14-.81.28-1.22.42-5.84,1.95-12.07,3.2-18.65,3.75,1.07,1.08,2.2,2.12,3.37,3.11Zm-20.35-20.16c2.33,5.34,5.53,10.39,10.1,14.3.03.02.06.05.08.07.12,0,.25,0,.38,0-3.74-4.63-6.76-9.57-9.27-14.08-.43-.09-.87-.19-1.3-.29Zm-48.27-2.96c14.44,10.82,31.86,14.75,41.51,16.16,4.29.62,8.46,1,12.52,1.13-4.29-4.43-7.26-9.8-9.41-15.31-14.16-4.26-27.62-13.77-37.79-27.05-4.08,7.27-6.51,15.28-6.8,23.42-.02.55-.03,1.1-.03,1.65Zm53.4,3.93c2.52,4.37,5.55,9.02,9.23,13.26,7.22-.41,14.01-1.67,20.32-3.77,3.24-1.08,6.35-2.4,9.3-3.94,2.53-2.68,4.76-5.59,6.6-8.67,2.23-3.71,3.82-7.5,4.78-11.31-3.83,2.07-7.76,3.64-11.71,4.7-9,6.75-20.59,10.67-32.58,10.26-1.98-.07-3.96-.24-5.94-.53Zm69.59-28.11c1.36,8.58.84,17.54-1.73,26.07-1.4,4.65-3.39,9.1-5.88,13.28,14.11-8.82,25.47-22.41,31.56-38.23,7.14-18.53,7.13-39.67.1-58.71-1.92-1.74-3.96-3.36-6.08-4.84.17,1.15.31,2.31.42,3.48,1.87,19.52-4.7,40.05-17.67,55.8-.22,1.07-.46,2.12-.72,3.14Zm-15.85,11.64c-.88,5.02-2.79,10.04-5.72,14.91-.49.82-1.01,1.62-1.54,2.41,6.27-4.54,11.43-10.15,14.98-16.42,1.88-3.32,3.4-6.95,4.57-10.91-3.84,3.93-7.98,7.29-12.29,10.01Zm-117.47,7.32c2.27,3.33,4.78,6.47,7.52,9.37-.08-.87-.14-1.76-.17-2.65-1.15-.9-2.28-1.85-3.39-2.84-1.39-1.24-2.71-2.54-3.96-3.89Zm61.84,5.81c2.64.49,5.28.79,7.92.88,8.85.3,17.45-1.88,24.83-5.89-3.35.31-6.68.22-9.94-.28-6.82-1.05-12.82-3.7-18.05-7.25-2.45,2.48-5.18,4.56-8.15,6.01,1.03,2.1,2.14,4.23,3.31,6.38l.08.15Zm-4.62-1.06c.25.07.5.14.76.2-.69-1.3-1.35-2.59-1.98-3.87.37,1.22.78,2.45,1.22,3.67Zm-8.91-3.2c1.77.79,3.55,1.49,5.35,2.11-.27-.83-.53-1.66-.78-2.49-1.48.29-3.01.42-4.58.38Zm-47.92-70.94c-7.09,7.27-11.76,16.7-12.92,26.53-1.83,15.59,5.25,32.65,18.49,44.52.47.42.94.83,1.41,1.23.42-8.85,3.22-17.53,7.85-25.35-9.86-14.05-14.79-30.78-14.83-46.93Zm26.37,36.78c-.15,3.22.15,6.57.92,10,2.18,9.67,9.34,20.41,19.91,21.13,1.55.11,3.04.02,4.49-.24-.55-2.11-1.01-4.18-1.42-6.15-.44-2.1-.82-4.17-1.16-6.18-2.17-6.09-3.73-12-4.68-17.78-1.05-1.88-1.97-3.67-2.76-5.31-.84-1.75-1.69-3.61-2.51-5.57-4.72,2.83-9.03,6.25-12.8,10.1Zm41.9,23.66c4.8,3.19,10.28,5.57,16.45,6.52,5.15.79,10.51.46,15.84-.89,5.98-4.62,10.68-10.58,13.33-17.38-.12-.55-.25-1.09-.4-1.64-2.49-9.22-8.77-16.87-18.17-22.12-4.13-2.3-8.7-4.03-13.46-5.15.45,4.97.1,10.13-1.11,15.21-1.9,8.03-6.17,18.02-12.49,25.43Zm-16.23-5.86c1.34,3.73,2.92,7.54,4.74,11.43,2.54-1.23,4.88-2.97,7.02-5.07-4.99-3.82-9.21-8.42-12.7-13.08.25,2.19.56,4.42.93,6.72Zm62.57-.31c-1.83,3.39-4.16,6.54-6.87,9.37,2.22-.95,4.43-2.08,6.59-3.37.27-2,.37-4,.29-6Zm-64.01-12.36c3.87,5.88,8.93,12.04,15.27,16.82,6.04-6.99,10.14-16.67,11.97-24.41,1.2-5.08,1.5-10.24.95-15.16-8.48-1.51-17.41-1.13-25.47,1.27-.49.15-.97.3-1.46.45-.17.84-.33,1.69-.46,2.55-.93,5.72-1.2,11.83-.8,18.46Zm66.41,7.04c.58,3.05.76,6.14.55,9.24,3.8-2.62,7.45-5.78,10.83-9.42.3-.32.59-.64.88-.97-1.8-8.29-5.42-16.12-10.62-22.56,1.19,6.72,1.23,13.86-.77,20.99-.26.92-.55,1.83-.88,2.72Zm-98.57-2.16c.17.24.35.47.53.7,2.96,3.9,6.21,7.46,9.68,10.65-2.01-3.39-3.46-7.11-4.26-10.69-.56-2.5-.9-4.95-1-7.36-1.81,2.13-3.46,4.37-4.94,6.7Zm-15.42-49.59c-.41,16.76,4.77,33.84,13.57,46.97,2.02-3.04,4.32-5.93,6.86-8.63.43-5.53,2.13-10.7,5.07-15.31,1.67-2.63,3.71-5.01,6.07-7.13-2.2-8.64-3.19-18.18-1.5-27.73-9.33.53-18.37,3.49-25.9,8.62-1.46.99-2.85,2.06-4.17,3.2Zm78.46,19.45c5.42,1.17,10.63,3.07,15.32,5.68,9.15,5.1,15.56,12.36,18.71,21.1,1.74-7.75,1.01-15.51-.91-22.62-9.43-9.08-22.5-14.56-36.82-15.84,1.79,3.59,3.03,7.54,3.7,11.68Zm35.79,2.58c.21.21.41.41.62.62,6.36,6.53,10.91,14.63,13.44,23.39.96-6.25,1.24-13.2.84-20.92-.79-15.22-4.79-35.11-19.02-45.73-7.03-.2-14.19.49-21.01,2.19,6.66,6.34,12.57,13.92,17.48,22.53,2.85,5.01,5.75,11.15,7.66,17.91Zm.9-42.33c12.54,11.7,16.23,30.59,16.99,45.28.36,6.85.19,13.13-.5,18.89,10.26-14.46,15.3-32.26,13.67-49.26-.19-2.01-.48-4-.85-5.97-1.67-1-3.38-1.91-5.15-2.73-7-3.27-15.38-5.43-24.17-6.21Zm-70.83,59.67c.03.05.06.11.09.17-.03-4.83.31-9.4,1.02-13.76.05-.3.1-.6.15-.9-.76.29-1.51.61-2.25.93-.02,1.14-.01,2.29.02,3.44.1,3.33.42,6.7.97,10.13Zm-11.85-20.2c-1.69,1.66-3.18,3.49-4.44,5.47-2,3.15-3.37,6.6-4.1,10.26,3.38-3.09,7.1-5.85,11.1-8.21-.92-2.39-1.79-4.9-2.56-7.51Zm6.32,8.83c.55,1.32,1.11,2.6,1.68,3.83-.05-.84-.09-1.67-.12-2.5-.02-.71-.03-1.42-.04-2.12-.51.26-1.02.52-1.53.79Zm-3.83-11.04c.8,2.87,1.72,5.63,2.72,8.24.89-.47,1.8-.93,2.71-1.36.17-3.82.65-7.57,1.41-11.2-2.49,1.22-4.78,2.67-6.84,4.32Zm-33.45-40.12c-.1.09-.19.17-.29.26-11.51,10.54-18.4,27.18-18.95,45.71,2.4-9.19,7.62-17.74,14.84-24.27.39-7.54,1.86-14.89,4.41-21.71Zm43.7,34.32c-.89,3.65-1.48,7.44-1.74,11.32.93-.38,1.86-.74,2.81-1.08.95-4.14,2.26-8.1,3.9-11.8-1.71.43-3.37.95-4.96,1.55Zm8.64-2.34c-1.75,3.57-3.17,7.43-4.22,11.5,8.14-2.39,17.1-2.84,25.68-1.46-.77-4.06-2.14-7.9-4.08-11.32-5.68-.24-11.52.18-17.39,1.28Zm19.14-4.19c13.93.88,26.86,5.53,36.83,13.47-1.69-4.63-3.78-8.87-5.84-12.49-5.02-8.82-11.28-16.63-18.35-23.05-7.62,2.33-14.71,6.01-20.55,11.22-.4.35-.79.71-1.17,1.08,3.18,2.42,5.93,5.22,8.12,8.34.33.47.65.95.96,1.44Zm-39.85-16.55c-1.67,8.78-.91,17.61,1,25.71,2.57-1.91,5.43-3.54,8.54-4.85,1.75-6.51,4.45-12.56,7.96-17.86-2.75-1-5.66-1.76-8.68-2.27-2.93-.49-5.89-.73-8.83-.73h0Zm20.35,4.13c-3.13,4.59-5.59,9.81-7.32,15.42,1.5-.49,3.06-.92,4.65-1.26.34-.07.67-.15,1.01-.21,2.09-4.01,4.6-7.66,7.47-10.86-1.82-1.16-3.77-2.19-5.81-3.08Zm8.3,4.8c-2.3,2.53-4.36,5.36-6.16,8.45,4.58-.72,9.15-1.05,13.63-.98-2.04-2.79-4.56-5.3-7.47-7.47Zm-55.61-23.89c-3.43,7.16-5.35,14.92-5.98,22.83.74-.57,1.5-1.12,2.28-1.65,8.2-5.58,18.07-8.74,28.22-9.18.12-.5.25-1,.38-1.5,2.03-7.47,5.92-14.36,11.13-20.29-13.1-.7-25.95,2.73-36.04,9.78Zm49.1,16.61c2.15.98,4.2,2.1,6.12,3.35.55-.54,1.1-1.06,1.67-1.56,5.72-5.09,12.57-8.79,19.94-11.26-2.29-1.92-4.66-3.69-7.08-5.32-5.36,1.78-10.44,4.62-14.76,8.46-2.13,1.9-4.09,4.01-5.88,6.32Zm91.86-2.98c1.5.94,2.96,1.95,4.38,3.01-1.99-4.34-4.35-8.44-7-12.26,1.08,3.01,1.96,6.1,2.62,9.25Zm-113.34-1.67c2.88.03,5.78.29,8.65.77,3.48.58,6.82,1.49,9.97,2.69,2.02-2.7,4.28-5.17,6.74-7.37,4.04-3.6,8.63-6.37,13.47-8.3-4.57-2.73-9.33-4.93-14.21-6.52-4.1-1.33-8.28-2.23-12.47-2.7-5.67,5.94-9.89,13.03-11.99,20.76-.06.22-.12.45-.18.67Zm77.39-8.62c10.68.42,20.98,2.79,29.38,6.71,1.02.47,2.02.98,3,1.51-1.46-5.76-3.69-11.29-6.57-16.41-13.31-14.04-31.24-22.5-49.63-22.5-.32,0-.63,0-.95,0-14.11.22-27.72,6.05-37.73,15.2,3.58.54,7.16,1.37,10.67,2.52,5.92,1.93,11.61,4.64,16.99,8.07,11.21-3.38,23.31-2.33,32.82,3.55.69.43,1.36.87,2.01,1.34Zm-31.43-2.6c2.31,1.64,4.56,3.42,6.74,5.33,6.11-1.69,12.52-2.59,18.88-2.77-7.57-3.85-16.8-4.61-25.62-2.56Zm-2.15-38.41c-7.22,0-14.74.87-22.39,2.64-16.04,3.7-28.88,10.29-38.16,19.58-3.11,3.11-5.75,6.49-7.97,10.08,10.48-5.84,23.08-8.38,35.75-7.23,10.69-10.64,25.81-17.49,41.52-17.74,15.36-.23,30.45,5.16,43.05,14.7-4.59-5.31-10.01-9.83-16.07-13.27-10.21-5.79-22.47-8.75-35.74-8.75Z"/>
    <g>
      <path class="cls-2" d="m329.11,316.11c-3.72,0-7.44-.08-11.16-.25-15.18-.68-34.49-3.33-49.24-17.9-9.27-9.16-17.93-24.6-16.38-38.45.89-7.9,5.11-14.41,12.21-18.82,7.64-4.74,17.16-3.52,24.25,3.12,6.19,5.79,10.17,15.87,5.12,25.35-2.73,5.14-8.29,8.55-13.47,8.35-4.2-.18-7.65-2.73-9.47-7-.65-1.52.06-3.29,1.58-3.94,1.52-.65,3.29.06,3.94,1.58.93,2.18,2.31,3.27,4.21,3.36,2.84.09,6.28-2.1,7.92-5.17,3.55-6.68.59-13.93-3.93-18.15-4.02-3.76-10.59-6.37-16.99-2.4-5.56,3.45-8.72,8.29-9.41,14.39-1.32,11.78,6.66,25.63,14.63,33.51,13.3,13.13,31.19,15.54,45.29,16.17,21.04.94,42.13-.85,62.7-5.3,1.62-.35,3.22.68,3.57,2.3.35,1.62-.68,3.22-2.3,3.57-17.44,3.78-35.25,5.68-53.08,5.68Z"/>
      <path class="cls-2" d="m629.68,373.44c-26.69,0-54.2-2.79-75.05-19.61-14.3-11.54-23.72-27.84-25.21-43.61-1.14-12.12,2.38-23.38,10.18-32.57,6.32-7.44,15.08-12.27,24.03-13.24,10.39-1.13,21,3.18,26.43,10.71,3.09,4.3,4.36,9.75,3.46,14.97-.81,4.75-3.33,8.8-7.1,11.41-4.09,2.84-9.64,3.8-15.21,2.64-5.59-1.17-10.29-4.28-12.92-8.54-.87-1.41-.43-3.26.98-4.13,1.41-.87,3.26-.43,4.13.98,1.74,2.82,5.12,5,9.04,5.82,3.91.82,7.85.18,10.56-1.7,2.43-1.69,4.07-4.35,4.61-7.5.62-3.65-.25-7.46-2.42-10.45-4.14-5.75-12.74-9.14-20.91-8.25-7.44.81-14.77,4.88-20.11,11.16-6.73,7.92-9.77,17.65-8.78,28.12,1.34,14.19,9.94,28.96,23,39.5,24.44,19.72,59.93,18.76,91.24,17.92,4.5-.12,8.76-.24,12.99-.29l5.42-.07c41.87-.56,85.16-1.15,127.23-4.42,1.67-.14,3.1,1.11,3.22,2.76.13,1.65-1.11,3.09-2.76,3.22-42.26,3.28-85.65,3.87-127.62,4.43l-5.42.07c-4.19.06-8.42.17-12.91.29-6.57.18-13.32.36-20.12.36Z"/>
      <path class="cls-2" d="m470.89,836.65c-12.05,0-24.06-1.93-33.35-10.52-11.52-10.65-17.66-30.15-6.36-45.31,3.5-4.7,8.3-7.84,13.17-8.63,5.88-.96,11.79,1.65,14.7,6.46,3.27,5.41,2.14,12.92-2.53,16.75-2.46,2.02-5.75,2.78-9.01,2.1-3.26-.68-5.95-2.7-7.39-5.52-.75-1.48-.17-3.28,1.31-4.04,1.47-.75,3.28-.17,4.04,1.31.61,1.2,1.81,2.07,3.28,2.38,1.47.31,2.92,0,3.98-.87,2.32-1.9,2.89-6.2,1.2-9-1.63-2.7-5.17-4.2-8.61-3.64-3.35.54-6.75,2.83-9.32,6.29-8.87,11.9-4.11,28.33,5.63,37.32,11.32,10.46,28.67,9.29,43.98,8.26,2.22-.15,4.4-.3,6.52-.41l2.71-.14c20.9-1.09,42.5-2.21,63.52-4.86,1.64-.2,3.14.96,3.35,2.6s-.96,3.14-2.6,3.35c-21.24,2.68-42.95,3.81-63.96,4.9l-2.71.14c-2.09.11-4.24.25-6.43.4-4.91.33-10.01.68-15.11.68Z"/>
    </g>
  </g>
</svg>