<?xml version="1.0" encoding="UTF-8"?>
<svg id="Layer_2" data-name="Layer 2" xmlns="http://www.w3.org/2000/svg" viewBox="0 0 1000 1000">
  <defs>
    <style>
      .cls-1, .cls-2 {
        opacity: .5;
      }

      .cls-3, .cls-2 {
        fill: #ccd2d6;
        stroke-width: 0px;
      }

      .cls-4 {
        opacity: .25;
      }
    </style>
  </defs>
  <g>
    <g>
      <path class="cls-2" d="m846.56,709.97c-62.1-101.73-101.73-237.14-97.77-277.11,3.98-39.95,87.21-111.3,70.03-164.13-17.18-52.86-140.75,71.69-140.75,71.69,0,0-20.43-265.91-230.48-222.32-210.05,43.6-174.4,284.05-174.4,284.05,0,0-109.64-103.05-145.32-79.27-35.65,23.77,26.44,118.9,55.5,151.94,29.05,33.01,72.67,101.7,80.59,169.1,7.91,67.36-34.36,258.92,33.01,284.01,64.57,24.06,85.48-44.08,137.07-24.24,2.25.85,4.55,1.89,6.93,3.11,4.32,2.19,8.79,4.42,13.43,6.62,56.19,26.54,132.35,48.3,170.2-6.62,4.95-7.17,8.72-13.87,11.75-20.06,7.58-15.36,10.53-27.65,15.13-36.65,8.9-17.47,24.01-22.51,90.71-13.3,7.76,1.06,15.21,1.89,22.38,2.43,14.07,1.09,26.98,1.16,38.6.21,70.03-5.62,93.06-48.1,43.39-129.46Zm-452.48-426.69c0-14.8,12-26.8,26.81-26.8s26.8,12,26.8,26.8-12,26.81-26.8,26.81-26.81-12-26.81-26.81Zm159.19,82.87c-3.35,24.62-22.35,47.64-64.02,49.46-19.2.84-38.27-5.23-52.39-18.28-8.32-7.69-15.12-17.91-14.43-30.52,1.71-31.05,40.35-4.3,76.02-18.17,35.67-13.87,58.79-11.56,54.82,17.51Zm-3.77-59.84c-14.81,0-26.81-12-26.81-26.8s12-26.81,26.81-26.81,26.8,12,26.8,26.81-12,26.8-26.8,26.8Z"/>
      <g>
        <path class="cls-3" d="m554.57,943.91c-2.74,0-5.53-.09-8.38-.26-26.55-1.63-57.87-10.89-93.07-27.52-4.01-1.9-8.18-3.96-13.51-6.66-2.37-1.21-4.53-2.19-6.63-2.98-23.09-8.88-39.25.63-57.96,11.65-20.51,12.08-43.76,25.76-79.1,12.6-22.22-8.28-35.07-33.75-39.27-77.89-3.57-37.49-.48-83.17,2.24-123.48,2.27-33.58,4.41-65.3,2.08-85.1-8.21-69.89-54.06-138.15-79.86-167.47-25.65-29.16-71.51-99.08-66.62-136.34,1.17-8.93,5.11-15.68,11.7-20.08,15.94-10.63,46.04-.27,89.45,30.77,22.99,16.44,43.85,34.59,53.67,43.41-1.73-18.67-4.23-67.36,9.39-118.86,10.19-38.54,27.28-71.13,50.79-96.86,29.41-32.19,68.93-53.61,117.47-63.69,55.12-11.44,102.34-2.74,140.35,25.84,43.08,32.39,66.27,84.87,78.14,123.18,9.59,30.96,13.54,57.96,14.94,69.72,8.05-7.82,26.07-24.87,46.36-41.16,37.32-29.97,64.34-43.25,80.32-39.44,7.1,1.69,12.01,6.57,14.59,14.5,10.8,33.22-15.85,72.59-39.36,107.33-14.93,22.06-29.03,42.89-30.54,58.02-1.99,20.05,7.2,63.79,23.97,114.15,19.33,58.05,45.4,115.27,73.37,161.1h0c26.23,42.96,33.44,76.7,21.42,100.27-10,19.62-32.58,30.97-67.14,33.74-11.74.96-24.89.89-39.07-.21-6.94-.52-14.32-1.32-22.55-2.45-65.71-9.07-79.65-3.99-87.63,11.69-1.99,3.89-3.68,8.48-5.64,13.8-2.45,6.67-5.24,14.23-9.48,22.82-3.5,7.16-7.42,13.85-11.97,20.44-16.21,23.52-40.57,35.41-72.5,35.41Zm-139.17-46.86c6.15,0,12.68,1.13,19.71,3.84,2.3.87,4.66,1.93,7.22,3.24,5.27,2.67,9.39,4.7,13.35,6.58,34.51,16.3,65.09,25.37,90.88,26.95,33.81,2.08,59.24-8.88,75.57-32.57,4.38-6.34,8.15-12.78,11.53-19.68,4.1-8.32,6.83-15.72,9.23-22.25,2.02-5.5,3.77-10.24,5.92-14.45,5.46-10.72,12.95-16.01,25.84-18.25,13.6-2.36,33.93-1.36,67.95,3.34,8.11,1.11,15.38,1.9,22.2,2.41,13.88,1.07,26.7,1.15,38.13.21,32.34-2.59,53.29-12.85,62.27-30.49,10.85-21.29,3.52-53.94-21.2-94.42h0c-62.8-102.88-102.25-238.05-98.19-278.97,1.66-16.64,16.17-38.09,31.54-60.79,22.74-33.6,48.52-71.69,38.62-102.12-1.91-5.89-5.27-9.32-10.27-10.51-28.37-6.76-100.21,57.91-125.5,83.39l-4.62,4.65-.5-6.54c-.03-.34-2.74-34.07-15.38-74.83-11.61-37.43-34.22-88.64-75.99-120.04-36.57-27.49-82.16-35.82-135.51-24.75-85.84,17.82-140.9,70.31-163.63,156.03-17.04,64.23-8.5,124.05-8.41,124.64l1.26,8.53-6.28-5.91c-30.02-28.21-113.97-97.37-141.6-78.96-5.16,3.44-8.13,8.63-9.08,15.87-4.59,34.92,40.94,104.04,65.17,131.6,26.26,29.84,72.93,99.37,81.32,170.73,2.39,20.36.33,50.87-2.06,86.21-5.37,79.53-12.05,178.51,33.13,195.34,32.66,12.17,53.65-.19,73.96-12.15,13.35-7.86,27.04-15.92,43.43-15.92Z"/>
        <path class="cls-3" d="m420.89,313.09c-16.44,0-29.81-13.37-29.81-29.81s13.37-29.8,29.81-29.8,29.8,13.37,29.8,29.8-13.37,29.81-29.8,29.81Zm0-53.61c-13.13,0-23.81,10.68-23.81,23.8s10.68,23.81,23.81,23.81,23.8-10.68,23.8-23.81-10.68-23.8-23.8-23.8Z"/>
        <path class="cls-3" d="m485.66,418.69c-19.46,0-37.39-6.73-50.83-19.16-10.86-10.04-16.03-21.1-15.39-32.89.36-6.55,2.27-11.23,5.84-14.31,6.48-5.59,17.07-4.6,29.34-3.46,13.23,1.23,28.22,2.62,42.75-3.03,25.19-9.8,42.68-11.04,51.99-3.7,6.12,4.83,8.44,13.05,6.89,24.42-4.21,30.95-29.21,50.41-66.86,52.05-1.25.05-2.49.08-3.72.08Zm-44.78-64.7c-5.03,0-9.13.69-11.69,2.89-2.27,1.96-3.5,5.26-3.77,10.1-.54,9.92,3.99,19.39,13.47,28.15,13.11,12.12,30.95,18.34,50.22,17.49,34.52-1.51,57.39-19.03,61.18-46.87h0c1.24-9.12-.32-15.47-4.66-18.89-7.41-5.84-23.35-4.26-46.1,4.58-15.85,6.17-32.28,4.64-45.48,3.41-4.77-.44-9.26-.86-13.18-.86Z"/>
        <path class="cls-3" d="m549.5,309.31c-16.44,0-29.81-13.37-29.81-29.8s13.37-29.81,29.81-29.81,29.8,13.37,29.8,29.81-13.37,29.8-29.8,29.8Zm0-53.61c-13.13,0-23.81,10.68-23.81,23.81s10.68,23.8,23.81,23.8,23.8-10.68,23.8-23.8-10.68-23.81-23.8-23.81Z"/>
      </g>
      <g class="cls-1">
        <g>
          <path class="cls-3" d="m339.26,889.19s44.04-56.37,52.84-174.38c8.81-118.02,14.97-133.87,16.73-119.78s29.06,195.52-69.58,294.16Z"/>
          <path class="cls-3" d="m339.61,889.55l-.75-.66c.44-.56,44.05-57.63,52.74-174.11,3.47-46.45,10.12-124.4,15.73-124.54,0,0,.02,0,.03,0,.97,0,1.56,1.42,1.97,4.73.05.41.12.96.21,1.64,6.63,50.17,4.83,92.43,2.16,119.05-7.54,75.09-31.8,133.6-72.09,173.89Zm67.71-298.32c-.52.21-5.89,5.39-14.72,123.62-7.27,97.42-38.93,153.42-49.5,169.67,84.1-89.41,71.45-242.42,65.45-287.78-.09-.69-.16-1.24-.21-1.65-.44-3.52-1-3.85-1.02-3.86Z"/>
        </g>
        <g>
          <path class="cls-3" d="m440.97,906.8c-2.38-1.22-4.68-2.25-6.93-3.1,16.95-60.41,57.8-217.06,57.8-217.06l-37.44,226.79c-4.63-2.2-9.11-4.42-13.43-6.62Z"/>
          <path class="cls-3" d="m454.78,914.16l-.6-.28c-4.19-1.99-8.59-4.16-13.44-6.63h0c-2.41-1.23-4.66-2.24-6.88-3.08l-.43-.16.12-.44c16.75-59.71,57.39-215.49,57.79-217.05l.98.21-37.54,227.44Zm-13.58-7.81c4.61,2.35,8.81,4.42,12.81,6.33l35.56-215.41c-9.43,36.06-40.66,155.22-54.93,206.12,2.12.82,4.27,1.79,6.56,2.96h0Z"/>
        </g>
        <g>
          <path class="cls-3" d="m581.45,546.59s46.13,194.37,70.03,303.5c-4.6,9-7.55,21.29-15.13,36.66-.23-22.15-3.36-48.17-10.87-78.57-36.09-146.2-44.03-261.59-44.03-261.59Z"/>
          <path class="cls-3" d="m635.87,888.84l-.02-2.09c-.25-23.9-3.9-50.3-10.85-78.46-35.69-144.57-43.97-260.52-44.05-261.67l.99-.15c.46,1.94,46.4,195.62,70.04,303.51l.04.18-.08.16c-2.06,4.03-3.78,8.69-5.76,14.09-2.43,6.61-5.19,14.1-9.37,22.57l-.93,1.88Zm-53.39-335.75c2.29,26.45,12.64,130,43.49,254.96,6.76,27.41,10.41,53.16,10.85,76.58,3.65-7.65,6.17-14.49,8.41-20.58,1.97-5.36,3.68-9.99,5.73-14.04-21.21-96.8-60.32-262.44-68.48-296.92Z"/>
        </g>
        <g>
          <path class="cls-3" d="m803.17,839.43c-11.62.96-24.53.88-38.6-.21-3.34-27.27-8.74-57.62-14.9-92.7-14.95-85.43-7.92-138.28-7.92-138.28,0,0,37.49,154.94,61.42,231.19Z"/>
          <path class="cls-3" d="m786.13,840.59c-6.85,0-14.07-.29-21.6-.87l-.41-.03-.05-.41c-3.17-25.89-8.18-54.41-13.98-87.44l-.92-5.24c-14.8-84.53-7.99-137.91-7.92-138.44l.35-2.65.63,2.6c.38,1.55,37.76,155.8,61.41,231.16l.19.6-.62.05c-5.39.44-11.09.67-17.08.67Zm-21.12-1.84c13.65,1.04,26.26,1.11,37.49.23-21.91-69.97-55.4-206.65-60.56-227.84-1.16,12.07-4.63,61.91,8.22,135.3l.92,5.24c5.77,32.87,10.76,61.27,13.94,87.08Z"/>
        </g>
        <g>
          <path class="cls-3" d="m262.16,631.8s-12.73-182.09-28.59-190.02c-15.85-7.93,28.59,190.02,28.59,190.02Z"/>
          <path class="cls-3" d="m261.67,631.91c-1.67-7.43-40.75-182.13-30.09-190.47.43-.34,1.17-.63,2.21-.11,15.93,7.96,28.34,182.99,28.86,190.43l-.99.14Zm-28.96-189.86c-.24,0-.4.09-.51.18-7.85,6.14,14.71,118.56,28.96,182.78-2.52-33.17-14.12-175.93-27.81-182.78-.26-.13-.47-.18-.64-.18Z"/>
        </g>
      </g>
      <g>
        <g>
          <path class="cls-3" d="m318.83,466.03c-.98,0-1.94-.48-2.51-1.35-13.31-20.27-28.43-39.55-44.95-57.3-1.13-1.21-1.06-3.11.15-4.24,1.21-1.13,3.11-1.06,4.24.15,16.75,17.99,32.09,37.54,45.58,58.09.91,1.39.52,3.25-.86,4.15-.51.33-1.08.49-1.64.49Z"/>
          <path class="cls-3" d="m318.83,466.53c-1.18,0-2.28-.59-2.93-1.58-13.29-20.25-28.4-39.5-44.9-57.23-1.31-1.41-1.24-3.63.18-4.95.68-.64,1.56-.98,2.51-.94.93.03,1.8.43,2.44,1.11,16.77,18.02,32.12,37.58,45.63,58.16,1.06,1.61.61,3.79-1.01,4.85-.57.38-1.24.57-1.92.57Zm-45.27-63.7c-.63,0-1.23.24-1.7.67-.49.46-.77,1.07-.8,1.74-.02.67.21,1.3.67,1.79,16.54,17.77,31.68,37.07,45,57.36.73,1.11,2.34,1.45,3.46.72,1.15-.76,1.47-2.31.72-3.46-13.47-20.53-28.79-40.05-45.52-58.03-.46-.49-1.07-.77-1.74-.79-.03,0-.06,0-.09,0Z"/>
        </g>
        <g>
          <path class="cls-3" d="m383.9,886.01c-.4,0-.8-.08-1.19-.25-1.52-.66-2.22-2.42-1.57-3.94,36.05-83.57,35.46-177.39,29.47-266.33-.11-1.65,1.14-3.08,2.79-3.2,1.64-.12,3.08,1.14,3.19,2.79,6.05,89.69,6.61,184.37-29.94,269.11-.49,1.13-1.6,1.81-2.76,1.81Z"/>
          <path class="cls-3" d="m383.9,886.51c-.48,0-.94-.1-1.38-.29-1.77-.76-2.59-2.83-1.83-4.6,36-83.47,35.42-177.22,29.43-266.1-.13-1.93,1.33-3.6,3.26-3.73.92-.06,1.82.23,2.53.85.71.62,1.14,1.47,1.2,2.41,6.05,89.75,6.61,184.5-29.98,269.34-.55,1.28-1.82,2.11-3.22,2.11Zm29.72-273.72c-.06,0-.12,0-.18,0-1.38.09-2.42,1.29-2.33,2.66,6,89,6.58,182.9-29.51,266.56-.55,1.27.04,2.74,1.31,3.29,1.24.53,2.75-.07,3.29-1.31,36.51-84.64,35.95-179.25,29.9-268.88-.04-.67-.35-1.28-.86-1.72-.46-.4-1.03-.61-1.62-.61Z"/>
        </g>
        <g>
          <path class="cls-3" d="m483.52,870.14c-.21,0-.42-.02-.63-.07-1.62-.35-2.65-1.94-2.3-3.56,2.18-10.15,3.13-20.56,2.8-30.95-.05-1.66,1.25-3.04,2.9-3.09,1.66-.06,3.04,1.25,3.09,2.91.34,10.87-.65,21.77-2.93,32.39-.3,1.41-1.55,2.37-2.93,2.37Z"/>
          <path class="cls-3" d="m483.52,870.64c-.25,0-.49-.03-.74-.08-.91-.2-1.7-.74-2.2-1.52s-.68-1.72-.48-2.64c2.18-10.11,3.11-20.48,2.79-30.82-.06-1.93,1.46-3.55,3.39-3.61.92-.05,1.81.29,2.49.93.69.64,1.08,1.52,1.11,2.46.34,10.91-.65,21.85-2.94,32.52-.34,1.6-1.78,2.76-3.42,2.76Zm2.89-37.67s-.06,0-.1,0c-1.38.04-2.47,1.2-2.42,2.58.33,10.42-.62,20.88-2.81,31.07-.14.65-.02,1.32.34,1.88.36.56.92.95,1.57,1.09,1.36.29,2.69-.6,2.97-1.92,2.28-10.59,3.26-21.44,2.92-32.27-.02-.68-.3-1.3-.8-1.76-.46-.43-1.05-.66-1.68-.66Z"/>
        </g>
        <g>
          <path class="cls-3" d="m695.91,705.49c-1.3,0-2.5-.86-2.88-2.17-27.57-95.92-56.81-192.82-86.92-288-.5-1.58.38-3.26,1.96-3.76,1.58-.5,3.27.38,3.77,1.96,30.12,95.23,59.38,192.18,86.96,288.15.46,1.59-.46,3.25-2.05,3.71-.28.08-.56.12-.83.12Z"/>
          <path class="cls-3" d="m695.91,705.99c-1.55,0-2.93-1.04-3.36-2.53-27.57-95.92-56.81-192.81-86.91-287.99-.58-1.84.44-3.81,2.28-4.39,1.84-.58,3.81.44,4.39,2.28,30.12,95.23,59.38,192.18,86.96,288.17.26.9.15,1.84-.3,2.66-.45.82-1.2,1.41-2.1,1.67-.32.09-.64.14-.97.14Zm-86.94-294.08c-.25,0-.5.04-.75.12-1.31.42-2.04,1.82-1.63,3.14,30.11,95.19,59.35,192.09,86.92,288.02.37,1.29,1.79,2.09,3.09,1.71.64-.18,1.17-.61,1.5-1.19.32-.58.4-1.26.22-1.9-27.59-95.98-56.84-192.92-86.96-288.14-.34-1.06-1.32-1.75-2.39-1.75Z"/>
        </g>
        <g>
          <path class="cls-3" d="m713.44,667.64c-1.28,0-2.47-.83-2.86-2.11-6.04-19.5-11.64-39.42-16.64-59.21-.41-1.61.57-3.24,2.17-3.64,1.61-.4,3.24.57,3.64,2.17,4.97,19.68,10.54,39.5,16.55,58.9.49,1.58-.4,3.26-1.98,3.75-.3.09-.6.14-.89.14Z"/>
          <path class="cls-3" d="m713.44,668.14c-1.54,0-2.89-.99-3.34-2.46-6.05-19.51-11.65-39.44-16.64-59.23-.47-1.87.67-3.78,2.54-4.25,1.88-.47,3.78.67,4.25,2.54,4.97,19.68,10.53,39.49,16.54,58.87.57,1.84-.46,3.81-2.31,4.38-.34.1-.69.16-1.04.16Zm-16.6-65.05c-.2,0-.4.02-.61.08-1.33.34-2.15,1.7-1.81,3.04,4.99,19.77,10.59,39.68,16.63,59.18.4,1.29,1.81,2.05,3.13,1.65,1.32-.41,2.06-1.81,1.65-3.13-6.01-19.4-11.58-39.22-16.56-58.92-.29-1.13-1.31-1.89-2.43-1.89Z"/>
        </g>
        <g>
          <path class="cls-3" d="m539.21,664.08c-1.42,0-2.68-1.01-2.95-2.46-3.22-17.54-5.06-35.48-5.45-53.31-.04-1.66,1.28-3.03,2.93-3.07,1.66-.05,3.03,1.28,3.07,2.93.39,17.52,2.19,35.13,5.35,52.36.3,1.63-.78,3.19-2.41,3.49-.18.03-.37.05-.55.05Z"/>
          <path class="cls-3" d="m539.21,664.58c-1.69,0-3.13-1.21-3.44-2.87-3.23-17.56-5.06-35.53-5.46-53.39-.02-.93.32-1.82.97-2.5.65-.67,1.52-1.06,2.45-1.08.92-.03,1.81.31,2.49.96.68.65,1.07,1.52,1.09,2.46.39,17.49,2.18,35.08,5.34,52.28.17.92-.03,1.85-.56,2.62s-1.33,1.29-2.25,1.46c-.21.04-.43.06-.64.06Zm-5.38-58.84s-.05,0-.07,0c-.67.01-1.29.29-1.75.77-.46.48-.71,1.12-.69,1.78.39,17.81,2.22,35.72,5.44,53.23.25,1.33,1.53,2.27,2.91,2.01.66-.12,1.23-.49,1.61-1.04.38-.55.52-1.21.4-1.87-3.17-17.25-4.97-34.9-5.36-52.44-.01-.67-.29-1.3-.78-1.76-.46-.44-1.07-.68-1.7-.68Z"/>
        </g>
      </g>
      <g>
        <g>
          <path class="cls-3" d="m447.69,283.28c0,14.81-12,26.81-26.8,26.81s-26.81-12-26.81-26.81,12-26.8,26.81-26.8,26.8,12,26.8,26.8Z"/>
          <path class="cls-3" d="m420.89,310.59c-15.06,0-27.31-12.25-27.31-27.31s12.25-27.3,27.31-27.3,27.3,12.25,27.3,27.3-12.25,27.31-27.3,27.31Zm0-53.61c-14.51,0-26.31,11.8-26.31,26.3s11.8,26.31,26.31,26.31,26.3-11.8,26.3-26.31-11.8-26.3-26.3-26.3Z"/>
        </g>
        <g>
          <path class="cls-3" d="m576.3,279.51c0,14.8-12,26.8-26.8,26.8s-26.81-12-26.81-26.8,12-26.81,26.81-26.81,26.8,12,26.8,26.81Z"/>
          <path class="cls-3" d="m549.5,306.81c-15.06,0-27.31-12.25-27.31-27.3s12.25-27.31,27.31-27.31,27.3,12.25,27.3,27.31-12.25,27.3-27.3,27.3Zm0-53.61c-14.51,0-26.31,11.8-26.31,26.31s11.8,26.3,26.31,26.3,26.3-11.8,26.3-26.3-11.8-26.31-26.3-26.31Z"/>
        </g>
        <g>
          <path class="cls-3" d="m553.27,366.15c-3.35,24.62-22.35,47.64-64.02,49.46-19.2.84-38.27-5.23-52.39-18.28-8.32-7.69-15.12-17.91-14.43-30.52,1.71-31.05,40.35-4.3,76.02-18.17,35.67-13.87,58.79-11.56,54.82,17.51Z"/>
          <path class="cls-3" d="m485.66,416.19c-18.83,0-36.16-6.5-49.14-18.49-10.28-9.5-15.19-19.91-14.59-30.92.32-5.84,1.95-9.95,4.98-12.55,5.67-4.89,15.78-3.95,27.47-2.87,12.83,1.19,28.8,2.68,43.89-3.19,24.31-9.45,40.98-10.82,49.53-4.07,5.38,4.24,7.39,11.68,5.96,22.11h0c-4.04,29.65-28.15,48.31-64.49,49.89-1.21.05-2.41.08-3.61.08Zm-44.73-64.7c-5.6,0-10.25.81-13.36,3.49-2.81,2.42-4.32,6.3-4.63,11.85-.58,10.7,4.22,20.83,14.27,30.13,13.61,12.57,32.09,19.02,52.03,18.15,35.83-1.56,59.58-19.89,63.55-49.03h0c1.37-10.05-.51-17.18-5.59-21.19-8.15-6.42-24.94-4.97-48.55,4.22-15.3,5.95-31.41,4.46-44.34,3.25-4.8-.45-9.33-.87-13.36-.87Z"/>
        </g>
      </g>
      <g class="cls-1">
        <g>
          <path class="cls-3" d="m178.42,758.02s-49.91-41.84-29.36-86.25c20.55-44.41,68.27-41.11,79.28,8.44s-31.93,82.58-22.76,107.17c9.18,24.59-6.24,48.08-6.24,48.08,0,0,5.87-33.4-5.87-51.75-11.74-18.35-15.05-25.69-15.05-25.69Z"/>
          <path class="cls-3" d="m198.42,837.77l.42-2.39c.06-.33,5.7-33.42-5.8-51.39-10.89-17.02-14.58-24.69-15.03-25.65-1.13-.97-13-11.32-22.41-26.52-9.11-14.71-17.71-37.11-7-60.25,9.79-21.16,26.73-33.12,44.21-31.25,17.43,1.88,30.89,16.76,36.01,39.79,6.24,28.06-4.88,51.17-13.81,69.74-6.92,14.39-12.9,26.82-8.96,37.36,9.16,24.54-6.13,48.29-6.29,48.53l-1.33,2.03Zm-9.2-196.65c-15.78,0-30.76,11.52-39.71,30.87-20.15,43.55,28.73,85.24,29.23,85.66l.13.18c.03.07,3.43,7.54,15.01,25.63,9.81,15.33,7.4,41.3,6.32,49.53,3.47-6.39,12.27-25.66,4.9-45.41-4.08-10.95,1.98-23.55,9-38.15,8.86-18.43,19.9-41.37,13.74-69.09-5.02-22.6-18.16-37.19-35.14-39.02-1.16-.13-2.33-.19-3.49-.19Z"/>
        </g>
        <g>
          <path class="cls-3" d="m843.84,502.03s-37.66-31.57-22.15-65.07c15.51-33.51,51.51-31.01,59.81,6.37,8.31,37.38-24.09,62.31-17.17,80.86,6.92,18.55-4.71,36.28-4.71,36.28,0,0,4.43-25.2-4.43-39.04-8.86-13.85-11.35-19.38-11.35-19.38Z"/>
          <path class="cls-3" d="m858.71,562.75l.42-2.39c.04-.25,4.29-25.17-4.36-38.69-8.13-12.71-10.95-18.52-11.34-19.34-2.02-1.74-37.32-32.91-22.2-65.59,7.41-16.01,20.24-25.08,33.48-23.65,13.2,1.42,23.4,12.68,27.27,30.12,4.71,21.21-3.68,38.67-10.43,52.7-5.21,10.83-9.71,20.18-6.76,28.09,6.93,18.58-4.64,36.55-4.76,36.73l-1.33,2.03Zm-6.72-148.81c-11.86,0-23.12,8.67-29.85,23.22-15.17,32.78,21.65,64.17,22.02,64.48l.13.18c.02.05,2.59,5.68,11.32,19.32,7.27,11.35,5.77,29.87,4.89,36.75,2.79-5.35,8.68-19.28,3.36-33.54-3.1-8.31,1.48-17.84,6.79-28.88,6.68-13.89,14.99-31.17,10.36-52.05-3.78-17-13.65-27.97-26.4-29.34-.87-.09-1.75-.14-2.62-.14Z"/>
        </g>
        <g>
          <path class="cls-3" d="m708.17,205.77s-30.24-25.35-17.79-52.26c12.45-26.91,41.36-24.91,48.04,5.11,6.67,30.02-19.35,50.04-13.79,64.94,5.56,14.9-3.78,29.13-3.78,29.13,0,0,3.56-20.24-3.56-31.36-7.12-11.12-9.12-15.57-9.12-15.57Z"/>
          <path class="cls-3" d="m719.94,255l.42-2.39c.04-.2,3.44-20.17-3.49-31-6.56-10.25-8.76-14.79-9.1-15.53-1.8-1.56-29.97-26.56-17.84-52.78,5.97-12.9,16.31-20.19,26.99-19.05,10.65,1.15,18.87,10.22,21.99,24.27,3.79,17.07-2.96,31.11-8.38,42.39-4.17,8.68-7.78,16.17-5.42,22.49,5.58,14.96-3.74,29.44-3.83,29.58l-1.33,2.03Zm-5.22-119.86c-9.49,0-18.49,6.94-23.88,18.59-12.15,26.25,17.36,51.42,17.66,51.67l.13.18s2.08,4.56,9.08,15.5c5.67,8.86,4.72,23.11,4.01,29.03,2.31-4.6,6.54-15.36,2.44-26.36-2.5-6.71,1.19-14.38,5.46-23.27,5.36-11.14,12.03-25,8.31-41.74-3.02-13.61-10.92-22.39-21.12-23.49-.7-.08-1.4-.11-2.09-.11Z"/>
        </g>
      </g>
      <g>
        <g>
          <path class="cls-3" d="m193.88,849.25l2.5-14.31c.06-.32,5.52-32.47-5.44-49.61-9.98-15.59-13.92-23.3-14.96-25.45-2.51-2.19-13.47-12.16-22.5-26.75-13.52-21.85-15.99-43.5-7.15-62.62,10.26-22.17,28.17-34.69,46.75-32.69,18.54,2,32.82,17.6,38.18,41.74,6.42,28.91-4.9,52.45-14,71.37-6.67,13.87-12.44,25.85-8.87,35.41,9.6,25.72-5.88,49.76-6.54,50.77l-7.97,12.14Zm-12.73-92.46c.03.07,3.42,7.46,14.84,25.31,6.32,9.87,7.86,23.54,7.83,34.65,2-8.07,2.74-18.14-1.06-28.31-4.46-11.95,1.82-24.99,9.09-40.1,9.15-19.02,19.52-40.59,13.55-67.46-4.78-21.5-17.1-35.36-32.96-37.07-15.94-1.72-31.52,9.49-40.66,29.24-19.36,41.84,28.08,82.29,28.57,82.69l.53.44.28.62Z"/>
          <path class="cls-3" d="m192.97,851.55l2.92-16.69c.06-.32,5.51-32.26-5.37-49.26-9.9-15.46-13.89-23.26-14.94-25.41-2.35-2.06-13.47-12.18-22.52-26.8-13.61-22-16.1-43.81-7.17-63.09,10.35-22.37,28.46-35.02,47.26-32.97,18.77,2.02,33.2,17.77,38.61,42.13,6.46,29.07-4.9,52.7-14.04,71.69-6.62,13.77-12.34,25.66-8.86,35.01,9.68,25.95-5.92,50.2-6.59,51.22l-9.3,14.17Zm-3.76-213.43c-16.96,0-32.96,12.17-42.42,32.61-8.77,18.96-6.31,40.45,7.12,62.14,9.07,14.66,20.25,24.76,22.4,26.64l.12.16c.97,2,4.92,9.76,14.93,25.4,11.09,17.33,5.57,49.65,5.52,49.97l-2.09,11.92,6.64-10.12c.66-1,16-24.85,6.49-50.32-3.64-9.75,2.17-21.82,8.89-35.8,9.07-18.85,20.35-42.3,13.96-71.04-5.31-23.92-19.42-39.38-37.74-41.35-1.28-.14-2.55-.21-3.82-.21Zm14.11,182.76v-4.13c.03-10.12-1.3-24.3-7.75-34.38-11.45-17.89-14.84-25.3-14.87-25.37l-.23-.52-.44-.37c-.48-.41-48.2-41.15-28.7-83.28,9.24-19.96,25.01-31.27,41.17-29.53,16.09,1.73,28.57,15.74,33.4,37.46,6.01,27.05-4.4,48.69-13.59,67.79-7.22,15.01-13.45,27.97-9.07,39.71,3.25,8.72,3.62,18.35,1.08,28.61l-.99,4.01Zm-21.71-64.3c.05.11,3.46,7.51,14.81,25.25,5.67,8.86,7.46,20.77,7.83,30.46,1.42-8.44.77-16.38-1.95-23.68-4.53-12.14,1.79-25.28,9.1-40.49,9.12-18.95,19.45-40.43,13.51-67.14-4.73-21.29-16.89-35-32.53-36.68-15.72-1.69-31.1,9.4-40.15,28.95-19.18,41.45,27.96,81.7,28.43,82.1l.66.62.28.62Z"/>
        </g>
        <g>
          <path class="cls-3" d="m854.17,574.24l2.5-14.3c.04-.24,4.12-24.22-4-36.91-7.33-11.45-10.37-17.31-11.26-19.14-4.76-4.16-37.9-34.79-22.44-68.2,7.88-17.02,21.69-26.63,36.02-25.09,14.32,1.54,25.33,13.53,29.45,32.06,4.9,22.06-3.7,39.95-10.62,54.32-4.96,10.32-9.25,19.22-6.67,26.14,7.37,19.75-4.5,38.2-5.01,38.97l-7.96,12.14Zm-7.6-73.45c.02.05,2.57,5.61,11.15,19,3.52,5.5,5.11,12.52,5.71,19.21.29-4.33-.15-9.04-1.91-13.77-3.47-9.31,1.33-19.28,6.88-30.83,6.85-14.25,14.62-30.39,10.17-50.42-3.53-15.9-12.59-26.14-24.23-27.4-11.7-1.26-23.17,7.03-29.93,21.64-14.35,31,21,61.21,21.36,61.52l.52.44.28.62Z"/>
          <path class="cls-3" d="m853.26,576.53l2.92-16.68c.04-.24,4.12-23.97-3.93-36.55-7.15-11.18-10.22-17.02-11.25-19.1-4.31-3.78-38.11-34.97-22.49-68.72,7.97-17.22,21.97-26.94,36.52-25.37,14.54,1.57,25.71,13.7,29.88,32.45,4.94,22.23-3.71,40.2-10.66,54.65-4.91,10.21-9.16,19.03-6.65,25.75,7.46,19.98-4.55,38.64-5.06,39.42l-9.29,14.16Zm-1.28-165.59c-13.04,0-25.32,9.31-32.56,24.96-15.41,33.29,18.41,64.2,22.32,67.61l.12.16c.97,1.97,4,7.79,11.23,19.09,8.26,12.91,4.12,37.02,4.07,37.27l-2.08,11.92,6.64-10.11c.5-.77,12.24-19.01,4.96-38.52-2.65-7.11,1.67-16.11,6.69-26.53,6.88-14.31,15.44-32.11,10.58-54-4.07-18.31-14.92-30.16-29.01-31.68-.98-.11-1.97-.16-2.95-.16Zm10.95,128.1c-.71-7.86-2.6-14.24-5.64-18.98-8.56-13.38-11.15-19.01-11.18-19.06l-.23-.52-.44-.37c-.36-.3-36-30.77-21.49-62.11,6.85-14.81,18.51-23.21,30.44-21.93,11.86,1.28,21.08,11.67,24.67,27.79,4.49,20.2-3.32,36.43-10.21,50.75-5.51,11.45-10.26,21.34-6.87,30.44,1.62,4.34,2.27,9.04,1.94,13.98h-1Zm-15.91-38.46c.03.07,2.61,5.66,11.11,18.94,1.32,2.06,2.43,4.42,3.33,7.07-.13-.4-.27-.8-.42-1.19-3.55-9.5,1.29-19.57,6.9-31.22,6.82-14.18,14.55-30.24,10.13-50.1-3.48-15.68-12.38-25.78-23.8-27.01-11.48-1.23-22.75,6.95-29.42,21.35-14.19,30.65,20.87,60.62,21.23,60.92l.66.62.28.62Z"/>
        </g>
        <g>
          <path class="cls-3" d="m715.4,266.47l2.5-14.29c.03-.19,3.26-19.23-3.13-29.22-5.75-8.99-8.23-13.72-9.02-15.32-4.19-3.68-30.58-28.38-18.08-55.38,6.44-13.91,17.75-21.75,29.53-20.49,11.76,1.27,20.8,11.07,24.16,26.21,3.98,17.92-2.98,32.38-8.57,44.01-3.93,8.16-7.32,15.21-5.33,20.53,6.02,16.14-3.67,31.19-4.08,31.83l-7.96,12.13Zm-4.49-61.93s2.06,4.48,8.91,15.19c.47.73.89,1.49,1.28,2.28-1.27-6.94,2.25-14.27,6.27-22.62,5.46-11.35,11.65-24.22,8.12-40.11-2.78-12.51-9.86-20.57-18.95-21.54-9.13-.99-18.12,5.54-23.44,17.04-11.33,24.48,16.71,48.46,17,48.7l.52.44.28.62Z"/>
          <path class="cls-3" d="m714.49,268.77l2.91-16.67c.03-.19,3.25-19.01-3.06-28.87-5.66-8.84-8.16-13.58-9.01-15.28-5.4-4.76-30.58-29-18.13-55.91,6.52-14.1,18.03-22.07,30.03-20.77,11.99,1.29,21.18,11.24,24.6,26.6,4.02,18.08-2.98,32.64-8.61,44.34-3.88,8.06-7.23,15.02-5.32,20.14,6.11,16.38-3.71,31.63-4.13,32.28l-9.29,14.15Zm.23-136.63c-10.68,0-20.71,7.59-26.61,20.33-12.21,26.39,12.82,50.28,17.96,54.8l.12.15c.8,1.61,3.27,6.32,9,15.27,6.52,10.18,3.23,29.38,3.2,29.58l-2.08,11.91,6.63-10.11c.41-.62,9.97-15.47,4.03-31.38-2.06-5.51,1.38-12.65,5.35-20.92,5.56-11.56,12.48-25.94,8.53-43.69-3.32-14.92-12.19-24.58-23.73-25.82-.81-.09-1.61-.13-2.41-.13Zm7.52,93.33l-1.59-3.24c-.39-.79-.81-1.54-1.25-2.23-6.87-10.74-8.93-15.21-8.95-15.25l-.23-.52-.44-.37c-.29-.24-28.62-24.46-17.13-49.3,5.41-11.7,14.58-18.34,23.94-17.33,9.31,1,16.55,9.2,19.38,21.93,3.57,16.05-2.66,29.01-8.16,40.43-4.01,8.34-7.47,15.54-6.23,22.31l.65,3.55Zm-10.88-21.13s2.08,4.5,8.88,15.12c.03.05.07.11.1.16-.21-6.33,2.96-12.94,6.58-20.45,5.43-11.28,11.58-24.07,8.08-39.79-2.73-12.29-9.65-20.2-18.51-21.16-8.9-.96-17.7,5.46-22.93,16.75-11.18,24.15,16.58,47.88,16.87,48.11l.66.62.28.62Z"/>
        </g>
      </g>
    </g>
    <g class="cls-1">
      <g>
        <path class="cls-3" d="m222.08,255.09c8.17,0,14.75,2.41,19.73,7.22,4.98,4.81,7.47,10.98,7.47,18.47s-2.49,13.49-7.47,18.31c-4.98,4.81-11.56,7.22-19.73,7.22s-14.59-2.41-19.57-7.22c-4.98-4.81-7.47-10.92-7.47-18.31s2.49-13.52,7.47-18.39c4.98-4.87,11.5-7.31,19.57-7.31Zm20.15-26.54h-40.31l-5.71-169.47h51.73l-5.71,169.47Z"/>
        <path class="cls-3" d="m222.08,306.81c-8.16,0-14.86-2.48-19.91-7.36-5.06-4.89-7.63-11.17-7.63-18.67s2.57-13.8,7.62-18.75c5.06-4.94,11.76-7.45,19.92-7.45s15.02,2.48,20.08,7.36c5.06,4.89,7.63,11.23,7.63,18.83s-2.57,13.78-7.63,18.67c-5.06,4.89-11.81,7.36-20.08,7.36Zm0-51.23c-7.89,0-14.36,2.41-19.22,7.16-4.86,4.75-7.32,10.82-7.32,18.03s2.46,13.26,7.32,17.95c4.86,4.7,11.33,7.08,19.22,7.08s14.52-2.38,19.39-7.08c4.86-4.69,7.32-10.73,7.32-17.95s-2.46-13.42-7.32-18.12c-4.87-4.7-11.39-7.08-19.39-7.08Zm20.64-26.54h-41.28l-.02-.48-5.73-169.98h52.76l-.02.52-5.73,169.95Zm-40.31-1h39.34l5.68-168.46h-50.7l5.68,168.46Z"/>
      </g>
      <g>
        <path class="cls-3" d="m166.28,228.47c3.88-.32,7.09.57,9.64,2.66,2.55,2.09,3.97,4.92,4.26,8.47.29,3.5-.66,6.5-2.84,8.97-2.18,2.47-5.2,3.87-9.08,4.19-3.82.31-7.01-.58-9.56-2.67-2.55-2.09-3.97-4.89-4.25-8.39-.29-3.5.66-6.51,2.83-9.01,2.17-2.5,5.17-3.91,9-4.22Zm8.53-13.36l-19.12,1.56-9.25-80.15,24.53-2,3.84,80.59Z"/>
        <path class="cls-3" d="m166.82,253.32c-3.3,0-6.13-.95-8.43-2.84-2.65-2.17-4.14-5.11-4.43-8.74-.29-3.63.7-6.78,2.96-9.38,2.25-2.59,5.39-4.07,9.33-4.39h0c3.99-.32,7.35.61,10,2.77,2.65,2.17,4.14,5.14,4.44,8.82.3,3.63-.7,6.77-2.96,9.34-2.26,2.56-5.42,4.03-9.41,4.36-.5.04-1,.06-1.48.06Zm-.5-24.36c-3.67.3-6.58,1.66-8.66,4.05-2.07,2.38-2.99,5.29-2.71,8.64.27,3.35,1.64,6.06,4.07,8.05,2.43,2,5.53,2.85,9.2,2.56,3.72-.3,6.67-1.66,8.74-4.02,2.07-2.36,2.99-5.25,2.71-8.6-.28-3.4-1.65-6.13-4.08-8.13-2.43-2-5.56-2.85-9.28-2.55h0Zm-11.06-11.77l-9.37-81.14,25.56-2.08,3.89,81.59-20.08,1.63Zm-8.26-80.23l9.14,79.15,18.15-1.48-3.79-79.59-23.5,1.92Z"/>
      </g>
    </g>
    <g>
      <g>
        <path class="cls-3" d="m222.08,309.31c-8.83,0-16.11-2.71-21.65-8.06-5.57-5.38-8.39-12.26-8.39-20.46s2.82-15.1,8.38-20.54c5.54-5.42,12.83-8.16,21.66-8.16s16.28,2.71,21.82,8.06c5.57,5.38,8.39,12.32,8.39,20.63s-2.82,15.09-8.39,20.46c-5.54,5.35-12.88,8.06-21.82,8.06Zm0-51.23c-7.31,0-13.03,2.11-17.47,6.45-4.42,4.32-6.57,9.64-6.57,16.25s2.15,11.89,6.56,16.15c4.44,4.29,10.16,6.38,17.48,6.38s13.2-2.09,17.65-6.38c4.41-4.26,6.56-9.55,6.56-16.15s-2.15-12.05-6.56-16.32c-4.44-4.29-10.22-6.38-17.65-6.38Zm23.05-26.54h-46.11l-5.91-175.46h57.94l-5.91,175.46Zm-40.31-6h34.51l5.51-163.46h-45.52l5.51,163.46Z"/>
        <path class="cls-3" d="m222.08,309.81c-8.96,0-16.36-2.76-22-8.21-5.67-5.47-8.54-12.48-8.54-20.82s2.87-15.36,8.53-20.89c5.64-5.51,13.04-8.3,22.01-8.3s16.53,2.76,22.17,8.21c5.67,5.48,8.54,12.54,8.54,20.99s-2.87,15.35-8.54,20.82c-5.64,5.44-13.1,8.21-22.17,8.21Zm0-57.23c-8.7,0-15.87,2.7-21.31,8.02-5.46,5.34-8.23,12.12-8.23,20.18s2.77,14.83,8.24,20.11c5.44,5.26,12.61,7.92,21.3,7.92s16.03-2.67,21.47-7.92c5.47-5.28,8.24-12.05,8.24-20.11s-2.77-14.99-8.24-20.27c-5.44-5.26-12.67-7.92-21.47-7.92Zm0,51.23c-7.46,0-13.29-2.13-17.83-6.52-4.52-4.36-6.71-9.76-6.71-16.51s2.2-12.18,6.72-16.6c4.54-4.44,10.37-6.59,17.82-6.59s13.45,2.13,18,6.52c4.52,4.37,6.71,9.82,6.71,16.68s-2.2,12.15-6.71,16.51c-4.54,4.39-10.43,6.52-18,6.52Zm0-45.23c-7.18,0-12.78,2.06-17.12,6.31-4.32,4.22-6.42,9.42-6.42,15.89s2.1,11.63,6.41,15.79c4.35,4.2,9.95,6.24,17.14,6.24s12.96-2.04,17.3-6.24c4.31-4.17,6.41-9.33,6.41-15.79s-2.1-11.79-6.41-15.96c-4.35-4.2-10.01-6.24-17.3-6.24Zm23.54-26.54h-47.08l-.02-.48-5.93-175.98h58.97l-.02.52-5.93,175.95Zm-46.11-1h45.14l5.88-174.46h-56.9l5.88,174.46Zm40.31-5h-35.48l-.02-.48-5.53-163.98h46.56l-.02.52-5.52,163.95Zm-34.51-1h33.54l5.47-162.46h-44.49l5.47,162.46Z"/>
      </g>
      <g>
        <path class="cls-3" d="m166.8,255.82c-3.88,0-7.24-1.14-10-3.41-3.19-2.62-4.99-6.14-5.34-10.47-.35-4.32.85-8.1,3.56-11.22,2.7-3.1,6.4-4.87,11.02-5.24h0c4.66-.38,8.62.74,11.78,3.33,3.19,2.62,4.99,6.17,5.35,10.55.35,4.33-.85,8.1-3.58,11.2-2.7,3.07-6.43,4.82-11.09,5.2-.58.05-1.15.07-1.7.07Zm-.28-24.36h0c-3.04.25-5.32,1.29-6.98,3.2-1.64,1.88-2.33,4.11-2.11,6.8.22,2.68,1.25,4.75,3.16,6.32,1.94,1.59,4.37,2.25,7.41,2,3.1-.25,5.41-1.29,7.07-3.18,1.63-1.86,2.32-4.06,2.1-6.75-.22-2.74-1.26-4.83-3.17-6.4-1.94-1.59-4.39-2.24-7.49-1.99Zm-13.47-11.57l-9.94-86.11,30.72-2.5,4.12,86.58-24.9,2.03Zm-3.27-80.63l8.57,74.18,13.33-1.09-3.55-74.59-18.35,1.5Z"/>
        <path class="cls-3" d="m166.8,256.32c-4,0-7.47-1.19-10.32-3.52-3.3-2.71-5.16-6.34-5.52-10.81-.36-4.46.88-8.36,3.68-11.59,2.79-3.21,6.6-5.03,11.35-5.41,4.79-.39,8.88.77,12.14,3.44,3.3,2.71,5.16,6.37,5.53,10.9.36,4.47-.88,8.36-3.7,11.57-2.79,3.17-6.63,4.97-11.42,5.36-.59.05-1.17.07-1.74.07Zm.96-30.42c-.55,0-1.11.02-1.68.07-4.48.37-8.07,2.07-10.68,5.07-2.62,3.02-3.78,6.67-3.44,10.85.34,4.19,2.08,7.6,5.16,10.12,3.05,2.5,6.88,3.59,11.35,3.23,4.52-.37,8.14-2.06,10.75-5.03,2.63-2.99,3.79-6.63,3.45-10.82-.35-4.24-2.08-7.68-5.17-10.2-2.67-2.19-5.94-3.29-9.74-3.29Zm-.98,24.42c-2.59,0-4.73-.71-6.5-2.16-2.02-1.66-3.12-3.84-3.35-6.66-.23-2.83.5-5.18,2.23-7.17,1.75-2.01,4.14-3.11,7.31-3.37h0c3.23-.26,5.8.42,7.85,2.1,2.02,1.66,3.12,3.87,3.35,6.74.23,2.83-.5,5.15-2.22,7.12-1.75,1.99-4.17,3.08-7.41,3.35-.44.04-.86.05-1.27.05Zm-.22-18.37h0c-2.9.24-5.07,1.23-6.64,3.03-1.55,1.78-2.2,3.88-1.99,6.43.21,2.54,1.18,4.5,2.98,5.97,1.84,1.51,4.15,2.12,7.05,1.89,2.96-.24,5.17-1.23,6.74-3.01,1.54-1.75,2.18-3.83,1.98-6.37-.21-2.59-1.19-4.57-2.99-6.05-1.84-1.51-4.17-2.12-7.13-1.88Zm-13.96-11.53l-10.06-87.1,31.75-2.59.02.52,4.15,87.07-25.86,2.11Zm-8.95-86.19l9.83,85.12,23.93-1.95-4.08-85.59-29.69,2.42Zm14.24,79.74l-8.68-75.17,19.38-1.58,3.6,75.59-14.3,1.16Zm-7.57-74.26l8.45,73.19,12.37-1.01-3.5-73.59-17.32,1.41Z"/>
      </g>
    </g>
  </g>
  <g class="cls-4">
    <g>
      <path class="cls-3" d="m919.71,772.1c-3.39-.39-6.83-.59-10.31-.59h-37.26c6.56,41.54-19.45,63.95-68.96,67.92-11.62.95-24.53.88-38.6-.21-7.17-.54-14.62-1.37-22.38-2.43-66.7-9.21-81.81-4.17-90.71,13.3-4.6,9-7.55,21.29-15.13,36.66-3.03,6.18-6.8,12.88-11.75,20.05-37.85,54.92-114.01,33.16-170.2,6.62-4.64-2.2-9.11-4.43-13.43-6.62-2.38-1.22-4.68-2.26-6.93-3.11-51.59-19.84-72.5,48.3-137.07,24.24-67.37-25.09-25.1-216.65-33.01-284.01-.48-4.06-1.09-8.11-1.81-12.16-.13-.58-1.59-7.09-3.82-17.37-14.75-57.19-50.16-111.39-74.96-139.57-12.29-13.97-30.48-39.04-44.69-65.12h-48.08C40.56,409.7,0,450.27,0,500.3c0,25.03,10.14,47.67,26.53,64.07,16.05,16.04,38.12,26.11,62.52,26.51.52.02,1.04.02,1.56.02h63.82c24.4.4,46.46,10.47,62.52,26.51,16.4,16.4,26.53,39.05,26.53,64.07s-10.47,48.35-27.31,64.8c-7.7,16.12-14.89,29.55-10.58,41.1,9.02,24.2-5.75,47.33-6.23,48.06.17-1.02,5.68-33.67-5.89-51.73-4.64-7.26-7.96-12.79-10.28-16.83-6.37,2.26-13.06,3.84-20,4.62h-72.57c-3.48,0-6.93.2-10.31.59C35.1,777.21,0,815.56,0,862.11c0,25.02,10.14,47.67,26.53,64.06,16.4,16.4,39.06,26.54,64.07,26.54h818.79c50.04,0,90.6-40.57,90.6-90.6,0-25.03-10.14-47.67-26.53-64.07-14.11-14.1-32.86-23.58-53.76-25.95Z"/>
      <path class="cls-3" d="m909.4,953.22H90.6c-24.33,0-47.21-9.48-64.42-26.69-17.2-17.2-26.68-40.08-26.68-64.42,0-46.39,34.71-85.3,80.74-90.51,3.38-.39,6.87-.59,10.37-.59h72.57c6.7-.76,13.4-2.31,19.83-4.59l.39-.14.21.36c2.81,4.9,6.27,10.56,10.27,16.81,9.86,15.4,7.49,40.95,6.35,49.5,3.47-6.39,12.25-25.61,4.88-45.38-4.09-10.95,1.98-23.56,9-38.16.53-1.1,1.06-2.21,1.6-3.34l.1-.14c17.51-17.11,27.16-39.99,27.16-64.44s-9.37-46.7-26.39-63.72c-16.63-16.62-38.71-25.98-62.17-26.37h-63.81c-.52,0-1.05,0-1.57-.02-23.71-.39-46.04-9.86-62.85-26.66-17.2-17.2-26.68-40.08-26.68-64.43,0-50.23,40.87-91.1,91.1-91.1h48.37l.14.26c15.11,27.73,33.48,52.36,44.63,65.03,25.46,28.93,60.4,82.9,75.07,139.77,2.18,10.04,3.62,16.48,3.81,17.33.76,4.23,1.37,8.33,1.83,12.26,2.36,20.13.31,50.54-2.07,85.75-5.43,80.36-12.18,180.37,34.76,197.85,33.77,12.59,55.29-.08,76.1-12.34,18.68-11,36.32-21.38,60.98-11.9,2.22.84,4.51,1.87,6.98,3.13,5.3,2.69,9.43,4.73,13.42,6.61,34.8,16.44,65.69,25.59,91.79,27.19,34.75,2.14,60.92-9.18,77.78-33.64,4.44-6.43,8.27-12.97,11.71-19.99,4.16-8.43,6.9-15.9,9.33-22.48,2-5.42,3.72-10.11,5.8-14.19,8.78-17.24,23.4-22.93,91.22-13.57,8.17,1.12,15.48,1.91,22.35,2.43,14,1.09,26.96,1.16,38.52.21,28.53-2.29,48.61-10.58,59.67-24.63,8.61-10.94,11.59-25.31,8.84-42.71l-.09-.58h37.85c3.5,0,6.98.2,10.37.59h0c20.33,2.3,39.52,11.57,54.06,26.09,17.2,17.21,26.68,40.08,26.68,64.42,0,50.24-40.87,91.1-91.1,91.1Zm-726.45-185.72c-6.39,2.23-13.02,3.75-19.72,4.51h-72.63c-3.46,0-6.91.2-10.25.59-45.52,5.15-79.85,43.64-79.85,89.52,0,24.07,9.37,46.69,26.39,63.71,17.02,17.02,39.65,26.4,63.72,26.4h818.79c49.68,0,90.1-40.42,90.1-90.1,0-24.07-9.37-46.7-26.39-63.72-14.37-14.36-33.36-23.52-53.46-25.8h0c-3.35-.39-6.8-.58-10.25-.58h-36.68c2.64,17.43-.43,31.87-9.13,42.91-11.25,14.28-31.56,22.7-60.38,25.01-11.61.95-24.62.88-38.68-.21-6.89-.52-14.22-1.31-22.41-2.43-67.22-9.28-81.64-3.76-90.2,13.03-2.06,4.02-3.77,8.68-5.76,14.08-2.43,6.61-5.19,14.1-9.37,22.58-3.46,7.06-7.32,13.64-11.79,20.11-17.07,24.77-43.53,36.24-78.67,34.07-26.24-1.61-57.24-10.79-92.16-27.28-3.99-1.89-8.14-3.94-13.44-6.63-2.44-1.25-4.69-2.26-6.88-3.09-24.21-9.31-41.65.96-60.11,11.83-21.01,12.37-42.74,25.16-76.96,12.41-47.64-17.74-40.85-118.17-35.4-198.86,2.28-33.7,4.42-65.53,2.07-85.56-.46-3.91-1.07-8-1.81-12.13-.2-.89-1.64-7.33-3.82-17.35-14.62-56.69-49.46-110.5-74.85-139.34-11.14-12.67-29.49-37.26-44.61-64.95h-47.78c-49.68,0-90.1,40.42-90.1,90.1,0,24.07,9.37,46.7,26.39,63.72,16.63,16.62,38.71,25.98,62.17,26.37.52.02,1.04.02,1.55.02h63.82c23.73.39,46.06,9.86,62.87,26.66,17.2,17.2,26.68,40.08,26.68,64.43s-9.73,47.8-27.4,65.09c-.52,1.1-1.05,2.19-1.56,3.26-6.92,14.39-12.9,26.82-8.96,37.37,9.16,24.57-6.12,48.27-6.28,48.51l-1.3,1.98.39-2.33c.58-3.45,5.28-34.06-5.82-51.38-3.91-6.11-7.31-11.66-10.09-16.49Z"/>
    </g>
    <g>
      <path class="cls-3" d="m829.12,409.7c-22.52,0-43.12-8.22-58.97-21.81-11.19,17.03-20.12,32.53-21.36,44.97-2.51,25.32,12.48,88.95,39.59,158.05h121.01c.52,0,1.04,0,1.56-.02,49.33-.82,89.05-41.06,89.05-90.58,0-25.02-10.14-47.66-26.53-64.06-16.4-16.4-39.06-26.54-64.07-26.54h-80.27Zm35.21,114.48c6.92,18.55-4.71,36.27-4.71,36.27,0,0,4.43-25.2-4.43-39.04-8.86-13.85-11.35-19.38-11.35-19.38,0,0-37.66-31.57-22.16-65.08,15.51-33.51,51.51-31.01,59.82,6.37,8.3,37.38-24.09,62.31-17.17,80.86Z"/>
      <path class="cls-3" d="m909.4,591.41h-121.35l-.12-.32c-26-66.27-42.29-131.35-39.62-158.28,1.3-13.01,11.07-29.41,21.44-45.2l.31-.47.43.37c16.31,13.99,37.14,21.69,58.64,21.69h80.27c24.33,0,47.21,9.48,64.43,26.69,17.2,17.21,26.68,40.08,26.68,64.42s-9.29,46.76-26.17,63.91c-16.86,17.13-39.36,26.78-63.37,27.18-.51.02-1.04.02-1.56.02Zm-120.67-1h120.67c.5,0,1.02,0,1.54-.02,48.84-.81,88.57-41.23,88.57-90.08,0-24.07-9.37-46.69-26.39-63.71-17.02-17.02-39.65-26.4-63.72-26.4h-80.27c-21.55,0-42.43-7.65-58.86-21.57-10.19,15.53-19.71,31.61-20.97,44.28-2.65,26.74,13.56,91.47,39.44,157.5Zm69.99-27.66l.42-2.39c.04-.25,4.29-25.17-4.36-38.68-8.13-12.71-10.95-18.51-11.34-19.34-2.01-1.74-37.33-32.91-22.21-65.6,7.41-16.01,20.23-25.07,33.48-23.65,13.21,1.42,23.4,12.68,27.28,30.12,4.71,21.21-3.69,38.67-10.43,52.7-5.21,10.83-9.71,20.19-6.76,28.09,6.93,18.57-4.64,36.54-4.76,36.72l-1.33,2.03Zm-6.72-148.81c-11.86,0-23.12,8.67-29.85,23.22-15.16,32.77,21.65,64.17,22.03,64.49l.13.18c.02.05,2.59,5.67,11.32,19.32,7.26,11.35,5.77,29.87,4.89,36.75,2.79-5.34,8.68-19.27,3.36-33.53-3.1-8.31,1.48-17.84,6.79-28.88,6.68-13.89,14.99-31.17,10.36-52.05-3.78-17-13.65-27.97-26.41-29.34-.87-.09-1.75-.14-2.61-.14Z"/>
    </g>
    <g>
      <path class="cls-3" d="m163.92,228.49h2.18c.06,0,.12-.02.18-.02,1.07-.09,2.09-.08,3.06.02h32.58l-5.71-169.4h51.73l-5.71,169.4h19.69c12.14,0,23.73,2.4,34.31,6.73,23.61-51.8,68.25-99.87,151.36-117.12,210.05-43.59,230.48,222.32,230.48,222.32,0,0,33.93-34.2,68.71-59.15,14.33-31.15,45.81-52.78,82.35-52.78h1.87c50.04,0,90.6-40.56,90.6-90.6,0-25.02-10.14-47.66-26.53-64.06-16.4-16.4-39.06-26.54-64.07-26.54H163.92c-50.04,0-90.6,40.57-90.6,90.6,0,25.03,10.14,47.67,26.53,64.07,16.4,16.39,39.06,26.53,64.07,26.53Zm526.46-74.98c12.45-26.91,41.36-24.9,48.04,5.12,6.67,30.02-19.35,50.04-13.79,64.94,5.56,14.9-3.78,29.13-3.78,29.13,0,0,3.55-20.24-3.56-31.36-7.12-11.12-9.12-15.57-9.12-15.57,0,0-30.24-25.35-17.79-52.26Zm-519.4-18.99l3.84,80.58-19.12,1.56-9.25-80.15,24.53-1.99Z"/>
      <path class="cls-3" d="m677.66,341.55l-.08-1.09c-.03-.34-2.74-34.25-15.45-75.26-11.72-37.82-34.57-89.58-76.9-121.4-37.17-27.95-83.45-36.43-137.53-25.21-71.64,14.87-122.45,54.18-151.01,116.84l-.2.44-.44-.18c-10.84-4.44-22.32-6.7-34.12-6.7h-20.21l.02-.52,5.69-168.88h-50.7l5.71,169.4h-33.1c-1.01-.1-2.01-.1-3.02-.02l-.17.02h-2.23c-24.33,0-47.21-9.47-64.42-26.68-17.2-17.2-26.68-40.08-26.68-64.42,0-50.23,40.87-91.1,91.1-91.1h667.07c24.34,0,47.22,9.48,64.43,26.69,17.2,17.21,26.68,40.08,26.68,64.42,0,50.24-40.87,91.1-91.1,91.1h-1.87c-35.08,0-67.22,20.6-81.89,52.48l-.06.12-.11.08c-34.34,24.64-68.3,58.76-68.64,59.1l-.77.78Zm-185.6-228.76c35.61,0,67.03,10.1,93.78,30.22,42.54,31.99,65.49,83.96,77.25,121.93,11.47,37.03,14.82,68.29,15.39,74.38,5.21-5.18,36.38-35.74,67.9-58.37,14.86-32.17,47.32-52.95,82.75-52.95h1.87c49.68,0,90.1-40.42,90.1-90.1,0-24.07-9.37-46.69-26.39-63.71-17.02-17.02-39.65-26.4-63.72-26.4H163.92c-49.68,0-90.1,40.42-90.1,90.1,0,24.07,9.37,46.7,26.39,63.72,17.03,17.02,39.65,26.39,63.72,26.39l2.32-.02c1.06-.09,2.12-.08,3.15.02h32.01s-5.71-169.4-5.71-169.4h52.76l-.02.52-5.69,168.88h19.17c11.77,0,23.22,2.22,34.05,6.59,28.73-62.71,79.71-102.06,151.51-116.97,15.5-3.22,30.37-4.82,44.56-4.82Zm227.89,142.21l.42-2.38c.04-.2,3.43-20.18-3.49-31-6.56-10.24-8.76-14.79-9.11-15.53-1.8-1.56-29.97-26.55-17.83-52.78,5.97-12.9,16.3-20.2,26.98-19.05,10.65,1.15,18.88,10.22,22,24.27,3.79,17.07-2.96,31.11-8.38,42.38-4.17,8.68-7.78,16.18-5.42,22.49,5.58,14.96-3.74,29.43-3.83,29.58l-1.33,2.02Zm-29.56-101.49l.45.21c-12.15,26.26,17.36,51.42,17.66,51.67l.13.18s2.08,4.56,9.08,15.51c5.66,8.86,4.72,23.12,4.01,29.03,2.31-4.59,6.55-15.35,2.44-26.36-2.5-6.71,1.19-14.39,5.46-23.27,5.36-11.14,12.03-25.01,8.31-41.74-3.03-13.61-10.93-22.39-21.13-23.49-10.23-1.1-20.18,5.98-25.96,18.47l-.45-.21Zm-535.12,63.69l-9.36-81.14,25.56-2.07,3.89,81.58-20.08,1.64Zm-8.25-80.23l9.14,79.16,18.16-1.48-3.79-79.58-23.5,1.91Z"/>
    </g>
  </g>
</svg>