<svg xmlns="http://www.w3.org/2000/svg" width="748.641" height="759.85" viewBox="0 0 748.641 759.85">
  <g id="Presentation_4" data-name="Presentation 4" transform="translate(-125.66 -120.07)">
    <path id="Caminho_45" data-name="Caminho 45" d="M242.7,459.03H209.09a5.625,5.625,0,0,1-5.62-5.62V162.69a5.625,5.625,0,0,1,5.62-5.62H242.7a3,3,0,0,1,0,6H209.47V453.04H242.7a3,3,0,0,1,0,6Z" fill="#0876d0"/>
    <path id="Caminho_46" data-name="Caminho 46" d="M242.7,472.26H183.72a5.625,5.625,0,0,1-5.62-5.62V193.75a5.625,5.625,0,0,1,5.62-5.62h22.75a3,3,0,1,1,0,6H184.1V466.26h58.6a3,3,0,1,1,0,6Z" fill="#0876d0"/>
    <g id="Grupo_29" data-name="Grupo 29">
      <path id="Caminho_47" data-name="Caminho 47" d="M437.22,481.75H248.7a9.014,9.014,0,0,1-9-9V268.51a3,3,0,0,1,6,0V472.75a3.009,3.009,0,0,0,3,3H437.22a3,3,0,0,1,0,6Z" fill="#013f71"/>
      <path id="Caminho_48" data-name="Caminho 48" d="M529.06,481.75H483.82a3,3,0,1,1,0-6h45.24a3.009,3.009,0,0,0,3-3V147.17a3.009,3.009,0,0,0-3-3H248.7a3.009,3.009,0,0,0-3,3v88.94a3,3,0,0,1-6,0V147.17a9.014,9.014,0,0,1,9-9H529.05a9.014,9.014,0,0,1,9,9V472.74a9.014,9.014,0,0,1-9,9Z" fill="#013f71"/>
      <g id="Grupo_27" data-name="Grupo 27">
        <path id="Caminho_49" data-name="Caminho 49" d="M269.47,409.08a3,3,0,0,1-2.08-5.16l66.69-64.34a9.166,9.166,0,0,1,13.02.45l37.66,41.96a2.979,2.979,0,0,0,2.46.94,2.91,2.91,0,0,0,2.24-1.18L490,236.89a3,3,0,0,1,4.93,3.42L394.39,385.17a8.828,8.828,0,0,1-6.79,3.74,8.957,8.957,0,0,1-7.3-2.92l-37.66-41.96a3.01,3.01,0,0,0-2.14-.95,3.145,3.145,0,0,0-2.25.82l-66.69,64.34a2.986,2.986,0,0,1-2.08.84Z" fill="#fa0a0a"/>
        <path id="Caminho_50" data-name="Caminho 50" d="M497.04,260.11a2.99,2.99,0,0,1-2.96-2.56l-2.69-18.32-20.46,2.35a3,3,0,1,1-.68-5.96l21.51-2.47a4.816,4.816,0,0,1,5.4,4.02l2.87,19.5a2.994,2.994,0,0,1-2.53,3.4,3.255,3.255,0,0,1-.44.03Z" fill="#fa0a0a"/>
      </g>
      <circle id="Elipse_1" data-name="Elipse 1" cx="24.96" cy="24.96" r="24.96" transform="translate(274.9 180.1)" fill="#fa0a0a"/>
      <g id="Grupo_28" data-name="Grupo 28">
        <path id="Caminho_51" data-name="Caminho 51" d="M437.22,190.34H351.48a3,3,0,0,1,0-6h85.74a3,3,0,0,1,0,6Z" fill="#0876d0"/>
        <path id="Caminho_52" data-name="Caminho 52" d="M392.96,211.68H351.49a3,3,0,0,1,0-6h41.47a3,3,0,0,1,0,6Z" fill="#0876d0"/>
      </g>
    </g>
    <g id="Grupo_36" data-name="Grupo 36">
      <path id="Caminho_74" data-name="Caminho 74" d="M337.71,785s2.87,36.26,46.96,37.72,51.98-17.09,51.98-17.09l7.96-48.64L337.71,785Z" fill="#0876d0"/>
      <path id="Caminho_53" data-name="Caminho 53" d="M610.62,608.8s-1.11.15-2.86.39l-1.39-5.31C608.89,606.89,610.62,608.8,610.62,608.8Z" fill="#363634"/>
      <path id="Caminho_54" data-name="Caminho 54" d="M637.59,414a3.754,3.754,0,0,1-1.95-.41Z" fill="#363634"/>
      <path id="Caminho_55" data-name="Caminho 55" d="M783.6,752.84l-15.57,36.08,11.47,91H424.49l20.12-122.94,176.76-46.31c13.3,9.3,19.03,9.64,19.03,9.64s25.26-13.25,24.52-39.24c0,0-13.13-54.82-19.7-67.36-6.56-12.56-32.41-28.96-43.35-41.71a42.153,42.153,0,0,0-5.21-5.19h-.01l-22.1-84.37a9.644,9.644,0,0,0-11.76-6.89L450.05,505.1c12-18.07,22.5-31.24,30.02-35.96,37.88-23.77,97.87-29.81,97.87-29.81l31.08,12.44a3.692,3.692,0,0,0,4.37-1.27l9.92-17.36,9.67-15.69a3.7,3.7,0,0,1,6.53,1.07l3.75,15.17,7.04,26.12a3.708,3.708,0,0,0,4.7,2.41l70.73-23.47A3.647,3.647,0,0,0,728,436.6c29.1,14.71,95.68,51.93,103.98,88.3,10.65,46.74-32.79,191.86-48.38,227.94Z" fill="#0876d0"/>
      <g id="Grupo_30" data-name="Grupo 30">
        <path id="Caminho_56" data-name="Caminho 56" d="M621.61,377.06a98.081,98.081,0,0,1-13.76-.99,3,3,0,1,1,.84-5.94c26.86,3.81,50.37-3.73,69.87-22.43a3,3,0,1,1,4.15,4.33C665.49,368.54,644.58,377.06,621.61,377.06Z" fill="#0876d0"/>
        <path id="Caminho_57" data-name="Caminho 57" d="M708.74,402.37a3,3,0,0,1-2.99-2.8,176.524,176.524,0,0,1,.17-25.95,3,3,0,0,1,5.98.5,170.114,170.114,0,0,0-.16,25.07,3,3,0,0,1-2.8,3.19h-.2Z" fill="#0876d0"/>
        <path id="Caminho_58" data-name="Caminho 58" d="M603.5,403.36a2.294,2.294,0,0,1-.52-.05,3.008,3.008,0,0,1-2.44-3.47l4.25-24.26a113.942,113.942,0,0,1-19.3-5.11,23.191,23.191,0,0,1-14.8-26.51l9.82-46.38a3.552,3.552,0,0,0-1.3-3.55l-15.15-11.77a9.567,9.567,0,0,1,1.16-15.88l24.08-13.62a3.51,3.51,0,0,0,1.77-2.54c1-6.49,4.21-23.02,12.36-36.48a69.689,69.689,0,0,1,10.86-13.67,3,3,0,0,1,4.2,4.28,63.853,63.853,0,0,0-9.93,12.5c-7.59,12.53-10.61,28.14-11.56,34.27a9.462,9.462,0,0,1-4.75,6.87l-24.07,13.62a3.575,3.575,0,0,0-.43,5.93l15.14,11.77a9.618,9.618,0,0,1,3.49,9.53l-9.82,46.38a17.172,17.172,0,0,0,10.96,19.62,107.227,107.227,0,0,0,21.17,5.3l3.07.43-5.32,30.32a3,3,0,0,1-2.95,2.48Z" fill="#0876d0"/>
        <path id="Caminho_59" data-name="Caminho 59" d="M803.26,248.17c-5.09,65.08-53.22,82.7-72.53,100.66a151.117,151.117,0,0,0-21.82,25.03c.13-1.55.28-3.12.46-4.69,3.38-29.78,8.14-43.96,9.68-47.94a2.4,2.4,0,0,1,1.65-1.48c4.92-1.27,23.89-7.22,25.96-23.28,2.37-18.47-8.13-27.46-25.94-21.19-11.86,4.18-18.6,15.93-21.78,23.3a7.467,7.467,0,0,1-9.02,4.23l-.24-.07a7.448,7.448,0,0,1-4.92-9.42l9.81-30.19a2.459,2.459,0,0,0-1.7-3.13c-6.26-1.64-22.79-6.68-33.33-16.42-10.93-10.09-12.65-23.65-12.92-28.05a2.442,2.442,0,0,0-1.33-2.05c-3.8-1.89-14.69-8.15-14.95-17.57a2.448,2.448,0,0,0-3.81-1.98,69.238,69.238,0,0,0-10.14,8.27s-5.79-12.52,0-24.97,23.08-13.21,23.08-13.21,1.1-39.92,29.57-43.64,40,27.45,40,27.45,25.08-8.47,41.01-1.35,16.27,24.07,16.27,24.07,42.03,12.55,36.95,77.62Z" fill="#0876d0"/>
        <ellipse id="Elipse_2" data-name="Elipse 2" cx="8.26" cy="4.58" rx="8.26" ry="4.58" transform="translate(609.131 269.654) rotate(-76.05)" fill="#0876d0"/>
        <path id="Caminho_60" data-name="Caminho 60" d="M631.39,255.33a2.994,2.994,0,0,1-2.42-1.23,21.7,21.7,0,0,0-18.6-9.21,3,3,0,1,1-.66-5.96,27.584,27.584,0,0,1,24.1,11.63,3,3,0,0,1-2.42,4.77Z" fill="#0876d0"/>
        <path id="Caminho_61" data-name="Caminho 61" d="M600.67,326.47c-13.51,0-21.77-6.07-22.26-6.44a3,3,0,0,1,3.6-4.8c.63.46,15.14,10.89,37.49.96a3,3,0,1,1,2.44,5.48,52.012,52.012,0,0,1-21.27,4.79Z" fill="#0876d0"/>
      </g>
      <path id="Caminho_62" data-name="Caminho 62" d="M653.83,465.41a6.713,6.713,0,0,1-6.39-4.7l-.04-.12-7.04-26.12-3.74-15.11a.671.671,0,0,0-.55-.44.607.607,0,0,0-.61.22l-9.6,15.57-10.04,17.55a6.694,6.694,0,0,1-7.91,2.3l-31.08-12.44a6.694,6.694,0,0,1-2.86-10.25l25.83-34.09a6.732,6.732,0,0,1,3-2.24,6.661,6.661,0,0,1,5.45.34l28.79,15.05a.683.683,0,0,0,.38.07.508.508,0,0,0,.13-.02l72.68-16.13a6.742,6.742,0,0,1,7.72,4.16l12.89,33.85a6.7,6.7,0,0,1-.03,4.83,6.614,6.614,0,0,1-4.12,3.9l-70.73,23.47a6.716,6.716,0,0,1-2.12.34Zm-.65-6.46a.719.719,0,0,0,.34.38.678.678,0,0,0,.54.04l70.73-23.47a.654.654,0,0,0,.42-.39v-.02a.621.621,0,0,0,0-.5l-12.89-33.84a.716.716,0,0,0-.8-.44L641.73,416.2a6.821,6.821,0,0,1,.63,1.43l.05.18,3.75,15.17,7,25.98Zm-48.05-57.83a.558.558,0,0,0-.21.04.7.7,0,0,0-.34.25l-25.82,34.08a.694.694,0,0,0,.3,1.06l31.09,12.44a.679.679,0,0,0,.76-.17l9.81-17.17,9.83-15.94a6.979,6.979,0,0,1,.83-.96L605.46,401.2A.723.723,0,0,0,605.13,401.12Z" fill="#0876d0"/>
      <path id="Caminho_63" data-name="Caminho 63" d="M682.71,691.64l-17.03-7.01a3,3,0,1,1,2.29-5.55l10.48,4.31c4.44-19.09,26.48-112.04,43.1-150.66,19.46-45.21,66.66-29.69,67.13-29.53a3,3,0,1,1-1.94,5.68c-1.78-.6-42.45-13.81-59.68,26.22-18.26,42.44-43.31,151.98-43.56,153.08l-.79,3.46Z" fill="#013f71"/>
      <path id="Caminho_64" data-name="Caminho 64" d="M751.08,726.05a2.966,2.966,0,0,1-2.14-.9c-24.21-24.73-68.56-34.6-69.01-34.7a3,3,0,1,1,1.28-5.86c1.89.41,46.54,10.33,72.02,36.36a3,3,0,0,1-2.14,5.1Z" fill="#013f71"/>
      <path id="Caminho_65" data-name="Caminho 65" d="M723.62,822.82a59.3,59.3,0,0,1-8.21-.59c-39.22-5.56-89.67-65.19-91.79-67.73a3,3,0,1,1,4.6-3.86c.51.6,51.09,60.4,88.04,65.64,35.77,5.08,48.85-28.1,48.98-28.44a3,3,0,1,1,5.6,2.14c-.13.35-12.96,32.83-47.21,32.83Z" fill="#013f71"/>
      <g id="Grupo_32" data-name="Grupo 32">
        <path id="Caminho_66" data-name="Caminho 66" d="M327.38,790.38a12.658,12.658,0,0,1-12.23-9.44L258.62,565.21a12.659,12.659,0,0,1,9.03-15.42l42.27-11.07-.16.43,11.42-3.2.85,2.82c2.18,7.21,7.27,19.85,11.66,23.06.9.66,1.28.63,1.29.63.68-.23,1.83-2.96,2.15-5.69l1.07-9.38,4.54,8.27c2.13,3.86,6.67,9.51,9.74,9.51h.07c2.82-.08,4.59-5.86,4.96-8.49l.97-6.83,4.33,5.37a8.943,8.943,0,0,0,3.69,2.59,3.406,3.406,0,0,0,2.65-.66c.96-.66,2.14-2.05,2.35-4.89.32-4.36-1.97-15.72-4.22-24.9a3.183,3.183,0,0,1,5.82-2.41c7,11.57,11.8,19.27,13.15,21.11,1.59,2.15,3.16,2.87,6.17,2.77.56-2.68-.85-11.28-3.1-18.49l-.12-.4c-.59-1.9-1.49-4.77-2.65-7.86l-1.17-3.12,176.65-46.3a12.655,12.655,0,0,1,15.42,9.03l24.43,93.27-7.13-5.81c-3.43-2.8-5.22-2.75-5.48-2.59s-1.1,1.71-.16,5.88c1.23,5.44,8.35,16.2,19.55,29.52l.44.52,2.42,9.23-3.34.46c-11.41,1.59-19.64,2.96-21.48,3.58a199.953,199.953,0,0,0-23.95,11.01c-16.91,9.14-17.32,12.89-17.33,12.93,1.02,5.58,9.02,6.21,9.1,6.22l13.95.98-13.12,4.83h0a5.462,5.462,0,0,0-2.7,2.71c-.61,1.47-.48,3.35.38,5.6,1.87.17,7.02-1.17,10.85-2.17,5.34-1.4,11.39-2.98,16.76-3.3a79.385,79.385,0,0,1,22.31,2.09,3.656,3.656,0,0,1,1.19,6.58c-19.03,12.67-29.86,21.88-30.85,24.54a8.383,8.383,0,0,0,.07,1.4,29.4,29.4,0,0,0,3.94-.2c.84-.08,1.77-.16,2.79-.23,5.91-.42,19.51-5.61,24.25-7.58l4.05-1.68.1,4.38a32.032,32.032,0,0,0,13.33,23.47q.33.24.63.45c.23.16.46.32.68.48l5.09,3.72L330.57,789.97a12.6,12.6,0,0,1-3.2.41ZM300.04,547.51l-30.87,8.08a6.656,6.656,0,0,0-4.75,8.1l56.53,215.73a6.648,6.648,0,0,0,8.11,4.74l114.79-30.08L614.76,709.3a38.36,38.36,0,0,1-11.75-21.17c-5.68,2.2-16.55,6.15-22.48,6.57-.98.07-1.88.15-2.69.22-3.86.34-6.64.59-8.66-1.31-1.75-1.64-1.93-4.04-1.87-6.18.04-1.65.16-6.52,28.81-26.06a69.7,69.7,0,0,0-15.11-.85c-4.79.29-10.54,1.79-15.61,3.12-9.05,2.37-15.59,4.08-17.63-.65-1.77-4.12-1.98-7.83-.61-11.01a10.843,10.843,0,0,1,.85-1.59c-3.55-1.44-7.51-4.25-8.5-9.7-.62-3.42,1.05-8.63,19.58-18.78a206.26,206.26,0,0,1,25.68-11.85c2.55-.86,11.28-2.23,19.24-3.37l-.37-1.4c-8.39-10.02-18.55-23.43-20.38-31.54-1.82-8.04,1.01-11.16,2.85-12.3a7.26,7.26,0,0,1,5.87-.63L571.65,483.2a6.656,6.656,0,0,0-8.1-4.75L393.3,523.08c.68,1.99,1.23,3.75,1.64,5.06l.12.4c.6,1.91,5.74,18.85,2.2,24.12a4.592,4.592,0,0,1-3.47,2.08c-5.66.46-9.35-1.08-12.36-5.13-.87-1.18-2.7-4.04-4.91-7.6a52.216,52.216,0,0,1,.98,10.68,12.136,12.136,0,0,1-4.91,9.39,9.411,9.411,0,0,1-7.78,1.48,11.846,11.846,0,0,1-2.58-1.13c-1.55,4.28-4.53,8.61-9.51,8.74h-.23c-4.5,0-8.53-3.72-11.29-7.14a8.177,8.177,0,0,1-3.79,3.91c-1.57.69-4.09,1.03-7.25-1.28-6.02-4.4-10.96-17.44-12.96-23.36l-17.43,4.89.29-.68Zm67.92-19.47a.031.031,0,0,0,.01.02A.031.031,0,0,0,367.96,528.04Zm5.14-2.15a.41.41,0,0,0,.02.07A.145.145,0,0,0,373.1,525.89Z" fill="#013f71"/>
        <path id="Caminho_67" data-name="Caminho 67" d="M435.01,664.07a42,42,0,1,1-47.5-60.78l-8.24-31.44a74.5,74.5,0,1,0,83.78,108.62l-28.06-16.41Z" fill="#fa0a0a"/>
        <path id="Caminho_68" data-name="Caminho 68" d="M470.22,625.04a74.256,74.256,0,0,1-7.15,55.44l-28.06-16.41a42.007,42.007,0,0,0-47.5-60.78l-8.24-31.44a74.488,74.488,0,0,1,90.94,53.18Z" fill="#0876d0"/>
        <rect id="Ret창ngulo_69" data-name="Ret창ngulo 69" width="61.58" height="28.42" rx="3.23" transform="matrix(0.967, -0.253, 0.253, 0.967, 481.96, 551.846)" fill="#0876d0"/>
        <rect id="Ret창ngulo_70" data-name="Ret창ngulo 70" width="61.58" height="11.14" rx="3.23" transform="matrix(0.967, -0.253, 0.253, 0.967, 493.639, 596.43)" fill="#0876d0"/>
        <g id="Grupo_31" data-name="Grupo 31">
          <path id="Caminho_69" data-name="Caminho 69" d="M492.58,657.9a3,3,0,0,1-.76-5.9l48.68-12.76a3,3,0,0,1,1.52,5.8L493.34,657.8a2.835,2.835,0,0,1-.76.1Z" fill="#0876d0"/>
          <path id="Caminho_70" data-name="Caminho 70" d="M496.37,672.35a3,3,0,0,1-.76-5.9l48.68-12.76a3,3,0,0,1,1.52,5.8l-48.68,12.76A2.835,2.835,0,0,1,496.37,672.35Z" fill="#0876d0"/>
          <path id="Caminho_71" data-name="Caminho 71" d="M500.15,686.81a3,3,0,0,1-.76-5.9l48.68-12.76a3,3,0,0,1,1.52,5.8l-48.68,12.76a2.835,2.835,0,0,1-.76.1Z" fill="#0876d0"/>
        </g>
      </g>
      <g id="Grupo_33" data-name="Grupo 33">
        <path id="Caminho_72" data-name="Caminho 72" d="M641.05,723.35l-.83-.05c-.67-.04-6.97-.67-20.57-10.18-.24-.18-.44-.32-.65-.46-.23-.16-.46-.32-.69-.49a38.235,38.235,0,0,1-15.3-24.04c-5.68,2.2-16.55,6.15-22.48,6.57-.98.07-1.88.15-2.69.22-3.86.34-6.64.59-8.66-1.31-1.75-1.64-1.93-4.04-1.87-6.18.04-1.65.16-6.52,28.81-26.06a69.739,69.739,0,0,0-15.11-.85c-4.79.29-10.54,1.79-15.61,3.12-9.05,2.37-15.59,4.08-17.63-.65-1.77-4.12-1.98-7.83-.61-11.01a10.843,10.843,0,0,1,.85-1.59c-3.55-1.44-7.51-4.25-8.5-9.7-.62-3.42,1.05-8.63,19.58-18.78a206.26,206.26,0,0,1,25.68-11.85c2.63-.89,11.81-2.32,19.96-3.47q-.315-.375-.66-.78c-8.46-10.07-18.95-23.8-20.81-32.06-1.82-8.04,1.01-11.16,2.85-12.3,1.77-1.09,5.56-2.17,11.57,2.37h.04l.84.68a45.617,45.617,0,0,1,5.59,5.56c4.4,5.13,11.33,10.89,18.66,16.98,10.31,8.58,20.98,17.44,25.08,25.29,6.67,12.72,19.42,65.8,19.96,68.05l.07.3v.31c.79,27.54-25.02,41.41-26.12,41.98l-.74.39Zm-32.66-43.89.1,4.38a32.032,32.032,0,0,0,13.33,23.47q.33.24.63.45c.23.16.46.32.68.48,9.46,6.62,14.83,8.43,16.72,8.91,4.21-2.54,22.48-14.75,22.06-35.7-1.07-4.43-13.29-54.77-19.37-66.36-3.54-6.79-13.74-15.26-23.6-23.46-7.53-6.26-14.64-12.17-19.37-17.69a40.67,40.67,0,0,0-4.52-4.56l-.32-.26c-3.43-2.79-5.22-2.75-5.48-2.59s-1.1,1.71-.16,5.88c1.23,5.44,8.35,16.2,19.55,29.52,2.45,2.93,4.16,4.82,4.18,4.84l3.82,4.22-8.5,1.15c-11.4,1.58-19.63,2.96-21.47,3.58a199.953,199.953,0,0,0-23.95,11.01c-16.91,9.14-17.32,12.89-17.33,12.93,1.02,5.58,9.02,6.21,9.1,6.22l13.95.98-13.12,4.83h0a5.462,5.462,0,0,0-2.7,2.71c-.61,1.47-.48,3.35.38,5.6,1.87.18,7.02-1.17,10.85-2.17,5.34-1.4,11.39-2.98,16.76-3.3a79.385,79.385,0,0,1,22.31,2.09,3.656,3.656,0,0,1,1.19,6.58c-19.03,12.67-29.86,21.88-30.85,24.54a8.383,8.383,0,0,0,.07,1.4,29.4,29.4,0,0,0,3.94-.2c.84-.08,1.77-.16,2.79-.23,5.92-.42,19.51-5.61,24.25-7.58l4.05-1.68Zm-35.13,8.36Z" fill="#0876d0"/>
        <path id="Caminho_73" data-name="Caminho 73" d="M555.69,651.52a3,3,0,0,1-1.11-5.79c1.15-.46,28.24-11.16,42.67-9.25,14.08,1.87,20.61,4.7,20.89,4.82a3,3,0,0,1-2.43,5.49c-.05-.02-6.15-2.62-19.25-4.36-12.87-1.7-39.4,8.77-39.66,8.87a3.077,3.077,0,0,1-1.11.21Z" fill="#0876d0"/>
      </g>
      <g id="Grupo_34" data-name="Grupo 34">
        <path id="Caminho_75" data-name="Caminho 75" d="M352.48,571.17c-4.49,0-8.53-3.72-11.29-7.14a8.177,8.177,0,0,1-3.79,3.91c-1.56.69-4.09,1.03-7.25-1.28-6.02-4.4-10.96-17.43-12.96-23.36l-17.24,4.84,2.39-6.14c2.81-7.11,8.47-19.2,14.88-20.67a29.752,29.752,0,0,1,10.35-.46,13.767,13.767,0,0,1,6.71-6.72c3.67-1.51,8.64-.51,11.67.36,1.56-2.67,4.52-6.61,8.87-7.8a14.3,14.3,0,0,1,9.97,1.17c2.33-2.45,6.78-6.05,12.85-5.74,3.18.16,6.19,2.3,8.95,6.38a49.183,49.183,0,0,1,4.44,8.56c.42,1.03.79,1.96,1.13,2.87,1.27,3.38,2.25,6.53,2.84,8.41l.05.18c.6,1.91,5.74,18.84,2.19,24.12a4.592,4.592,0,0,1-3.47,2.08h0c-5.66.46-9.35-1.08-12.34-5.14-.88-1.2-2.78-4.18-4.92-7.61a51.546,51.546,0,0,1,.98,10.69,12.1,12.1,0,0,1-4.92,9.4,9.4,9.4,0,0,1-7.78,1.47,12.062,12.062,0,0,1-2.58-1.13c-1.55,4.28-4.53,8.61-9.51,8.74h-.23ZM338.2,547.39l4.54,8.26c2.13,3.86,6.67,9.51,9.74,9.51h.07c2.84-.08,4.6-5.86,4.96-8.48l.95-6.86,4.35,5.39a9.062,9.062,0,0,0,3.7,2.59,3.433,3.433,0,0,0,2.65-.65c.96-.66,2.14-2.05,2.35-4.9.31-4.37-1.98-15.73-4.23-24.9a3.2,3.2,0,0,1,1.88-3.73,3.162,3.162,0,0,1,3.92,1.29c5.29,8.75,11.53,18.89,13.17,21.13,1.59,2.15,3.17,2.88,6.17,2.77.56-2.68-.84-11.29-3.1-18.49l-.06-.18c-.6-1.94-1.51-4.86-2.72-8.08-.32-.87-.67-1.74-1.03-2.61a43.332,43.332,0,0,0-3.9-7.57c-1.57-2.33-3.13-3.69-4.27-3.75-5.51-.25-9.35,5.22-9.38,5.28l-1.78,2.65-2.54-1.94s-3.6-2.64-7.24-1.63c-3.05.84-5.57,5.34-6.22,6.85l-1.15,2.69-2.72-1.07c-2.73-1.07-7.57-2.17-9.78-1.27-2.44,1-3.92,4.26-4.29,5.43l-.86,2.75-2.79-.73a23.637,23.637,0,0,0-10.06.02c-1.73.4-5.09,4.81-8.42,11.87l11.03-3.09.85,2.82c2.18,7.21,7.27,19.85,11.66,23.05.9.66,1.28.63,1.29.63.68-.23,1.83-2.96,2.15-5.68l1.07-9.37Zm55.34,4.36Z" fill="#0876d0"/>
        <path id="Caminho_76" data-name="Caminho 76" d="M340.1,560.1a3,3,0,0,1-2.98-2.71c-2.43-25.18-9.34-30.63-9.41-30.68l.09.06,3.26-5.04c.95.61,9.31,6.78,12.04,35.09a2.991,2.991,0,0,1-2.7,3.27c-.1,0-.2.01-.29.01Z" fill="#0876d0"/>
        <path id="Caminho_77" data-name="Caminho 77" d="M360.47,560.1a3.009,3.009,0,0,1-2.88-2.17c-7.99-27.89-12.81-38.38-12.86-38.49a3,3,0,1,1,5.44-2.54c.2.43,5.04,10.9,13.19,39.37a3.015,3.015,0,0,1-2.89,3.83Z" fill="#0876d0"/>
        <path id="Caminho_78" data-name="Caminho 78" d="M370.59,531.28a3.012,3.012,0,0,1-2.87-2.12l-5.11-16.53a3,3,0,1,1,5.73-1.77l5.11,16.53a2.988,2.988,0,0,1-2.87,3.88Z" fill="#0876d0"/>
        <path id="Caminho_79" data-name="Caminho 79" d="M387.97,524.21l-7.74-14.97,2.17-1.5c3.45-2.38,12-7.73,17.01-5.81a5.415,5.415,0,0,1,3.38,3.95c1.92,8-9.74,15.34-12.09,16.73l-2.73,1.61Zm.05-12.97,2.29,4.43c3.52-2.58,6.94-6.04,6.69-8.19-1.5-.09-5.3,1.53-8.98,3.76Z" fill="#0876d0"/>
      </g>
      <g id="Grupo_35" data-name="Grupo 35">
        <path id="Caminho_80" data-name="Caminho 80" d="M616.38,849.03H452.09a3,3,0,1,1,0-6H616.38a3,3,0,0,1,0,6Z" fill="#013f71"/>
        <path id="Caminho_81" data-name="Caminho 81" d="M715.83,849.03H640.12a3,3,0,0,1,0-6h75.71a3,3,0,0,1,0,6Z" fill="#013f71"/>
      </g>
      <path id="Caminho_82" data-name="Caminho 82" d="M434.77,811.46a3.661,3.661,0,0,1-.57-.05,3,3,0,0,1-2.38-3.51l9.85-51.47a3,3,0,0,1,5.89,1.13l-9.85,51.47a2.994,2.994,0,0,1-2.94,2.44Z" fill="#013f71"/>
    </g>
    <path id="Caminho_83" data-name="Caminho 83" d="M171.48,634.14a8.771,8.771,0,0,1-5.37-1.84c-5.82-4.53-20.56-17.95-31.72-44.69-11.42-27.34-8.93-60.17-7.33-73.02a8.72,8.72,0,0,1,6.64-7.38l60.47-14.11a11.3,11.3,0,0,1,13.81,12.07c-.86,9.09-.7,23.85,4.92,42.53,7,23.26,23.58,43.79,32.84,53.96a8.675,8.675,0,0,1-4.21,14.22l-67.87,17.97a8.619,8.619,0,0,1-2.2.28ZM135.06,513.06a2.686,2.686,0,0,0-2.05,2.28c-1.2,9.65-4.26,43.21,6.91,69.96,10.62,25.43,24.43,38.03,29.87,42.27a2.709,2.709,0,0,0,2.34.49L240,610.09a2.646,2.646,0,0,0,1.89-1.84,2.6,2.6,0,0,0-.58-2.54c-9.6-10.55-26.8-31.88-34.15-56.27-5.9-19.6-6.06-35.19-5.15-44.82a5.29,5.29,0,0,0-6.48-5.66l-60.47,14.11Z" fill="#fa0a0a"/>
    <path id="Caminho_84" data-name="Caminho 84" d="M832.88,445.4a6.793,6.793,0,0,1-2.3-.4l-50.93-18.45a6.719,6.719,0,0,1-3.36-9.96c6.85-10.61,29.35-48.08,31.23-84.96a6.7,6.7,0,0,1,7.42-6.34l53.37,5.77a6.686,6.686,0,0,1,5.99,6.8c-.18,10.34-1.53,37.09-9.98,62.01-8.54,25.18-21.7,39.01-26.96,43.79a6.67,6.67,0,0,1-4.5,1.74ZM814.23,331.26a.669.669,0,0,0-.45.17.7.7,0,0,0-.25.52c-1.96,38.37-25.13,76.98-32.19,87.91a.688.688,0,0,0-.08.62.7.7,0,0,0,.43.44l50.93,18.45a.7.7,0,0,0,.71-.13c4.92-4.47,17.22-17.43,25.31-41.27,8.18-24.12,9.48-50.13,9.66-60.19a.716.716,0,0,0-.63-.72l-53.37-5.77h-.08Z" fill="#fa0a0a"/>
  </g>
</svg>
