<?xml version="1.0" encoding="UTF-8"?>
<svg id="Camada_2" data-name="Camada 2" xmlns="http://www.w3.org/2000/svg" xmlns:xlink="http://www.w3.org/1999/xlink" viewBox="0 0 822.91 725.04">
  <defs>
    <style>
      .cls-1 {
        fill: #6c3;
      }

      .cls-2 {
        fill: #fff;
      }

      .cls-3 {
        fill: #fa880a;
      }

      .cls-4 {
        fill: url(#Gradiente_sem_nome_72);
      }

      .cls-5 {
        fill: url(#Gradiente_sem_nome_102);
      }

      .cls-6 {
        fill: #2ba0ef;
      }

      .cls-7 {
        fill: url(#Gradiente_sem_nome_103);
      }

      .cls-8 {
        fill: #013f71;
      }
    </style>
    <linearGradient id="Gradiente_sem_nome_102" data-name="Gradiente sem nome 102" x1="0" y1="341.57" x2="683.14" y2="341.57" gradientUnits="userSpaceOnUse">
      <stop offset="0" stop-color="#097ede"/>
      <stop offset=".86" stop-color="#013f71"/>
    </linearGradient>
    <linearGradient id="Gradiente_sem_nome_103" data-name="Gradiente sem nome 103" x1="0" y1="341.57" x2="637.02" y2="341.57" gradientUnits="userSpaceOnUse">
      <stop offset="0" stop-color="#0878d3"/>
      <stop offset=".86" stop-color="#013f71"/>
    </linearGradient>
    <linearGradient id="Gradiente_sem_nome_72" data-name="Gradiente sem nome 72" x1="-4864.01" y1="10790.53" x2="-4524.73" y2="10790.53" gradientTransform="translate(-4041.1 11333.74) rotate(-180)" gradientUnits="userSpaceOnUse">
      <stop offset="0" stop-color="#faa94c"/>
      <stop offset=".86" stop-color="#fa880a"/>
    </linearGradient>
  </defs>
  <g id="Camada_1-2" data-name="Camada 1">
    <g>
      <path class="cls-8" d="M603.64,683.15h-303.91C134.19,683.15,0,548.95,0,383.42v-83.69C0,134.2,134.19.01,299.73.01h303.91c43.91,0,79.5,35.59,79.5,79.5v524.13c0,43.91-35.59,79.5-79.5,79.5Z"/>
      <path class="cls-1" d="M333.68,668.63l-25.52-1.82v-18.23l7.29-12.76-1.82-16.41,9.11-14.58,5.47-34.63c1.82-12.76-3.65-25.52-14.58-32.81-5.47-3.65-9.11-9.11-12.76-14.58l-10.94-25.52-10.94-7.29v-9.11l3.65-10.94,1.82-10.94,14.58-12.76-21.87-20.05-3.65-3.65-16.41-12.76s-1.82,0-1.82-1.82l-27.34-18.23c-1.82-1.82-3.65-1.82-7.29-3.65l-16.41-5.47c-1.82,0-3.65-1.82-5.47-1.82l-29.16-16.41c-3.65-1.82-7.29-5.47-9.11-9.11l-18.23-23.7c-1.82-3.65-3.65-5.47-5.47-9.11l-12.76-36.46c-1.82-3.65-3.65-7.29-5.47-9.11l-1.82-3.65c-3.65-5.47-7.29-12.76-7.29-20.05v-9.11c0-3.65,0-7.29,1.82-10.94l12.76-32.81c1.82-5.47,1.82-10.94,1.82-16.41l-9.11-60.15-14.58-3.65-20.05,12.76-3.65-12.76,40.1-29.16v-9.11l21.87-9.11c7.29-3.65,14.58-3.65,21.87-1.82l71.09,18.23,14.58,1.82,23.7-1.82,1.82,12.76-34.63,38.28,5.47,14.58,10.94-1.82,25.52,14.58,12.76-5.47,3.65-38.28h14.58l23.7,10.94c5.47,1.82,10.94,7.29,14.58,12.76l3.65,5.47c1.82,1.82,3.65,5.47,7.29,7.29l14.58,12.76c3.65,3.65,5.47,5.47,9.11,9.11l14.58,27.34-7.29,7.29-23.7,7.29-14.58,1.82-25.52,18.23-1.82,1.82-7.29,5.47c-5.47,3.65-9.11,9.11-10.94,14.58l-1.82,3.65c-1.82,5.47-5.47,10.94-9.11,14.58l-21.87,20.05-9.11,5.47-61.98,10.94-1.82,5.47c-1.82,9.11,0,20.05,7.29,27.34l10.94,12.76c3.65,3.65,9.11,7.29,14.58,9.11l18.23,7.29c3.65,1.82,7.29,3.65,10.94,7.29l36.46,34.63,7.29-9.11,9.11-5.47c7.29-3.65,14.58-5.47,21.87-3.65l29.17,5.47,10.94,7.29,30.99,16.41,60.15,34.63c1.82,0,3.65,1.82,3.65,3.65l12.76,10.94v12.76l-16.41,18.23c-1.82,1.82-3.65,5.47-5.47,7.29l-12.76,27.34c-1.82,3.65-5.47,9.11-9.11,10.94l-27.34,21.87-1.82,1.82-30.99,27.34-10.94,9.11-12.76,7.29-7.29,3.65-10.94,9.11-5.47,10.94-1.82,18.23Z"/>
      <path class="cls-1" d="M304.51,41.59l10.94,10.94,47.39,41.92,7.29,14.58,20.05,20.05,10.94,5.47,5.47-5.47v-32.81l9.11-12.76,3.65-9.11-32.81-27.34c-3.65-3.65-7.29-5.47-12.76-7.29l-12.76-7.29c-7.29-3.65-12.76-5.47-20.05-5.47-9.11,0-16.41,0-25.52,3.65l-7.29,1.82-3.65,9.11Z"/>
      <path class="cls-8" d="M683.14,79.51v24.36C649.79,61.52,607.14,25.76,556.94,0h46.7c43.9,0,79.5,35.6,79.5,79.5Z"/>
      <path class="cls-8" d="M683.14,103.86v52.92c-17.83-27.68-40.51-56.33-61.91-76.06C580.04,42.74,532.34,16.22,478.11,0h78.83c50.21,25.76,92.85,61.52,126.2,103.86Z"/>
      <path class="cls-5" d="M548.74,213.48c7.56,1.25,15.15,2.47,22.74,3.72,11.49,1.46,22.89,3.2,33.96,6.8,1.19.09,2.41.06,3.54.3,25.09,5.91,49.81,13.02,73.5,23.29.21.09.46.18.67.27v-32.65c-44.72-17.99-91.76-26.58-139.13-33.93-3.23-.52-5.52-1.07-6.22-4.91-2.77-15.64-6.49-31.03-10.88-46.27C513.62,83.9,497.46,39.05,466.31,0h-43.47c7.99,5.55,14.6,12.62,20.48,20.18,16.83,21.58,28.99,45.79,38.96,71.18,10.12,25.88,17.5,52.52,23.2,79.68.94,4.51-.06,6.01-4.79,5.24-6.61-1.04-13.32-1.65-20-2.44-1.98,0-3.99.18-5.94,0-30.24-2.96-60.63-3.45-90.96-4.24-1.98-.06-3.99-.06-5.98-.09-2.01.03-3.99.03-6.01.09-30.33.79-60.69,1.28-90.93,4.24-1.98.18-3.96,0-5.94,0-6.68.79-13.38,1.4-20.03,2.44-4.69.76-5.7-.73-4.76-5.24,5.7-27.16,13.05-53.8,23.2-79.68,9.94-25.39,22.13-49.6,38.93-71.18,5.88-7.56,12.53-14.63,20.49-20.18h-33.04c-3.54,0-7.07.06-10.58.21-31.03,39.02-47.19,83.77-60.45,129.89-4.36,15.24-8.08,30.64-10.88,46.27-.67,3.84-2.96,4.39-6.22,4.91-49.02,7.59-97.73,16.55-143.82,35.85-9.88,4.15-19.57,8.66-28.93,14.3.21-28.62,50.63-109.28,95.57-150.71C174.64,43.63,221.04,17.47,273.71,1.16c-82.37,7.04-155.22,47.43-205.03,107.61-.06.09-.15.18-.24.31-22.89,27.77-40.91,59.72-52.71,94.53-.03.06-.06.15-.06.24C5.52,233.97,0,266.22,0,299.75v83.68c0,30.51,4.54,59.93,13.05,87.67,9.57,31.46,24.23,60.75,43.01,86.88,50.69,70.66,131.38,118.37,223.44,124.46-.67-.18-1.31-.37-1.98-.55-27.98-7.32-54.2-18.9-79.29-33.17-32.37-18.38-60.81-41.7-85.72-69.2-18.69-20.64-35.03-43.04-48.35-67.55-10.58-19.39-19.3-39.54-25.94-60.57-.61-1.95-2.13-3.87-.82-6.92,18.66,8.87,37.98,15.76,57.61,21.8,27.34,7.16,54.99,13.05,83.01,17.07.58.09,1.1.46,1.65.67,11.16,1.28,22.34,2.56,33.5,3.81,1.77.18,2.99.82,3.29,2.74,2.83,16.74,6.98,33.2,10.79,49.72,6.46,19.91,12.93,39.84,19.39,59.75,2.71,5.91,5.52,11.77,8.11,17.74,8.63,20.12,20.06,38.56,33.41,55.85,2.8,3.05,5.58,6.1,8.69,9.48.94.03,1.92.03,2.87.03h43.29c-5.4-3.17-10.52-6.95-15.46-11.13-.98-.82-1.31-1.92-1.34-3.17-5.52-1.83-7.99-6.86-11.31-10.88-10.88-13.26-19.54-27.89-26.92-43.35-.58-1.22-.73-2.62-1.07-3.96-5.88-6.49-8.29-14.66-10.73-22.8-1.49-.82-1.31-2.23-1.25-3.6-.33-.4-.64-.79-.98-1.19-8.87-21.67-14.82-44.23-20.3-66.94-1.62-6.74-2.68-13.6-4.36-20.3-.91-3.63.18-4.79,3.69-4.39,23.38,2.62,46.88,3.96,70.39,5.43,8.11.52,16.25.3,24.39.49,10.03.21,20.03.55,30.06.73,10-.18,20.03-.52,30.06-.73,8.11-.18,16.28.03,24.39-.49,23.47-1.46,46.98-2.8,70.39-5.43,3.51-.4,4.57.76,3.66,4.39-1.68,6.71-2.74,13.57-4.36,20.3-5.46,22.71-11.43,45.27-20.27,66.94-.34.4-.67.79-.98,1.19.06,1.37.24,2.77-1.25,3.6-2.47,8.14-4.85,16.31-10.73,22.8-.37,1.34-.52,2.74-1.1,3.96-7.35,15.46-16,30.09-26.92,43.35-3.32,4.02-5.79,9.05-11.28,10.88-.03,1.25-.37,2.35-1.37,3.17-4.94,4.18-10.03,7.96-15.46,11.13h46.15c3.11-3.38,5.91-6.43,8.69-9.51,13.35-17.28,24.78-35.73,33.44-55.85,2.56-5.97,5.4-11.83,8.11-17.74,6.46-19.91,12.93-39.84,19.39-59.75,3.81-16.52,7.96-32.98,10.76-49.72.34-1.92,1.55-2.56,3.29-2.74,11.19-1.25,22.34-2.53,33.53-3.81.55-.21,1.07-.58,1.65-.67,28.01-4.02,55.63-9.91,83.01-17.07,7.56-2.32,15.06-4.79,22.53-7.44v-33.47c-.34.12-.67.24-1.01.33-11.4,5.73-23.78,8.66-35.97,12.04-20.24,5.61-40.63,10.52-61.52,13.14-11.34,2.77-22.92,3.99-34.45,5.76-4.97.76-5.37-1.34-4.82-5.7,2.07-16.06,4.12-32.16,5.4-48.32,1.83-23.32,2.87-46.7,2.65-70.08-.49-23.41-1.52-46.79-3.54-70.14-.82-9.45-2.84-18.84-2.35-28.41-2.01-5.21-1.46-10.85-2.77-16.16-.98-3.99.27-5,3.96-4.36ZM210.86,217.84c-1.31,5.3-.79,10.94-2.77,16.16.49,9.57-1.52,18.96-2.35,28.41-2.01,23.35-3.08,46.73-3.54,70.14-.24,23.38.82,46.76,2.65,70.08,1.25,16.16,3.32,32.25,5.37,48.32.58,4.36.15,6.46-4.82,5.7-11.49-1.77-23.11-2.99-34.42-5.76-20.88-2.62-41.31-7.53-61.55-13.14-12.16-3.38-24.54-6.31-35.97-12.04-16-4.85-30.73-12.41-44.87-21.25-1.68-1.07-2.38-2.65-2.59-4.45-3.51-29.26-6.8-58.5-4.02-88.1,1.04-11,2.35-21.98,3.87-32.92.58-4.15,2.16-7.44,6.04-9.6,6.04-3.38,11.92-7.01,17.86-10.55,1.04-.21,2.07-.46,3.08-.67,5.85-5.33,13.32-7.56,20.33-10.58,23.69-10.27,48.41-17.38,73.47-23.29,1.16-.24,2.38-.21,3.57-.3,11.04-3.6,22.47-5.33,33.96-6.8,7.56-1.25,15.15-2.47,22.74-3.72,3.66-.64,4.94.37,3.96,4.36ZM520.2,397.48c-1.43,19.57-3.66,39.02-6.16,58.47-.4,3.29-1.52,4.15-4.66,4.48-13.99,1.55-27.98,2.65-42.04,3.69-29.81,2.13-59.66,3.32-89.53,3.41-29.9-.09-59.72-1.28-89.56-3.41-14.02-1.04-28.01-2.13-42.01-3.69-3.17-.34-4.27-1.19-4.69-4.48-2.47-19.45-4.69-38.9-6.13-58.47-1.62-21.98-2.35-43.96-2.04-66-.7-22.95,1.16-45.82,3.17-68.68,1.46-16.34,3.9-32.53,6.1-48.74.55-3.96,1.92-5.55,5.7-5.94,6.46-.7,12.89-1.98,19.45-1.98,12.1-2.13,24.42-2.47,36.67-3.2,24.42-1.46,48.87-2.53,73.34-2.68,24.48.15,48.93,1.22,73.34,2.68,12.22.73,24.54,1.07,36.67,3.2,6.55,0,12.96,1.28,19.45,1.98,3.75.4,5.15,1.98,5.67,5.94,2.23,16.22,4.66,32.4,6.1,48.74,2.04,22.86,3.9,45.73,3.2,68.68.27,22.04-.43,44.02-2.04,66ZM643.11,579.53c-24.94,27.5-53.38,50.82-85.72,69.2-25.12,14.27-51.3,25.85-79.29,33.17-1.52.43-3.05.82-4.6,1.25h84.53c1.13-.58,2.26-1.19,3.38-1.8,49.32-26.8,89.93-60.42,121.72-100.78v-54.2c-11.61,18.96-25.06,36.64-40.03,53.16Z"/>
      <path class="cls-6" d="M683.14,580.57v23.08c0,43.9-35.61,79.5-79.5,79.5h-45.6c1.13-.58,2.26-1.19,3.38-1.8,49.32-26.8,89.93-60.42,121.72-100.78Z"/>
      <path class="cls-7" d="M652.66,496.09v107.55c0,27.04-21.98,49.02-49.02,49.02h-303.92c-148.46,0-269.23-120.78-269.23-269.23v-83.68C30.48,151.29,151.26,30.48,299.72,30.48h295.05V0h-295.05C134.19,0,0,134.19,0,299.75v83.68c0,165.53,134.19,299.72,299.72,299.72h303.92c43.9,0,79.5-35.57,79.5-79.5v-107.55h-30.48Z"/>
      <path class="cls-3" d="M501.39,361.37h161.79c88.12,0,159.56,71.44,159.56,159.56v44.55c0,88.12-71.44,159.56-159.56,159.56h-161.79c-23.37,0-42.32-18.95-42.32-42.32v-279.02c0-23.37,18.95-42.32,42.32-42.32Z"/>
      <path class="cls-4" d="M475.3,460.95v-57.25c0-14.39,11.71-26.09,26.11-26.09h161.87c79.07,0,143.39,64.3,143.39,143.33v44.55c0,79.03-64.33,143.34-143.39,143.34h-157.14v16.23h157.14c88.16,0,159.63-71.44,159.63-159.57v-44.55c0-88.12-71.47-159.55-159.63-159.55h-161.87c-23.38,0-42.34,18.94-42.34,42.32v57.25h16.24Z"/>
      <path class="cls-2" d="M504.69,557.32c.43-10.59,5.03-18.31,14.41-22.53,9.5-4.28,18.51-2.64,26.26,4.28,11.87,10.59,23.56,21.39,35.33,32.1,2.24,2.04,4.46,4.09,6.71,6.12,3.39,3.04,6.4,2.89,9.43-.53,25.51-28.82,51-57.64,76.5-86.47,17.25-19.5,34.51-38.98,51.75-58.48,2.13-2.41,4.61-3.61,7.83-2.55,2.72.9,4.75,3.35,4.63,6.22-.06,1.54-.69,3.2-1.51,4.53-19.55,31.6-39.15,63.17-58.75,94.74-22.56,36.34-45.13,72.68-67.68,109.03-3.94,6.34-9.3,10.65-16.8,11.85-8.49,1.36-15.58-1.38-20.99-7.97-19.36-23.6-38.62-47.28-57.93-70.91-3.61-4.42-7.46-8.69-8.51-14.6-.3-1.7-.48-3.41-.67-4.81Z"/>
    </g>
  </g>
</svg>