<?xml version="1.0" encoding="UTF-8"?>
<svg id="Camada_2" xmlns="http://www.w3.org/2000/svg" xmlns:xlink="http://www.w3.org/1999/xlink" viewBox="0 0 1437.17 422.28">
  <defs>
    <style>
      .cls-1 {
        fill: #6c3;
      }

      .cls-2 {
        fill: #fff;
      }

      .cls-3 {
        fill: #fa880a;
      }

      .cls-4 {
        fill: url(#Gradiente_sem_nome_72);
      }

      .cls-5 {
        fill: url(#Gradiente_sem_nome_102);
      }

      .cls-6 {
        fill: #2ba0ef;
      }

      .cls-7 {
        fill: url(#Gradiente_sem_nome_103);
      }

      .cls-8 {
        fill: #013f71;
      }
    </style>
    <linearGradient id="Gradiente_sem_nome_102" data-name="Gradiente sem nome 102" x1="0" y1="198.94" x2="397.88" y2="198.94" gradientUnits="userSpaceOnUse">
      <stop offset="0" stop-color="#097ede"/>
      <stop offset=".86" stop-color="#013f71"/>
    </linearGradient>
    <linearGradient id="Gradiente_sem_nome_103" data-name="Gradiente sem nome 103" x1="0" y1="198.94" x2="371.02" y2="198.94" gradientUnits="userSpaceOnUse">
      <stop offset="0" stop-color="#0878d3"/>
      <stop offset=".86" stop-color="#013f71"/>
    </linearGradient>
    <linearGradient id="Gradiente_sem_nome_72" data-name="Gradiente sem nome 72" x1="-3481.62" y1="6504.21" x2="-3284.02" y2="6504.21" gradientTransform="translate(-3002.34 6820.59) rotate(-180)" gradientUnits="userSpaceOnUse">
      <stop offset="0" stop-color="#faa94c"/>
      <stop offset=".86" stop-color="#fa880a"/>
    </linearGradient>
  </defs>
  <g id="Camada_1-2" data-name="Camada_1">
    <g>
      <g>
        <path class="cls-8" d="M480.24,130.17c0-13.63,2.03-26.02,6.11-37.16,4.07-11.14,9.93-20.66,17.58-28.56,7.65-7.89,16.87-14.01,27.68-18.33,10.81-4.32,23.03-6.48,36.66-6.48,15.63,0,29.3,2.79,41.03,8.35,11.72,5.57,21.57,13.34,29.55,23.32l-25.44,17.46c-5.32-6.48-11.68-11.51-19.08-15.09-7.4-3.57-16.09-5.36-26.06-5.36-8.98,0-17,1.46-24.07,4.36-7.07,2.91-13.01,7.03-17.83,12.34-4.82,5.32-8.52,11.81-11.1,19.45-2.58,7.65-3.87,16.21-3.87,25.69s1.29,18.04,3.87,25.69c2.58,7.65,6.27,14.13,11.1,19.45,4.82,5.32,10.76,9.44,17.83,12.34,7.07,2.91,15.09,4.36,24.07,4.36,7.48,0,14.3-.95,20.45-2.87,6.15-1.91,11.55-4.61,16.21-8.1v-29.93h-36.66v-28.68h67.84v69.83c-6.82,8.48-15.92,15.34-27.31,20.58-11.39,5.24-24.9,7.86-40.53,7.86-13.63,0-25.86-2.16-36.66-6.48-10.81-4.32-20.04-10.43-27.68-18.33-7.65-7.89-13.51-17.42-17.58-28.56-4.08-11.14-6.11-23.53-6.11-37.16Z"/>
        <path class="cls-8" d="M652.57,42.88h29.93v174.58h-29.93V42.88Z"/>
        <path class="cls-8" d="M693.97,155.11c0-9.64,1.54-18.41,4.61-26.31,3.07-7.89,7.44-14.63,13.09-20.2,5.65-5.57,12.47-9.89,20.45-12.97,7.98-3.07,16.79-4.61,26.44-4.61s18.41,1.54,26.31,4.61c7.89,3.08,14.67,7.4,20.33,12.97,5.65,5.57,10.01,12.31,13.09,20.2,3.07,7.9,4.61,16.67,4.61,26.31s-1.54,18.46-4.61,26.44c-3.08,7.98-7.44,14.8-13.09,20.45-5.65,5.65-12.43,10.02-20.33,13.09-7.9,3.07-16.67,4.61-26.31,4.61s-18.46-1.54-26.44-4.61-14.8-7.44-20.45-13.09c-5.65-5.65-10.02-12.47-13.09-20.45-3.08-7.98-4.61-16.79-4.61-26.44ZM723.89,155.36c0,11.64,3.12,20.7,9.35,27.18s14.59,9.73,25.06,9.73,18.87-3.24,25.19-9.73c6.32-6.48,9.48-15.54,9.48-27.18s-3.16-20.7-9.48-27.18c-6.32-6.48-14.71-9.73-25.19-9.73s-18.83,3.24-25.06,9.73-9.35,15.55-9.35,27.18Z"/>
        <path class="cls-8" d="M863.06,42.88v62.1c2.99-3.82,7.65-7.15,13.96-9.98,6.32-2.83,13.97-4.24,22.95-4.24s17.29,1.54,24.94,4.61c7.65,3.08,14.22,7.44,19.7,13.09,5.49,5.65,9.77,12.47,12.85,20.45,3.07,7.98,4.61,16.8,4.61,26.44s-1.54,18.37-4.61,26.19c-3.08,7.82-7.44,14.55-13.09,20.2s-12.34,10.02-20.08,13.09c-7.73,3.07-16.34,4.61-25.81,4.61s-17.71-1.46-25.69-4.36-14.88-7.11-20.7-12.59c-5.82-5.49-10.44-12.22-13.84-20.2-3.41-7.98-5.11-16.96-5.11-26.93V42.88h29.93ZM922.79,127.92c-6.23-6.48-14.59-9.73-25.06-9.73s-18.88,3.24-25.19,9.73c-6.32,6.48-9.47,15.55-9.47,27.18s3.16,20.7,9.47,27.18c6.32,6.48,14.71,9.73,25.19,9.73s18.83-3.24,25.06-9.73,9.35-15.54,9.35-27.18-3.12-20.7-9.35-27.18Z"/>
        <path class="cls-8" d="M1036.64,91.01c9.64,0,18.46,1.54,26.44,4.61,7.98,3.08,14.8,7.44,20.45,13.09,5.65,5.65,10.01,12.47,13.09,20.45,3.07,7.98,4.61,16.8,4.61,26.44v61.85h-29.93v-11.97c-2.99,3.83-7.61,7.15-13.84,9.98-6.24,2.82-13.93,4.24-23.07,4.24s-17.29-1.54-24.94-4.61c-7.65-3.07-14.22-7.44-19.7-13.09-5.49-5.65-9.77-12.47-12.84-20.45-3.08-7.98-4.61-16.79-4.61-26.44s1.54-18.41,4.61-26.31c3.07-7.89,7.44-14.63,13.09-20.2,5.65-5.57,12.43-9.89,20.33-12.97,7.89-3.07,16.67-4.61,26.31-4.61ZM1071.3,155.36c0-11.64-3.12-20.7-9.35-27.18s-14.59-9.73-25.07-9.73-18.87,3.24-25.19,9.73c-6.32,6.48-9.48,15.55-9.48,27.18s3.16,20.7,9.48,27.18c6.32,6.48,14.71,9.73,25.19,9.73s18.83-3.24,25.07-9.73,9.35-15.54,9.35-27.18Z"/>
        <path class="cls-8" d="M1116.2,42.88h29.93v174.58h-29.93V42.88Z"/>
        <path class="cls-8" d="M1159.59,56.59c0-4.49,1.58-8.36,4.74-11.6,3.16-3.24,7.06-4.86,11.72-4.86s8.56,1.62,11.72,4.86c3.16,3.24,4.74,7.11,4.74,11.6,0,4.82-1.58,8.81-4.74,11.97s-7.07,4.74-11.72,4.74-8.57-1.58-11.72-4.74c-3.16-3.16-4.74-7.15-4.74-11.97ZM1161.09,92.76h29.93v124.7h-29.93v-124.7Z"/>
        <path class="cls-8" d="M1203.48,92.76h99.76v19.95l-57.86,77.31h57.86v27.43h-99.76v-19.95l58.11-77.31h-58.11v-27.43Z"/>
        <path class="cls-8" d="M1372.57,91.01c9.64,0,18.46,1.54,26.44,4.61,7.98,3.08,14.8,7.44,20.45,13.09,5.65,5.65,10.01,12.47,13.09,20.45,3.07,7.98,4.61,16.8,4.61,26.44v61.85h-29.93v-11.97c-2.99,3.83-7.61,7.15-13.84,9.98-6.24,2.82-13.93,4.24-23.07,4.24s-17.29-1.54-24.94-4.61c-7.65-3.07-14.22-7.44-19.7-13.09-5.49-5.65-9.77-12.47-12.84-20.45-3.08-7.98-4.61-16.79-4.61-26.44s1.54-18.41,4.61-26.31c3.07-7.89,7.44-14.63,13.09-20.2,5.65-5.57,12.43-9.89,20.33-12.97,7.89-3.07,16.67-4.61,26.31-4.61ZM1407.24,155.36c0-11.64-3.12-20.7-9.35-27.18-6.23-6.48-14.59-9.73-25.07-9.73s-18.87,3.24-25.19,9.73c-6.32,6.48-9.48,15.55-9.48,27.18s3.16,20.7,9.48,27.18c6.32,6.48,14.71,9.73,25.19,9.73s18.83-3.24,25.07-9.73,9.35-15.54,9.35-27.18Z"/>
      </g>
      <g>
        <path class="cls-3" d="M563.35,310.23c0-8.35,1.25-15.95,3.74-22.77,2.5-6.83,6.09-12.66,10.77-17.5,4.69-4.84,10.34-8.58,16.97-11.23,6.62-2.65,14.11-3.97,22.47-3.97,9.58,0,17.96,1.71,25.14,5.12,7.18,3.41,13.22,8.18,18.11,14.29l-15.59,10.7c-3.26-3.97-7.16-7.05-11.69-9.25-4.53-2.19-9.86-3.29-15.97-3.29-5.5,0-10.42.89-14.75,2.68-4.33,1.78-7.97,4.31-10.93,7.56-2.96,3.26-5.22,7.24-6.8,11.92-1.58,4.69-2.37,9.93-2.37,15.74s.79,11.06,2.37,15.74c1.58,4.69,3.84,8.66,6.8,11.92,2.95,3.26,6.6,5.78,10.93,7.57,4.33,1.78,9.25,2.67,14.75,2.67,6.11,0,11.44-1.09,15.97-3.29,4.53-2.19,8.43-5.27,11.69-9.25l15.59,10.7c-4.89,6.11-10.93,10.88-18.11,14.29-7.18,3.41-15.57,5.12-25.14,5.12-8.36,0-15.84-1.33-22.47-3.97-6.62-2.65-12.28-6.39-16.97-11.23-4.69-4.84-8.28-10.67-10.77-17.5-2.5-6.83-3.74-14.42-3.74-22.77Z"/>
        <path class="cls-3" d="M701.97,325.51c0-5.91.94-11.28,2.83-16.12,1.88-4.84,4.56-8.97,8.02-12.38,3.46-3.41,7.64-6.06,12.53-7.95,4.89-1.88,10.29-2.83,16.2-2.83s11.28.94,16.12,2.83c4.84,1.89,8.99,4.54,12.46,7.95,3.46,3.41,6.14,7.54,8.02,12.38,1.88,4.84,2.83,10.22,2.83,16.12s-.94,11.31-2.83,16.2c-1.89,4.89-4.56,9.07-8.02,12.53s-7.62,6.14-12.46,8.02c-4.84,1.88-10.22,2.83-16.12,2.83s-11.31-.94-16.2-2.83c-4.89-1.88-9.07-4.56-12.53-8.02-3.47-3.46-6.14-7.64-8.02-12.53-1.89-4.89-2.83-10.29-2.83-16.2ZM720.31,325.66c0,7.13,1.91,12.69,5.73,16.66,3.82,3.97,8.94,5.96,15.36,5.96s11.56-1.99,15.44-5.96c3.87-3.97,5.81-9.53,5.81-16.66s-1.94-12.69-5.81-16.66c-3.87-3.97-9.02-5.96-15.44-5.96s-11.54,1.99-15.36,5.96c-3.82,3.97-5.73,9.53-5.73,16.66Z"/>
        <path class="cls-3" d="M861.38,285.92c6.32,0,11.69,1.05,16.12,3.13,4.43,2.09,8.07,4.74,10.93,7.95,2.85,3.21,4.91,6.7,6.19,10.47,1.27,3.77,1.91,7.34,1.91,10.7v45.55h-18.34v-45.09c0-2.75-.46-5.09-1.38-7.03-.92-1.93-2.14-3.57-3.67-4.89-1.53-1.32-3.31-2.29-5.35-2.9-2.04-.61-4.18-.92-6.42-.92s-4.38.31-6.42.92c-2.04.61-3.82,1.58-5.35,2.9-1.53,1.33-2.75,2.96-3.67,4.89-.92,1.94-1.38,4.28-1.38,7.03v45.09h-18.34v-45.55c0-3.36.64-6.93,1.91-10.7,1.27-3.77,3.34-7.26,6.19-10.47,2.85-3.21,6.5-5.86,10.93-7.95,4.43-2.09,9.81-3.13,16.12-3.13Z"/>
        <path class="cls-3" d="M981.67,364.79c-12.64,0-22.19-3.08-28.66-9.25-6.47-6.16-9.71-15.16-9.71-26.98v-71.83h18.34v71.68c0,7.03,1.53,12.05,4.59,15.05,3.06,3.01,8.2,4.51,15.44,4.51v16.81ZM979.07,287.3v16.81h-29.19v-16.81h29.19Z"/>
        <path class="cls-3" d="M1061.75,286.23c5.91,0,11.31.94,16.2,2.83,4.89,1.89,9.07,4.56,12.53,8.02,3.46,3.47,6.14,7.64,8.02,12.53,1.88,4.89,2.83,10.29,2.83,16.2v37.9h-18.34v-7.34c-1.83,2.35-4.66,4.38-8.48,6.11-3.82,1.73-8.54,2.6-14.14,2.6s-10.6-.94-15.28-2.83c-4.69-1.88-8.71-4.56-12.07-8.02-3.36-3.46-5.99-7.64-7.87-12.53-1.89-4.89-2.83-10.29-2.83-16.2s.94-11.28,2.83-16.12c1.88-4.84,4.56-8.97,8.02-12.38,3.46-3.41,7.62-6.06,12.46-7.95,4.84-1.88,10.21-2.83,16.12-2.83ZM1083,325.66c0-7.13-1.91-12.69-5.73-16.66-3.82-3.97-8.94-5.96-15.36-5.96s-11.57,1.99-15.44,5.96c-3.87,3.97-5.81,9.53-5.81,16.66s1.93,12.69,5.81,16.66c3.87,3.97,9.02,5.96,15.44,5.96s11.54-1.99,15.36-5.96c3.82-3.97,5.73-9.53,5.73-16.66ZM1052.12,279.96c2.45-3.46,4.53-7.21,6.27-11.23,1.73-4.02,2.75-7.67,3.06-10.93h12.53c-.61,2.24-1.48,4.49-2.6,6.73-1.12,2.24-2.42,4.31-3.9,6.19-1.48,1.89-3.01,3.62-4.59,5.2s-3.08,2.93-4.51,4.05h-6.27Z"/>
        <path class="cls-3" d="M1164.76,256.73v38.06c1.83-2.34,4.69-4.38,8.56-6.11,3.87-1.73,8.56-2.6,14.06-2.6s10.6.94,15.28,2.83c4.68,1.89,8.71,4.56,12.07,8.02,3.36,3.47,5.99,7.64,7.87,12.53,1.88,4.89,2.83,10.29,2.83,16.2s-.94,11.26-2.83,16.05c-1.89,4.79-4.56,8.92-8.02,12.38s-7.57,6.14-12.3,8.02c-4.74,1.88-10.01,2.83-15.82,2.83s-10.85-.89-15.74-2.67-9.12-4.36-12.69-7.72c-3.57-3.36-6.4-7.49-8.48-12.38-2.09-4.89-3.13-10.39-3.13-16.51v-68.93h18.34ZM1201.37,308.85c-3.82-3.97-8.94-5.96-15.36-5.96s-11.57,1.99-15.44,5.96c-3.87,3.97-5.81,9.53-5.81,16.66s1.93,12.69,5.81,16.66c3.87,3.97,9.02,5.96,15.44,5.96s11.54-1.99,15.36-5.96c3.82-3.97,5.73-9.53,5.73-16.66s-1.91-12.69-5.73-16.66Z"/>
        <path class="cls-3" d="M1270.53,265.14c0-2.75.97-5.12,2.9-7.11,1.93-1.99,4.33-2.98,7.18-2.98s5.25.99,7.18,2.98c1.93,1.99,2.9,4.36,2.9,7.11,0,2.96-.97,5.4-2.9,7.34s-4.33,2.9-7.18,2.9-5.25-.97-7.18-2.9c-1.94-1.93-2.9-4.38-2.9-7.34ZM1271.44,287.3h18.34v76.42h-18.34v-76.42Z"/>
        <path class="cls-3" d="M1337.16,256.73h18.34v106.99h-18.34v-106.99Z"/>
      </g>
      <path class="cls-8" d="M351.57,397.88h-177C78.16,397.88,0,319.72,0,223.31v-48.74C0,78.16,78.16,0,174.57,0h177c25.57,0,46.3,20.73,46.3,46.3v305.27c0,25.57-20.73,46.3-46.3,46.3Z"/>
      <g>
        <path class="cls-1" d="M194.34,389.43l-14.86-1.06v-10.62l4.25-7.43-1.06-9.55,5.31-8.49,3.18-20.17c1.06-7.43-2.12-14.86-8.49-19.11-3.18-2.12-5.31-5.31-7.43-8.49l-6.37-14.86-6.37-4.25v-5.31l2.12-6.37,1.06-6.37,8.49-7.43-12.74-11.68-2.12-2.12-9.55-7.43s-1.06,0-1.06-1.06l-15.92-10.62c-1.06-1.06-2.12-1.06-4.25-2.12l-9.55-3.18c-1.06,0-2.12-1.06-3.18-1.06l-16.99-9.55c-2.12-1.06-4.25-3.18-5.31-5.31l-10.62-13.8c-1.06-2.12-2.12-3.18-3.18-5.31l-7.43-21.23c-1.06-2.12-2.12-4.25-3.18-5.31l-1.06-2.12c-2.12-3.18-4.25-7.43-4.25-11.68v-5.31c0-2.12,0-4.25,1.06-6.37l7.43-19.11c1.06-3.18,1.06-6.37,1.06-9.55l-5.31-35.03-8.49-2.12-11.68,7.43-2.12-7.43,23.36-16.99v-5.31l12.74-5.31c4.25-2.12,8.49-2.12,12.74-1.06l41.4,10.62,8.49,1.06,13.8-1.06,1.06,7.43-20.17,22.29,3.18,8.49,6.37-1.06,14.86,8.49,7.43-3.18,2.12-22.29h8.49l13.8,6.37c3.18,1.06,6.37,4.25,8.49,7.43l2.12,3.18c1.06,1.06,2.12,3.18,4.25,4.25l8.49,7.43c2.12,2.12,3.18,3.18,5.31,5.31l8.49,15.92-4.25,4.25-13.8,4.25-8.49,1.06-14.86,10.62-1.06,1.06-4.25,3.18c-3.18,2.12-5.31,5.31-6.37,8.49l-1.06,2.12c-1.06,3.18-3.18,6.37-5.31,8.49l-12.74,11.68-5.31,3.18-36.1,6.37-1.06,3.18c-1.06,5.31,0,11.68,4.25,15.92l6.37,7.43c2.12,2.12,5.31,4.25,8.49,5.31l10.62,4.25c2.12,1.06,4.25,2.12,6.37,4.25l21.23,20.17,4.25-5.31,5.31-3.18c4.25-2.12,8.49-3.18,12.74-2.12l16.99,3.18,6.37,4.25,18.05,9.55,35.03,20.17c1.06,0,2.12,1.06,2.12,2.12l7.43,6.37v7.43l-9.55,10.62c-1.06,1.06-2.12,3.18-3.18,4.25l-7.43,15.92c-1.06,2.12-3.18,5.31-5.31,6.37l-15.92,12.74-1.06,1.06-18.05,15.92-6.37,5.31-7.43,4.25-4.25,2.12-6.37,5.31-3.18,6.37-1.06,10.62Z"/>
        <path class="cls-1" d="M177.35,24.22l6.37,6.37,27.6,24.42,4.25,8.49,11.68,11.68,6.37,3.18,3.18-3.18v-19.11l5.31-7.43,2.12-5.31-19.11-15.92c-2.12-2.12-4.25-3.18-7.43-4.25l-7.43-4.25c-4.25-2.12-7.43-3.18-11.68-3.18-5.31,0-9.55,0-14.86,2.12l-4.25,1.06-2.12,5.31Z"/>
      </g>
      <path class="cls-8" d="M397.88,46.31v14.19C378.45,35.83,353.61,15,324.37,0h27.2c25.57,0,46.3,20.74,46.3,46.3Z"/>
      <path class="cls-8" d="M397.88,60.49v30.82c-10.39-16.12-23.6-32.81-36.06-44.3C337.83,24.89,310.04,9.45,278.46,0h45.91c29.24,15,54.08,35.83,73.5,60.49Z"/>
      <path class="cls-5" d="M319.6,124.34c4.4.73,8.82,1.44,13.24,2.17,6.69.85,13.33,1.86,19.78,3.96.69.05,1.4.04,2.06.18,14.61,3.44,29.01,7.58,42.81,13.56.12.05.27.11.39.16v-19.01c-26.05-10.48-53.44-15.48-81.03-19.76-1.88-.3-3.21-.62-3.62-2.86-1.62-9.11-3.78-18.07-6.34-26.95C299.14,48.86,289.73,22.75,271.59,0h-25.32c4.65,3.23,8.5,7.35,11.93,11.75,9.8,12.57,16.88,26.67,22.69,41.46,5.89,15.07,10.19,30.59,13.51,46.41.55,2.63-.04,3.5-2.79,3.05-3.85-.6-7.76-.96-11.65-1.42-1.15,0-2.33.11-3.46,0-17.61-1.72-35.31-2.01-52.98-2.47-1.15-.04-2.33-.04-3.48-.05-1.17.02-2.33.02-3.5.05-17.67.46-35.35.75-52.96,2.47-1.15.11-2.31,0-3.46,0-3.89.46-7.79.82-11.66,1.42-2.73.44-3.32-.43-2.77-3.05,3.32-15.82,7.6-31.34,13.51-46.41,5.79-14.79,12.89-28.89,22.67-41.46,3.43-4.4,7.3-8.52,11.93-11.75h-19.25c-2.06,0-4.12.04-6.16.12-18.07,22.73-27.48,48.79-35.21,75.65-2.54,8.88-4.7,17.84-6.34,26.95-.39,2.24-1.72,2.56-3.62,2.86-28.55,4.42-56.92,9.64-83.77,20.88-5.75,2.41-11.4,5.04-16.85,8.33.12-16.67,29.49-63.65,55.66-87.78C101.71,25.41,128.74,10.18,159.42.68c-47.97,4.1-90.41,27.63-119.42,62.67-.04.05-.09.11-.14.18-13.33,16.17-23.83,34.78-30.7,55.06-.02.04-.04.09-.04.14C3.21,136.27,0,155.05,0,174.58v48.74c0,17.77,2.65,34.9,7.6,51.06,5.57,18.32,14.11,35.38,25.05,50.6,29.53,41.15,76.52,68.94,130.14,72.49-.39-.11-.76-.21-1.15-.32-16.3-4.26-31.57-11.01-46.18-19.32-18.86-10.71-35.42-24.29-49.93-40.3-10.88-12.02-20.4-25.07-28.16-39.34-6.16-11.29-11.24-23.03-15.11-35.28-.36-1.14-1.24-2.25-.48-4.03,10.87,5.17,22.12,9.18,33.56,12.69,15.93,4.17,32.03,7.6,48.35,9.94.34.05.64.27.96.39,6.5.75,13.01,1.49,19.51,2.22,1.03.11,1.74.48,1.92,1.6,1.65,9.75,4.07,19.33,6.29,28.96,3.76,11.59,7.53,23.2,11.29,34.8,1.58,3.44,3.21,6.85,4.72,10.33,5.02,11.72,11.68,22.46,19.46,32.53,1.63,1.78,3.25,3.55,5.06,5.52.55.02,1.12.02,1.67.02h25.21c-3.14-1.85-6.13-4.05-9-6.48-.57-.48-.76-1.12-.78-1.85-3.21-1.07-4.65-3.99-6.59-6.34-6.34-7.72-11.38-16.25-15.68-25.25-.34-.71-.43-1.53-.62-2.31-3.43-3.78-4.83-8.54-6.25-13.28-.87-.48-.76-1.3-.73-2.1-.2-.23-.37-.46-.57-.69-5.17-12.62-8.63-25.76-11.82-38.99-.94-3.92-1.56-7.92-2.54-11.82-.53-2.11.11-2.79,2.15-2.56,13.62,1.53,27.31,2.31,40.99,3.16,4.72.3,9.46.18,14.2.28,5.84.12,11.66.32,17.51.43,5.82-.11,11.66-.3,17.51-.43,4.72-.11,9.48.02,14.2-.28,13.67-.85,27.36-1.63,40.99-3.16,2.04-.23,2.66.44,2.13,2.56-.98,3.91-1.6,7.9-2.54,11.82-3.18,13.23-6.66,26.37-11.81,38.99-.2.23-.39.46-.57.69.04.8.14,1.62-.73,2.1-1.44,4.74-2.82,9.5-6.25,13.28-.21.78-.3,1.6-.64,2.31-4.28,9-9.32,17.52-15.68,25.25-1.94,2.34-3.37,5.27-6.57,6.34-.02.73-.21,1.37-.8,1.85-2.88,2.43-5.84,4.63-9,6.48h26.88c1.81-1.97,3.44-3.75,5.06-5.54,7.78-10.07,14.43-20.81,19.48-32.53,1.49-3.48,3.14-6.89,4.72-10.33,3.76-11.59,7.53-23.2,11.29-34.8,2.22-9.62,4.63-19.21,6.27-28.96.2-1.12.91-1.49,1.92-1.6,6.52-.73,13.01-1.47,19.53-2.22.32-.12.62-.34.96-.39,16.32-2.34,32.4-5.77,48.35-9.94,4.4-1.35,8.77-2.79,13.12-4.33v-19.49c-.2.07-.39.14-.59.2-6.64,3.34-13.85,5.04-20.95,7.01-11.79,3.27-23.67,6.13-35.83,7.65-6.6,1.62-13.35,2.33-20.06,3.36-2.89.44-3.12-.78-2.81-3.32,1.21-9.36,2.4-18.73,3.14-28.14,1.07-13.58,1.67-27.2,1.54-40.82-.28-13.64-.89-27.25-2.06-40.85-.48-5.5-1.65-10.97-1.37-16.55-1.17-3.04-.85-6.32-1.62-9.41-.57-2.33.16-2.91,2.31-2.54ZM122.81,126.88c-.76,3.09-.46,6.37-1.62,9.41.28,5.57-.89,11.04-1.37,16.55-1.17,13.6-1.79,27.22-2.06,40.85-.14,13.62.48,27.24,1.54,40.82.73,9.41,1.94,18.78,3.12,28.14.34,2.54.09,3.76-2.81,3.32-6.69-1.03-13.46-1.74-20.04-3.36-12.16-1.53-24.06-4.39-35.85-7.65-7.08-1.97-14.29-3.68-20.95-7.01-9.32-2.82-17.9-7.23-26.13-12.37-.98-.62-1.38-1.54-1.51-2.59-2.04-17.04-3.96-34.07-2.34-51.31.6-6.41,1.37-12.8,2.25-19.17.34-2.41,1.26-4.33,3.52-5.59,3.52-1.97,6.94-4.08,10.4-6.14.6-.12,1.21-.27,1.79-.39,3.41-3.11,7.76-4.4,11.84-6.16,13.8-5.98,28.19-10.12,42.79-13.56.67-.14,1.38-.12,2.08-.18,6.43-2.09,13.08-3.11,19.78-3.96,4.4-.73,8.82-1.44,13.24-2.17,2.13-.37,2.88.21,2.31,2.54ZM302.98,231.5c-.83,11.4-2.13,22.73-3.59,34.05-.23,1.92-.89,2.41-2.72,2.61-8.15.91-16.3,1.54-24.48,2.15-17.36,1.24-34.75,1.94-52.14,1.99-17.42-.05-34.78-.75-52.16-1.99-8.17-.6-16.32-1.24-24.47-2.15-1.85-.2-2.49-.69-2.73-2.61-1.44-11.33-2.73-22.65-3.57-34.05-.94-12.8-1.37-25.6-1.19-38.44-.41-13.37.67-26.68,1.85-40,.85-9.52,2.27-18.94,3.55-28.39.32-2.31,1.12-3.23,3.32-3.46,3.76-.41,7.51-1.15,11.33-1.15,7.05-1.24,14.22-1.44,21.36-1.86,14.22-.85,28.46-1.47,42.72-1.56,14.26.09,28.5.71,42.72,1.56,7.12.43,14.29.62,21.36,1.86,3.82,0,7.55.75,11.33,1.15,2.18.23,3,1.15,3.3,3.46,1.3,9.45,2.72,18.87,3.55,28.39,1.19,13.32,2.27,26.63,1.86,40,.16,12.84-.25,25.64-1.19,38.44ZM374.56,337.53c-14.52,16.01-31.09,29.6-49.92,40.3-14.63,8.31-29.88,15.06-46.18,19.32-.89.25-1.78.48-2.68.73h49.23c.66-.34,1.31-.69,1.97-1.05,28.73-15.61,52.38-35.19,70.89-58.7v-31.57c-6.76,11.04-14.59,21.34-23.31,30.96Z"/>
      <path class="cls-6" d="M397.88,338.13v13.44c0,25.57-20.74,46.3-46.3,46.3h-26.56c.66-.34,1.31-.69,1.97-1.05,28.73-15.61,52.38-35.19,70.89-58.7Z"/>
      <path class="cls-7" d="M380.12,288.93v62.64c0,15.75-12.8,28.55-28.55,28.55h-177.01c-86.46,0-156.81-70.34-156.81-156.81v-48.74C17.75,88.12,88.1,17.75,174.56,17.75h171.84V0h-171.84C78.15,0,0,78.15,0,174.58v48.74c0,96.41,78.15,174.56,174.56,174.56h177.01c25.57,0,46.3-20.72,46.3-46.3v-62.64h-17.75Z"/>
      <path class="cls-3" d="M292.02,210.47h94.23c51.32,0,92.93,41.61,92.93,92.93v25.95c0,51.32-41.61,92.93-92.93,92.93h-94.23c-13.61,0-24.65-11.04-24.65-24.65v-162.51c0-13.61,11.04-24.65,24.65-24.65Z"/>
      <path class="cls-4" d="M276.83,268.47v-33.35c0-8.38,6.82-15.2,15.21-15.2h94.28c46.05,0,83.52,37.45,83.52,83.48v25.94c0,46.03-37.46,83.49-83.52,83.49h-91.52v9.45h91.52c51.35,0,92.97-41.61,92.97-92.94v-25.94c0-51.32-41.63-92.93-92.97-92.93h-94.28c-13.62,0-24.66,11.03-24.66,24.65v33.35h9.46Z"/>
      <path class="cls-2" d="M293.94,324.6c.25-6.17,2.93-10.67,8.39-13.12,5.54-2.49,10.78-1.54,15.29,2.49,6.92,6.17,13.72,12.46,20.58,18.7,1.3,1.19,2.6,2.38,3.91,3.56,1.97,1.77,3.73,1.69,5.49-.31,14.86-16.78,29.7-33.57,44.56-50.36,10.05-11.35,20.1-22.7,30.14-34.06,1.24-1.4,2.68-2.1,4.56-1.49,1.59.52,2.77,1.95,2.7,3.62-.04.89-.4,1.86-.88,2.64-11.38,18.41-22.8,36.79-34.22,55.18-13.14,21.17-26.28,42.33-39.42,63.5-2.29,3.69-5.42,6.2-9.79,6.9-4.95.79-9.07-.8-12.22-4.64-11.28-13.74-22.49-27.54-33.74-41.3-2.1-2.58-4.35-5.06-4.96-8.5-.18-.99-.28-1.99-.39-2.8Z"/>
    </g>
  </g>
</svg>